<svg xmlns="http://www.w3.org/2000/svg" viewBox="0 0 665.3 256.51"><defs><style>.cls-1,.cls-2,.cls-3,.cls-4,.cls-5,.cls-8{fill:none;}.cls-1,.cls-7{stroke:#5cbccd;}.cls-1,.cls-12,.cls-13,.cls-15,.cls-19,.cls-2,.cls-3,.cls-4,.cls-5,.cls-7,.cls-8{stroke-miterlimit:10;}.cls-1,.cls-4,.cls-5,.cls-7{stroke-width:12px;}.cls-2,.cls-5{stroke:#33b44a;}.cls-2,.cls-3{stroke-width:7px;}.cls-3,.cls-4{stroke:#6cc;}.cls-6{fill:#ff00c9;}.cls-7{fill:#f4eb88;}.cls-8{stroke:#2e3192;stroke-width:2px;}.cls-11,.cls-9{font-size:18px;}.cls-9{fill:#6cc;}.cls-11,.cls-14,.cls-9{font-family:Rockwell;}.cls-10{letter-spacing:-0.05em;}.cls-11{fill:#33b44a;}.cls-12{fill:red;}.cls-12,.cls-13,.cls-19{stroke:#000;}.cls-13,.cls-15{fill:#9cc;}.cls-14{font-size:12px;}.cls-15{stroke:#300;}.cls-16{letter-spacing:-0.04em;}.cls-17{letter-spacing:-0.02em;}.cls-18{letter-spacing:-0.06em;}.cls-19{fill:#3c0;}.cls-20{letter-spacing:0.02em;}.cls-21{letter-spacing:0.02em;}.cls-22{letter-spacing:-0.02em;}</style></defs><g id="Calque_1" data-name="Calque 1"><polyline class="cls-1" points="561.98 129.71 593.78 129.85 644.99 129.85 644.99 3.76"/><path class="cls-2" d="M425.8,430.87l-.45,37.56-146.46.39,1.36-246.26c54.1.29,145.46,0,145.46,0s.06,15.67.11,34.35" transform="translate(-140.78 -215.81)"/><polyline class="cls-2" points="388.06 201.15 388.12 184.66 285.39 184.77 285.02 215.06"/><line class="cls-2" x1="388.01" y1="215.07" x2="388.06" y2="201.15"/><path class="cls-2" d="M527.73,256.91c.2-11.68.64-17.2.62-34.35,44.93.26,89-.26,133.94,0l-.77,243.61H528.66l.13-35.29" transform="translate(-140.78 -215.81)"/><path class="cls-3" d="M527.63,271.51c0-5.9,0-10.58.1-14.6" transform="translate(-140.78 -215.81)"/><path class="cls-2" d="M425.86,273c0,5.48,0,10.94,0,16,28.3-.09,73.46-.18,101.76-.28q0-8.6,0-17.21" transform="translate(-140.78 -215.81)"/><path class="cls-3" d="M425.82,256.91c0,4.74,0,9.68,0,14.6" transform="translate(-140.78 -215.81)"/><path class="cls-2" d="M441.61,302" transform="translate(-140.78 -215.81)"/><path class="cls-2" d="M460.06,302.76" transform="translate(-140.78 -215.81)"/><path class="cls-2" d="M506.18,219.57" transform="translate(-140.78 -215.81)"/><path class="cls-2" d="M511.22,222.56" transform="translate(-140.78 -215.81)"/><polyline class="cls-4" points="185.86 184.37 170.85 184.37 121.47 131.73"/><line class="cls-5" x1="491.98" y1="184.37" x2="185.86" y2="184.37"/><polyline class="cls-4" points="548.03 131.62 498.26 184.37 491.98 184.37"/><polyline class="cls-4" points="118.29 129.51 168.2 72.65 499.2 72.65 549.51 129.62"/><polyline class="cls-6" points="388.06 201.15 393.79 201.15 393.79 190.15 404.45 190.15 404.45 178.15 369.79 178.15 369.79 190.15 381.79 190.15 381.79 201.15 388.06 201.15"/><polygon class="cls-6" points="303.12 178.15 268.45 178.15 268.45 190.15 280.45 190.15 280.45 201.15 292.45 201.15 292.45 190.15 303.12 190.15 303.12 178.15"/><polygon class="cls-6" points="268.45 78.7 303.12 78.7 303.12 66.7 291.12 66.7 291.12 55.7 279.12 55.7 279.12 66.7 268.45 66.7 268.45 78.7"/><polygon class="cls-6" points="369.79 78.66 404.45 78.66 404.45 66.66 392.45 66.66 392.45 55.66 380.45 55.66 380.45 66.66 369.79 66.66 369.79 78.66"/><line class="cls-7" x1="70.69" y1="162.59" x2="70.69" y2="129.26"/><line class="cls-7" x1="598.13" y1="161.59" x2="598.13" y2="128.26"/><polygon class="cls-6" points="614.75 123.53 580.08 123.53 580.08 135.53 592.08 135.53 592.08 146.53 604.08 146.53 604.08 135.53 614.75 135.53 614.75 123.53"/><polyline class="cls-2" points="142.95 6.75 111.16 6.75 111.07 6.75"/><polyline class="cls-2" points="524.15 250.36 661.77 250.36 659.42 3.76"/><polyline class="cls-4" points="118.29 129.27 168.2 72.4 185.86 72.4"/><polygon class="cls-6" points="136.27 139.58 126.57 128.66 135.77 118.26 126.79 110.31 115.86 122.66 104.07 122.59 104 134.59 115.84 134.66 127.31 147.56 136.27 139.58"/><polyline class="cls-6" points="536.07 144.3 531.89 140.58 541.59 129.66 532.39 119.26 541.38 111.31 552.3 123.66 564.09 123.59 564.16 135.59 552.32 135.66 540.86 148.56 536.07 144.3"/><text x="-140.78" y="-215.81"/><text x="-140.78" y="-215.81"/><text x="-140.78" y="-215.81"/><text x="-140.78" y="-215.81"/><path class="cls-1" d="M167.56,345.44" transform="translate(-140.78 -215.81)"/><path class="cls-1" d="M167.56,345.44" transform="translate(-140.78 -215.81)"/><polyline class="cls-1" points="104.03 128.52 79.74 128.62 40.63 128.62 40.63 41.1"/><path class="cls-1" d="M160.27,400.74" transform="translate(-140.78 -215.81)"/><polygon class="cls-6" points="87.3 122.49 52.63 122.49 52.63 134.49 64.63 134.49 64.63 145.49 76.63 145.49 76.63 134.49 87.3 134.49 87.3 122.49"/><path class="cls-6" d="M704.9,345.44" transform="translate(-140.78 -215.81)"/><path class="cls-2" d="M425.71,444.39l.24-27.54" transform="translate(-140.78 -215.81)"/><rect class="cls-8" x="303.12" y="178.15" width="66.67" height="11.5"/><rect class="cls-8" x="303.12" y="66.43" width="66.67" height="11.5"/><text class="cls-9" transform="translate(307.71 96.67)">Filt<tspan class="cls-10" x="25.88" y="0">r</tspan><tspan x="32.48" y="0">e 1</tspan></text><text class="cls-11" transform="translate(308.03 170.97)">Filt<tspan class="cls-10" x="25.88" y="0">r</tspan><tspan x="32.48" y="0">e 2</tspan></text></g><g id="Calque_2" data-name="Calque 2"><rect class="cls-12" x="247.95" y="12.75" width="75.67" height="28.35"/><rect class="cls-13" x="23.33" y="161.42" width="93.71" height="37.69"/><text x="-140.78" y="-215.81"/><text x="-140.78" y="-215.81"/><text x="-140.78" y="-215.81"/><text x="-140.78" y="-215.81"/><text x="-140.78" y="-215.81"/><text x="-140.78" y="-215.81"/><text x="-140.78" y="-215.81"/><text x="-140.78" y="-215.81"/><text x="-140.78" y="-215.81"/><text x="-140.78" y="-215.81"/><path d="M394.13,247.62" transform="translate(-140.78 -215.81)"/><text class="cls-14" transform="translate(27.29 174.19)">P<tspan class="cls-10" x="6.88" y="0">r</tspan><tspan x="11.29" y="0">ession Amont</tspan></text><rect class="cls-15" x="0.5" y="67.29" width="80.27" height="37.69"/><text class="cls-14" transform="translate(6.56 80.8)">Débit Amont</text><text class="cls-14" transform="translate(250.54 23.31)">Elect<tspan class="cls-16" x="27.76" y="0">ro</tspan><tspan class="cls-17" x="38.68" y="0">v</tspan><tspan x="45" y="0">anne</tspan><tspan x="0" y="14.4" xml:space="preserve">   N1 Amont</tspan></text><rect class="cls-12" x="349.74" y="12.75" width="75.67" height="28.35"/><text class="cls-14" transform="translate(352.36 23.48)">Elect<tspan class="cls-16" x="27.76" y="0">ro</tspan><tspan class="cls-17" x="38.68" y="0">v</tspan><tspan x="45" y="0">anne</tspan><tspan x="0" y="14.4" xml:space="preserve">     N1 </tspan><tspan class="cls-18" x="33.13" y="14.4">A</tspan><tspan class="cls-17" x="40.79" y="14.4">v</tspan><tspan x="47.12" y="14.4">al</tspan></text><rect class="cls-19" x="182.96" y="58.47" width="75.67" height="26.54"/><text class="cls-14" transform="translate(185.54 68.65)">Elect<tspan class="cls-16" x="27.76" y="0">ro</tspan><tspan class="cls-17" x="38.68" y="0">v</tspan><tspan x="45" y="0">anne</tspan><tspan x="0" y="14.4" xml:space="preserve">   E1 Amont</tspan></text><text x="-140.78" y="-215.81"/><polyline class="cls-12" points="491.98 184.37 491.98 198.32 416.31 198.32 416.31 169.97 491.98 169.97 491.98 184.37"/><rect class="cls-12" x="182.96" y="170.65" width="75.67" height="26.54"/><text class="cls-14" transform="translate(184.86 180.51)">Elect<tspan class="cls-16" x="27.76" y="0">ro</tspan><tspan class="cls-17" x="38.68" y="0">v</tspan><tspan x="45" y="0">anne</tspan><tspan x="0" y="14.4" xml:space="preserve">   E2 Amont</tspan></text><text class="cls-14" transform="translate(418.31 180.68)">Elect<tspan class="cls-16" x="27.76" y="0">ro</tspan><tspan class="cls-17" x="38.68" y="0">v</tspan><tspan x="45" y="0">anne</tspan><tspan x="0" y="14.4" xml:space="preserve">     E2 </tspan><tspan class="cls-18" x="32" y="14.4">A</tspan><tspan class="cls-17" x="39.66" y="14.4">v</tspan><tspan x="45.98" y="14.4">al</tspan></text><polyline class="cls-19" points="285.78 215.07 323.62 215.07 323.62 243.41 247.95 243.41 247.95 215.07 285.78 215.07"/><polyline class="cls-19" points="388.01 215.07 424.95 215.07 424.95 243.41 349.28 243.41 349.28 215.07 388.01 215.07"/><text class="cls-14" transform="translate(250.22 226.41)">Elect<tspan class="cls-16" x="27.76" y="0">ro</tspan><tspan class="cls-17" x="38.68" y="0">v</tspan><tspan x="45" y="0">anne</tspan><tspan x="0" y="14.4" xml:space="preserve">   N2 Amont</tspan></text><text class="cls-14" transform="translate(351.04 226.57)">Elect<tspan class="cls-16" x="27.76" y="0">ro</tspan><tspan class="cls-17" x="38.68" y="0">v</tspan><tspan x="45" y="0">anne</tspan><tspan x="0" y="14.4" xml:space="preserve">     N2 </tspan><tspan class="cls-18" x="33.13" y="14.4">A</tspan><tspan class="cls-17" x="40.79" y="14.4">v</tspan><tspan x="47.12" y="14.4">al</tspan></text><rect id="Rect_Pression_Av" data-name="Rect Pression Av" class="cls-13" x="551.28" y="162" width="93.71" height="37.69"/><text class="cls-14" transform="translate(560.97 174.83)">P<tspan class="cls-10" x="6.88" y="0">r</tspan><tspan x="11.29" y="0">ession </tspan><tspan class="cls-18" x="49.42" y="0">A</tspan><tspan class="cls-17" x="57.08" y="0">v</tspan><tspan x="63.4" y="0">al</tspan></text><text class="cls-14" transform="translate(2.46 36.48)">A<tspan class="cls-20" x="8.38" y="0">r</tspan><tspan class="cls-21" x="13.56" y="0">r</tspan><tspan class="cls-22" x="18.81" y="0">i</tspan><tspan x="22.07" y="0">vée d’eau</tspan></text><text class="cls-14" transform="translate(5.84 10.07)">A<tspan class="cls-20" x="8.38" y="0">r</tspan><tspan class="cls-21" x="13.56" y="0">r</tspan><tspan class="cls-22" x="18.81" y="0">i</tspan><tspan x="22.07" y="0">vée nett</tspan><tspan class="cls-10" x="66.33" y="0">o</tspan><tspan class="cls-22" x="72.62" y="0">y</tspan><tspan x="79.13" y="0">ant</tspan></text><rect class="cls-19" x="416.31" y="58.47" width="75.67" height="26.54"/><text class="cls-14" transform="translate(418.63 68.81)">Elect<tspan class="cls-16" x="27.76" y="0">ro</tspan><tspan class="cls-17" x="38.68" y="0">v</tspan><tspan x="45" y="0">anne</tspan><tspan x="0" y="14.4" xml:space="preserve">     E1 </tspan><tspan class="cls-18" x="32" y="14.4">A</tspan><tspan class="cls-17" x="39.66" y="14.4">v</tspan><tspan x="45.98" y="14.4">al</tspan></text></g></svg>