<svg xmlns="http://www.w3.org/2000/svg" viewBox="0 0 808.93 330.42"><defs><style>.cls-1,.cls-2{fill:none;}.cls-1,.cls-4{stroke:#5cbccd;stroke-width:12px;}.cls-1,.cls-2,.cls-4,.cls-5{stroke-miterlimit:10;}.cls-2{stroke:#33b44a;stroke-width:7px;}.cls-3{fill:#ff00c9;}.cls-4,.cls-5{fill:#f4eb88;}.cls-5{stroke:#fed402;}</style></defs><g id="Calque_1" data-name="Calque 1"><polyline class="cls-1" points="665.58 186.22 701.25 186.44 758.68 186.44 758.68 0"/><path class="cls-2" d="M662.36,486.13H529.5l-.6-85.89-102.74.11.65,85.4-146.45.38V202.67l145.28.79s.22,56.7.25,85c28.3-.1,73.46-.2,101.76-.31q0-9.4,0-18.81l-.06-67.45,134.79.78Z" transform="translate(-37.17 -159.22)"/><path class="cls-2" d="M441.61,302" transform="translate(-37.17 -159.22)"/><path class="cls-2" d="M460.06,302.76" transform="translate(-37.17 -159.22)"/><path class="cls-2" d="M506.18,219.57" transform="translate(-37.17 -159.22)"/><path class="cls-2" d="M511.22,222.56" transform="translate(-37.17 -159.22)"/><polyline class="cls-1" points="651.63 188.21 601.86 240.96 274.45 240.96 225.07 188.32"/><polyline class="cls-1" points="221.89 186.1 271.81 129.23 602.8 129.23 653.11 186.21"/><polygon class="cls-3" points="508.05 234.73 473.39 234.73 473.39 246.73 485.39 246.73 485.39 257.73 497.39 257.73 497.39 246.73 508.05 246.73 508.05 234.73"/><polygon class="cls-3" points="406.72 234.73 372.05 234.73 372.05 246.73 384.05 246.73 384.05 257.73 396.05 257.73 396.05 246.73 406.72 246.73 406.72 234.73"/><polygon class="cls-3" points="372.05 135.29 406.72 135.29 406.72 123.29 394.72 123.29 394.72 112.29 382.72 112.29 382.72 123.29 372.05 123.29 372.05 135.29"/><polygon class="cls-3" points="473.39 135.24 508.05 135.24 508.05 123.24 496.05 123.24 496.05 112.24 484.05 112.24 484.05 123.24 473.39 123.24 473.39 135.24"/><line class="cls-4" x1="174.29" y1="219.18" x2="174.29" y2="185.85"/><line class="cls-4" x1="701.74" y1="218.18" x2="701.74" y2="184.85"/><polygon class="cls-3" points="718.35 180.12 683.68 180.12 683.68 192.12 695.68 192.12 695.68 203.12 707.68 203.12 707.68 192.12 718.35 192.12 718.35 180.12"/><polyline class="cls-2" points="243.4 43.45 40.07 43.45 40.07 0"/><polyline class="cls-2" points="625.4 326.91 805.43 326.91 805.43 0"/><polygon class="cls-3" points="239.88 196.17 230.17 185.25 239.38 174.85 230.39 166.9 219.46 179.25 207.67 179.18 207.6 191.18 219.44 191.25 230.91 204.14 239.88 196.17"/><polygon class="cls-3" points="635.49 197.17 645.19 186.25 635.99 175.85 644.98 167.9 655.9 180.25 667.69 180.18 667.76 192.18 655.92 192.25 644.46 205.14 635.49 197.17"/><path class="cls-1" d="M167.56,345.44" transform="translate(-37.17 -159.22)"/><path class="cls-1" d="M167.56,345.44" transform="translate(-37.17 -159.22)"/><polyline class="cls-1" points="207.63 185 130.38 185.21 6 185.21 6 0"/><path class="cls-1" d="M160.27,400.74" transform="translate(-37.17 -159.22)"/><polygon class="cls-3" points="190.9 179.08 156.24 179.08 156.24 191.08 168.24 191.08 168.24 202.08 180.24 202.08 180.24 191.08 190.9 191.08 190.9 179.08"/><path class="cls-3" d="M704.9,345.44" transform="translate(-37.17 -159.22)"/></g><g id="Calque_2" data-name="Calque 2"><rect class="cls-5" x="364.55" y="69.34" width="75.67" height="28.35"/><rect class="cls-5" x="133.93" y="218.01" width="93.71" height="37.69"/><path d="M394.13,247.62" transform="translate(-37.17 -159.22)"/><path d="M177.33,389v-6.11h-1v-1h2.91a7.54,7.54,0,0,1,1.92.18,1.93,1.93,0,0,1,1.07.82,2.66,2.66,0,0,1,.43,1.52,2.7,2.7,0,0,1-.28,1.25,2.13,2.13,0,0,1-.7.82,2.7,2.7,0,0,1-.95.35,10.2,10.2,0,0,1-1.58.09h-.57V389h1.06v1h-3.31v-1Zm1.23-3.08h.71a3,3,0,0,0,1.66-.34,1.42,1.42,0,0,0,.46-1.21,1.63,1.63,0,0,0-.24-.92,1.13,1.13,0,0,0-.61-.46,4.94,4.94,0,0,0-1.21-.1h-.77Z" transform="translate(-37.17 -159.22)"/><path d="M184.35,389v-3.69h-1.14v-1h2v1.28a2.2,2.2,0,0,1,.53-.83,1.59,1.59,0,0,1,.7-.43,3.9,3.9,0,0,1,1-.11h.29v1.13h-.22a3.42,3.42,0,0,0-1.27.17,1.09,1.09,0,0,0-.62.61,4.3,4.3,0,0,0-.2,1.61V389h1.23v1h-3.49v-1Z" transform="translate(-37.17 -159.22)"/><path d="M193.79,387.45H189a2,2,0,0,0,.62,1.27,1.85,1.85,0,0,0,1.32.48,2.16,2.16,0,0,0,1.84-.93l1,.43a2.94,2.94,0,0,1-1.25,1.1,3.75,3.75,0,0,1-1.61.36,3.25,3.25,0,0,1-2.22-.81,2.75,2.75,0,0,1-.92-2.19,2.83,2.83,0,0,1,.9-2.15,2.92,2.92,0,0,1,2.06-.84,3,3,0,0,1,2.07.82A3.24,3.24,0,0,1,193.79,387.45Zm-1.15-.81a2.06,2.06,0,0,0-.62-1.08,1.7,1.7,0,0,0-1.24-.49,1.63,1.63,0,0,0-1.14.44,1.85,1.85,0,0,0-.58,1.13Z" transform="translate(-37.17 -159.22)"/><path d="M194.72,390v-1.95h1v.19a.94.94,0,0,0,.43.66,1.55,1.55,0,0,0,.89.26,1.81,1.81,0,0,0,.87-.19.59.59,0,0,0,.32-.52A.51.51,0,0,0,198,388a3.85,3.85,0,0,0-1.06-.28,3.36,3.36,0,0,1-1.67-.64,1.45,1.45,0,0,1-.5-1.14,1.5,1.5,0,0,1,.55-1.19,2.08,2.08,0,0,1,1.43-.48,2.71,2.71,0,0,1,1.38.33v-.24h1v1.88h-1v-.35a1.46,1.46,0,0,0-1.31-.69,1.25,1.25,0,0,0-.72.19.57.57,0,0,0-.29.5.45.45,0,0,0,.26.45,5.46,5.46,0,0,0,1.13.25,6.41,6.41,0,0,1,1.24.3,1.64,1.64,0,0,1,.38,2.77,2.53,2.53,0,0,1-1.58.46,2.44,2.44,0,0,1-1.48-.41V390Z" transform="translate(-37.17 -159.22)"/><path d="M200.22,390v-1.95h1v.19a.91.91,0,0,0,.43.66,1.55,1.55,0,0,0,.89.26,1.74,1.74,0,0,0,.86-.19.57.57,0,0,0,.32-.52.5.5,0,0,0-.26-.48,3.85,3.85,0,0,0-1.06-.28,3.32,3.32,0,0,1-1.67-.64,1.42,1.42,0,0,1-.5-1.14,1.52,1.52,0,0,1,.54-1.19,2.09,2.09,0,0,1,1.44-.48,2.76,2.76,0,0,1,1.38.33v-.24h1v1.88h-1v-.35a1.47,1.47,0,0,0-1.31-.69,1.26,1.26,0,0,0-.73.19.56.56,0,0,0-.28.5.45.45,0,0,0,.26.45,5.32,5.32,0,0,0,1.12.25,6.55,6.55,0,0,1,1.25.3,1.62,1.62,0,0,1,.7.58,1.53,1.53,0,0,1,.28.93,1.49,1.49,0,0,1-.61,1.26,2.5,2.5,0,0,1-1.57.46,2.42,2.42,0,0,1-1.48-.41V390Z" transform="translate(-37.17 -159.22)"/><path d="M206.5,389v-3.69h-.88v-1h2V389h.88v1h-2.87v-1Zm-.16-6.61a.64.64,0,0,1,.19-.47.66.66,0,0,1,.48-.2.67.67,0,0,1,.48.2.62.62,0,0,1,.2.47.66.66,0,0,1-.2.48.66.66,0,0,1-.48.19.65.65,0,0,1-.48-.19A.68.68,0,0,1,206.34,382.4Z" transform="translate(-37.17 -159.22)"/><path d="M209.19,387.16a2.86,2.86,0,0,1,.86-2.15,3.08,3.08,0,0,1,4.22,0,3.1,3.1,0,0,1,0,4.33,2.9,2.9,0,0,1-2.1.83,2.93,2.93,0,0,1-2.13-.84A2.89,2.89,0,0,1,209.19,387.16Zm1.17,0a1.9,1.9,0,0,0,.53,1.38,1.8,1.8,0,0,0,2.56,0,2.06,2.06,0,0,0,0-2.74,1.74,1.74,0,0,0-1.28-.54,1.68,1.68,0,0,0-1.3.55A1.93,1.93,0,0,0,210.36,387.16Z" transform="translate(-37.17 -159.22)"/><path d="M218,384.33V385a3.48,3.48,0,0,1,2-.77,1.55,1.55,0,0,1,.91.26,1.22,1.22,0,0,1,.47.64,4.32,4.32,0,0,1,.11,1.1V389h1v1h-2.07v-3.71a1.24,1.24,0,0,0-.2-.84.63.63,0,0,0-.47-.2A2.86,2.86,0,0,0,218,386v3h1v1h-3.09v-1h1v-3.69h-1v-1Z" transform="translate(-37.17 -159.22)"/><path d="M231.17,387.13h-2.93l-.63,1.85h1v1h-3.21v-1h1l2.22-6.21h-1v-.92h4.16v.92h-1l2.28,6.21H234v1h-3.19v-1h1Zm-.3-.95-1.09-3.41h-.11l-1.13,3.41Z" transform="translate(-37.17 -159.22)"/><path d="M235.2,389v-3.69h-.95v-1h2.06V385a3.21,3.21,0,0,1,2-.8,1.35,1.35,0,0,1,1.34.88,3.44,3.44,0,0,1,2.06-.88,1.6,1.6,0,0,1,.91.24,1.23,1.23,0,0,1,.47.62,3.42,3.42,0,0,1,.13,1.1V389h1v1h-2.11v-3.6a3.86,3.86,0,0,0,0-.7.56.56,0,0,0-.22-.33.71.71,0,0,0-.43-.13,2.73,2.73,0,0,0-1.63.73v3h1v1h-2.09v-3.71a1.48,1.48,0,0,0-.16-.8.6.6,0,0,0-.55-.25,3,3,0,0,0-1.62.73v3h1v1h-3.12v-1Z" transform="translate(-37.17 -159.22)"/><path d="M244.7,387.16a2.86,2.86,0,0,1,.87-2.15,2.94,2.94,0,0,1,2.12-.84,3,3,0,0,1,2.1.83,3.1,3.1,0,0,1,0,4.33,2.9,2.9,0,0,1-2.1.83,2.93,2.93,0,0,1-2.13-.84A2.9,2.9,0,0,1,244.7,387.16Zm1.18,0a1.9,1.9,0,0,0,.53,1.38,1.8,1.8,0,0,0,2.56,0,1.89,1.89,0,0,0,.52-1.37,1.85,1.85,0,0,0-.53-1.37,1.7,1.7,0,0,0-1.27-.54,1.68,1.68,0,0,0-1.3.55A1.93,1.93,0,0,0,245.88,387.16Z" transform="translate(-37.17 -159.22)"/><path d="M253.56,384.33V385a3.48,3.48,0,0,1,2-.77,1.55,1.55,0,0,1,.91.26,1.22,1.22,0,0,1,.47.64,4.32,4.32,0,0,1,.11,1.1V389H258v1H255.9v-3.71a1.24,1.24,0,0,0-.2-.84.63.63,0,0,0-.47-.2,2.86,2.86,0,0,0-1.67.72v3h1v1h-3.09v-1h1v-3.69h-1v-1Z" transform="translate(-37.17 -159.22)"/><path d="M258.37,385.32v-1h.74v-.87l1.11-1v1.89h1v1h-1v2.75a2.62,2.62,0,0,0,.07.82c0,.1.17.15.37.15a1.61,1.61,0,0,0,.61-.11v1a2.6,2.6,0,0,1-.86.15,1.37,1.37,0,0,1-.82-.22,1,1,0,0,1-.4-.57,5.28,5.28,0,0,1-.08-1.17v-2.81Z" transform="translate(-37.17 -159.22)"/><rect class="cls-5" x="62.58" y="166.68" width="80.27" height="37.69"/><path d="M107.26,338.38v-6.11h-1.1v-1h3.15a11.29,11.29,0,0,1,2,.14,3.41,3.41,0,0,1,1.37.61,3.36,3.36,0,0,1,1.06,1.3,4.37,4.37,0,0,1,.39,1.89,5.25,5.25,0,0,1-.38,2.1,3.1,3.1,0,0,1-1,1.33,3.9,3.9,0,0,1-1.47.61,11.7,11.7,0,0,1-2.17.17h-3v-1Zm1.23,0h.65a8.59,8.59,0,0,0,1.71-.13,2.77,2.77,0,0,0,1.06-.46,2.32,2.32,0,0,0,.7-1,4.09,4.09,0,0,0,.27-1.55,3.38,3.38,0,0,0-.44-1.8,2.05,2.05,0,0,0-1.13-1,7.34,7.34,0,0,0-2.12-.23h-.7Z" transform="translate(-37.17 -159.22)"/><path d="M121.19,336.85h-4.77a2,2,0,0,0,.62,1.27,1.85,1.85,0,0,0,1.32.49,2.17,2.17,0,0,0,1.84-.94l1,.43a3,3,0,0,1-1.25,1.11,3.75,3.75,0,0,1-1.61.36,3.19,3.19,0,0,1-2.22-.82,2.74,2.74,0,0,1-.92-2.18,2.84,2.84,0,0,1,.89-2.15,2.91,2.91,0,0,1,2.07-.85,3.05,3.05,0,0,1,2.07.83A3.2,3.2,0,0,1,121.19,336.85ZM120,336a2.06,2.06,0,0,0-.62-1.08,1.75,1.75,0,0,0-1.24-.49,1.61,1.61,0,0,0-1.14.44,1.85,1.85,0,0,0-.58,1.13ZM117.32,333l.83-1.86h1.62l-1.7,1.86Z" transform="translate(-37.17 -159.22)"/><path d="M122,339.4v-1h1v-6.17h-1v-1H124v3.28a2.74,2.74,0,0,1,4-.15,2.88,2.88,0,0,1,.79,2.12,3,3,0,0,1-.78,2.13,2.53,2.53,0,0,1-2,.87,2.62,2.62,0,0,1-1.25-.3,2.2,2.2,0,0,1-.81-.65v.85Zm2.13-2.82a1.84,1.84,0,0,0,.54,1.4,1.78,1.78,0,0,0,2.54,0,2,2,0,0,0,.54-1.48,1.8,1.8,0,0,0-3.06-1.37A1.91,1.91,0,0,0,124.08,336.58Z" transform="translate(-37.17 -159.22)"/><path d="M130.65,338.41v-3.69h-.87v-1h2v4.68h.88v1h-2.87v-1Zm-.15-6.61a.66.66,0,0,1,.19-.47.63.63,0,0,1,.48-.2.65.65,0,0,1,.47.2.61.61,0,0,1,.2.47.62.62,0,0,1-.2.48.66.66,0,0,1-.95,0A.66.66,0,0,1,130.5,331.8Z" transform="translate(-37.17 -159.22)"/><path d="M133.25,334.72v-1H134v-.87l1.11-1v1.89h1.05v1H135.1v2.75a2.94,2.94,0,0,0,.07.82c.05.11.18.16.37.16a1.62,1.62,0,0,0,.61-.12v1a2.38,2.38,0,0,1-.86.16,1.37,1.37,0,0,1-.82-.23,1,1,0,0,1-.4-.56,6.2,6.2,0,0,1-.08-1.18v-2.81Z" transform="translate(-37.17 -159.22)"/><path d="M145.19,336.54h-2.93l-.63,1.84h1v1h-3.21v-1h1l2.23-6.21h-1v-.92h4.17v.92h-1l2.28,6.21H148v1h-3.19v-1h1Zm-.3-1-1.09-3.41h-.11l-1.13,3.41Z" transform="translate(-37.17 -159.22)"/><path d="M149.22,338.41v-3.69h-.95v-1h2.06v.72a3.17,3.17,0,0,1,2-.81,1.34,1.34,0,0,1,1.34.89,3.42,3.42,0,0,1,2.06-.89,1.53,1.53,0,0,1,.91.25,1.24,1.24,0,0,1,.48.61,3.84,3.84,0,0,1,.12,1.1v2.81h1v1h-2.1v-3.6a3.63,3.63,0,0,0,0-.7.56.56,0,0,0-.22-.33.69.69,0,0,0-.43-.13,2.68,2.68,0,0,0-1.62.73v3h1v1h-2.09v-3.71a1.48,1.48,0,0,0-.16-.8.6.6,0,0,0-.55-.25,3,3,0,0,0-1.62.73v3h1v1H148.2v-1Z" transform="translate(-37.17 -159.22)"/><path d="M158.73,336.57a2.9,2.9,0,0,1,.86-2.16,3.08,3.08,0,0,1,4.22,0,3.12,3.12,0,0,1,0,4.33,3,3,0,0,1-2.11.84,2.91,2.91,0,0,1-3-3Zm1.17,0a1.9,1.9,0,0,0,.53,1.38,1.71,1.71,0,0,0,1.28.54,1.67,1.67,0,0,0,1.28-.55,2.06,2.06,0,0,0,0-2.74,1.74,1.74,0,0,0-1.28-.54,1.69,1.69,0,0,0-1.3.55A1.93,1.93,0,0,0,159.9,336.56Z" transform="translate(-37.17 -159.22)"/><path d="M167.58,333.73v.69a3.43,3.43,0,0,1,2-.78,1.55,1.55,0,0,1,.91.26,1.21,1.21,0,0,1,.47.64,4.35,4.35,0,0,1,.11,1.11v2.76h1v1h-2.07v-3.71a1.24,1.24,0,0,0-.2-.84.61.61,0,0,0-.47-.19,2.86,2.86,0,0,0-1.67.72v3h1v1h-3.09v-1h1v-3.69h-1v-1Z" transform="translate(-37.17 -159.22)"/><path d="M172.39,334.72v-1h.74v-.87l1.11-1v1.89h1v1h-1v2.75a2.46,2.46,0,0,0,.08.82c0,.11.17.16.36.16a1.62,1.62,0,0,0,.61-.12v1a2.33,2.33,0,0,1-.85.16,1.41,1.41,0,0,1-.83-.23,1,1,0,0,1-.4-.56,6.2,6.2,0,0,1-.08-1.18v-2.81Z" transform="translate(-37.17 -159.22)"/><path d="M405.61,238.1V232h-1.05v-1h6.77v2.46h-1V232h-3.49v2.43h3v1h-3v2.66h3.49v-1.48h1v2.5h-6.77v-1Z" transform="translate(-37.17 -159.22)"/><path d="M413,238.13V232h-1v-1h2.12v7.16H415v1h-3v-1Z" transform="translate(-37.17 -159.22)"/><path d="M421.67,236.57H416.9a2.1,2.1,0,0,0,.62,1.27,1.85,1.85,0,0,0,1.32.49,2.16,2.16,0,0,0,1.84-.94l1,.43a3,3,0,0,1-1.25,1.11,3.74,3.74,0,0,1-1.6.36,3.24,3.24,0,0,1-2.23-.82,2.77,2.77,0,0,1-.92-2.18,2.82,2.82,0,0,1,.9-2.15,2.91,2.91,0,0,1,2.06-.85,3.06,3.06,0,0,1,2.08.83A3.2,3.2,0,0,1,421.67,236.57Zm-1.15-.81a2,2,0,0,0-.62-1.08,1.75,1.75,0,0,0-1.24-.49,1.65,1.65,0,0,0-1.14.44,1.85,1.85,0,0,0-.58,1.13Z" transform="translate(-37.17 -159.22)"/><path d="M427.92,233.45v2.14h-1a1.35,1.35,0,0,0-.5-.94,1.66,1.66,0,0,0-2.21.2,2.06,2.06,0,0,0-.47,1.4,2.33,2.33,0,0,0,.45,1.41,1.5,1.5,0,0,0,1.29.61,1.77,1.77,0,0,0,1.7-1.11l.92.43a2.71,2.71,0,0,1-2.67,1.7,2.64,2.64,0,0,1-2.12-.92,3.19,3.19,0,0,1-.77-2.12,2.85,2.85,0,0,1,.84-2.12,2.68,2.68,0,0,1,1.95-.84,2.37,2.37,0,0,1,1.59.56v-.4Z" transform="translate(-37.17 -159.22)"/><path d="M428.73,234.44v-1h.74v-.87l1.11-1v1.89h1.05v1h-1.05v2.75a2.94,2.94,0,0,0,.07.82c.05.11.18.16.37.16a1.62,1.62,0,0,0,.61-.12v1a2.38,2.38,0,0,1-.86.16A1.37,1.37,0,0,1,430,239a1,1,0,0,1-.4-.57,6,6,0,0,1-.08-1.17v-2.81Z" transform="translate(-37.17 -159.22)"/><path d="M433.39,238.13v-3.69h-1.14v-1h2v1.28a2.28,2.28,0,0,1,.53-.83,1.59,1.59,0,0,1,.7-.43,3.9,3.9,0,0,1,1-.11h.29v1.13h-.22a3.42,3.42,0,0,0-1.27.17,1.11,1.11,0,0,0-.62.62,4.21,4.21,0,0,0-.2,1.6v1.25h1.23v1h-3.49v-1Z" transform="translate(-37.17 -159.22)"/><path d="M437,236.29a2.87,2.87,0,0,1,.87-2.16,2.9,2.9,0,0,1,2.11-.84,3,3,0,0,1,2.1.83,3.12,3.12,0,0,1,0,4.33,3,3,0,0,1-2.11.84,2.92,2.92,0,0,1-2.12-.85A2.86,2.86,0,0,1,437,236.29Zm1.18,0a1.89,1.89,0,0,0,.52,1.38,1.72,1.72,0,0,0,1.28.54,1.7,1.7,0,0,0,1.29-.55,1.93,1.93,0,0,0,.52-1.37,1.89,1.89,0,0,0-.53-1.37,1.72,1.72,0,0,0-1.28-.54,1.67,1.67,0,0,0-1.29.55A1.93,1.93,0,0,0,438.15,236.28Z" transform="translate(-37.17 -159.22)"/><path d="M445.74,239.22l-1.85-4.78h-1v-1h2.85v1H445l1.22,3.22,1.23-3.22h-.79v-1h2.77v1h-.87l-1.81,4.78Z" transform="translate(-37.17 -159.22)"/><path d="M455.45,238.13v1H453.5v-.69a2.55,2.55,0,0,1-1.8.79,2,2,0,0,1-1.35-.51,1.63,1.63,0,0,1-.57-1.29,1.65,1.65,0,0,1,.61-1.31,2.14,2.14,0,0,1,1.46-.52,2.79,2.79,0,0,1,1.54.48v-.56a2.3,2.3,0,0,0-.08-.67.79.79,0,0,0-.38-.42,1.47,1.47,0,0,0-.79-.19,1.27,1.27,0,0,0-1.21.67l-1.07-.28a2.53,2.53,0,0,1,2.45-1.33,3.3,3.3,0,0,1,1.1.17,1.77,1.77,0,0,1,.7.45,1.44,1.44,0,0,1,.3.59,4.18,4.18,0,0,1,.08,1v2.62ZM453.39,237a2.37,2.37,0,0,0-1.46-.56,1.13,1.13,0,0,0-.77.27.87.87,0,0,0-.31.7.88.88,0,0,0,.27.66,1,1,0,0,0,.74.27,2.18,2.18,0,0,0,1.53-.68Z" transform="translate(-37.17 -159.22)"/><path d="M458,233.45v.69a3.45,3.45,0,0,1,2-.78,1.53,1.53,0,0,1,.91.26,1.21,1.21,0,0,1,.47.64,3.94,3.94,0,0,1,.11,1.11v2.76h1v1h-2.07v-3.71a1.25,1.25,0,0,0-.19-.84.65.65,0,0,0-.48-.19,2.86,2.86,0,0,0-1.67.72v3h1v1h-3.09v-1h1v-3.69h-1v-1Z" transform="translate(-37.17 -159.22)"/><path d="M464.91,233.45v.69a3.45,3.45,0,0,1,2-.78,1.53,1.53,0,0,1,.91.26,1.21,1.21,0,0,1,.47.64,3.94,3.94,0,0,1,.11,1.11v2.76h1v1h-2.07v-3.71a1.31,1.31,0,0,0-.19-.84.65.65,0,0,0-.48-.19,2.86,2.86,0,0,0-1.67.72v3h1v1H462.8v-1h1v-3.69h-1v-1Z" transform="translate(-37.17 -159.22)"/><path d="M475.79,236.57H471a2.1,2.1,0,0,0,.62,1.27,1.89,1.89,0,0,0,1.32.49,2.19,2.19,0,0,0,1.85-.94l1,.43a2.91,2.91,0,0,1-1.25,1.11,3.7,3.7,0,0,1-1.6.36,3.19,3.19,0,0,1-2.22-.82,2.75,2.75,0,0,1-.93-2.18,2.82,2.82,0,0,1,.9-2.15,2.91,2.91,0,0,1,2.07-.85,3.05,3.05,0,0,1,2.07.83A3.16,3.16,0,0,1,475.79,236.57Zm-1.15-.81a1.94,1.94,0,0,0-.62-1.08,1.72,1.72,0,0,0-1.23-.49,1.65,1.65,0,0,0-1.15.44,1.9,1.9,0,0,0-.58,1.13Z" transform="translate(-37.17 -159.22)"/><path d="M423.46,252.5v-6.11h-1.17v-1h2.78l3.58,6.34v-5.32h-1.16v-1h3.35v1h-1.2v7.21h-1.26l-3.92-6.95v5.85h1.17v1h-3.34v-1Z" transform="translate(-37.17 -159.22)"/><path d="M433.7,252.53v-6.17h-1.11v-1h2.23v7.15h1.06v1h-3.29v-1Z" transform="translate(-37.17 -159.22)"/><path d="M446.05,250.66h-2.93l-.63,1.84h1v1h-3.21v-1h1l2.22-6.21h-1v-.92h4.17v.92h-1l2.28,6.21h.91v1h-3.19v-1h1Zm-.3-1-1.09-3.41h-.11l-1.13,3.41Z" transform="translate(-37.17 -159.22)"/><path d="M450.08,252.53v-3.69h-.95v-1h2.06v.72a3.17,3.17,0,0,1,2-.81,1.34,1.34,0,0,1,1.34.89,3.42,3.42,0,0,1,2.06-.89,1.53,1.53,0,0,1,.91.25,1.17,1.17,0,0,1,.47.61,3.46,3.46,0,0,1,.13,1.1v2.81h1v1H457v-3.6a3.86,3.86,0,0,0,0-.7.56.56,0,0,0-.22-.33.69.69,0,0,0-.43-.13,2.73,2.73,0,0,0-1.63.73v3h1v1h-2.09v-3.71a1.48,1.48,0,0,0-.16-.8.6.6,0,0,0-.55-.25,3,3,0,0,0-1.62.73v3h1v1h-3.12v-1Z" transform="translate(-37.17 -159.22)"/><rect class="cls-5" x="449.34" y="69.09" width="75.67" height="28.35"/><path d="M489.88,238.1V232h-1.06v-1h6.78v2.46h-1V232h-3.48v2.43h3v1h-3v2.66h3.48v-1.48h1v2.5h-6.78v-1Z" transform="translate(-37.17 -159.22)"/><path d="M497.24,238.13V232h-1v-1h2.12v7.16h.87v1h-3v-1Z" transform="translate(-37.17 -159.22)"/><path d="M505.93,236.57h-4.77a2.11,2.11,0,0,0,.63,1.27,1.85,1.85,0,0,0,1.31.49,2.18,2.18,0,0,0,1.85-.94l1,.43a2.94,2.94,0,0,1-1.24,1.11,3.78,3.78,0,0,1-1.61.36,3.19,3.19,0,0,1-2.22-.82,2.75,2.75,0,0,1-.93-2.18,2.82,2.82,0,0,1,.9-2.15,2.91,2.91,0,0,1,2.07-.85,3.05,3.05,0,0,1,2.07.83A3.16,3.16,0,0,1,505.93,236.57Zm-1.14-.81a2,2,0,0,0-.63-1.08,1.71,1.71,0,0,0-1.23-.49,1.61,1.61,0,0,0-1.14.44,1.85,1.85,0,0,0-.58,1.13Z" transform="translate(-37.17 -159.22)"/><path d="M512.18,233.45v2.14h-1a1.31,1.31,0,0,0-.5-.94,1.65,1.65,0,0,0-2.2.2,2,2,0,0,0-.47,1.4,2.38,2.38,0,0,0,.44,1.41,1.5,1.5,0,0,0,1.29.61,1.77,1.77,0,0,0,1.7-1.11l.92.43a2.7,2.7,0,0,1-2.66,1.7,2.66,2.66,0,0,1-2.13-.92,3.24,3.24,0,0,1-.77-2.12,2.82,2.82,0,0,1,.85-2.12,2.67,2.67,0,0,1,1.94-.84,2.36,2.36,0,0,1,1.59.56v-.4Z" transform="translate(-37.17 -159.22)"/><path d="M513,234.44v-1h.74v-.87l1.12-1v1.89h1v1h-1v2.75a2.58,2.58,0,0,0,.07.82c.05.11.17.16.37.16a1.66,1.66,0,0,0,.61-.12v1a2.42,2.42,0,0,1-.86.16,1.41,1.41,0,0,1-.83-.23.93.93,0,0,1-.39-.57,5.12,5.12,0,0,1-.09-1.17v-2.81Z" transform="translate(-37.17 -159.22)"/><path d="M517.66,238.13v-3.69h-1.14v-1h2v1.28a2.26,2.26,0,0,1,.52-.83,1.62,1.62,0,0,1,.71-.43,3.82,3.82,0,0,1,1-.11h.3v1.13h-.23a3.36,3.36,0,0,0-1.26.17,1.16,1.16,0,0,0-.63.62,4.43,4.43,0,0,0-.2,1.6v1.25H520v1h-3.49v-1Z" transform="translate(-37.17 -159.22)"/><path d="M521.23,236.29a2.87,2.87,0,0,1,.87-2.16,2.93,2.93,0,0,1,2.12-.84,3,3,0,0,1,2.1.83,3.1,3.1,0,0,1,0,4.33,3,3,0,0,1-5.09-2.16Zm1.18,0a1.9,1.9,0,0,0,.53,1.38,1.69,1.69,0,0,0,1.28.54,1.67,1.67,0,0,0,1.28-.55,2.05,2.05,0,0,0,0-2.74,1.7,1.7,0,0,0-1.27-.54,1.68,1.68,0,0,0-1.3.55A1.93,1.93,0,0,0,522.41,236.28Z" transform="translate(-37.17 -159.22)"/><path d="M530,239.22l-1.86-4.78h-1v-1H530v1h-.73l1.22,3.22,1.22-3.22h-.79v-1h2.78v1h-.88l-1.8,4.78Z" transform="translate(-37.17 -159.22)"/><path d="M539.71,238.13v1h-1.94v-.69a2.56,2.56,0,0,1-1.81.79,2,2,0,0,1-1.34-.51,1.63,1.63,0,0,1-.57-1.29,1.67,1.67,0,0,1,.6-1.31,2.19,2.19,0,0,1,1.47-.52,2.81,2.81,0,0,1,1.54.48v-.56a2,2,0,0,0-.09-.67.79.79,0,0,0-.38-.42,1.42,1.42,0,0,0-.79-.19,1.27,1.27,0,0,0-1.21.67l-1.07-.28a2.54,2.54,0,0,1,2.45-1.33,3.32,3.32,0,0,1,1.11.17,1.66,1.66,0,0,1,.69.45,1.46,1.46,0,0,1,.31.59,4.77,4.77,0,0,1,.08,1v2.62ZM537.66,237a2.39,2.39,0,0,0-1.46-.56,1.16,1.16,0,0,0-.78.27.9.9,0,0,0-.31.7.85.85,0,0,0,.28.66,1,1,0,0,0,.74.27,2.18,2.18,0,0,0,1.53-.68Z" transform="translate(-37.17 -159.22)"/><path d="M542.3,233.45v.69a3.4,3.4,0,0,1,2-.78,1.56,1.56,0,0,1,.92.26,1.26,1.26,0,0,1,.47.64,4.35,4.35,0,0,1,.11,1.11v2.76h1v1h-2.06v-3.71a1.24,1.24,0,0,0-.2-.84.63.63,0,0,0-.47-.19,2.86,2.86,0,0,0-1.67.72v3h1v1h-3.09v-1h1v-3.69h-1v-1Z" transform="translate(-37.17 -159.22)"/><path d="M549.18,233.45v.69a3.4,3.4,0,0,1,2-.78,1.53,1.53,0,0,1,.91.26,1.29,1.29,0,0,1,.48.64,4.35,4.35,0,0,1,.11,1.11v2.76h1v1h-2.07v-3.71a1.25,1.25,0,0,0-.19-.84.64.64,0,0,0-.47-.19,2.84,2.84,0,0,0-1.67.72v3h1v1h-3.09v-1h1v-3.69h-1v-1Z" transform="translate(-37.17 -159.22)"/><path d="M560.06,236.57h-4.77a2.1,2.1,0,0,0,.62,1.27,1.85,1.85,0,0,0,1.32.49,2.17,2.17,0,0,0,1.84-.94l1,.43a3,3,0,0,1-1.25,1.11,3.75,3.75,0,0,1-1.61.36,3.23,3.23,0,0,1-2.22-.82,2.74,2.74,0,0,1-.92-2.18,2.82,2.82,0,0,1,.9-2.15,2.89,2.89,0,0,1,2.06-.85,3.05,3.05,0,0,1,2.07.83A3.2,3.2,0,0,1,560.06,236.57Zm-1.15-.81a2.06,2.06,0,0,0-.62-1.08,1.75,1.75,0,0,0-1.24-.49,1.65,1.65,0,0,0-1.14.44,1.85,1.85,0,0,0-.58,1.13Z" transform="translate(-37.17 -159.22)"/><path d="M510.72,252.5v-6.11h-1.16v-1h2.78l3.57,6.34v-5.32h-1.15v-1h3.34v1h-1.2v7.21h-1.26l-3.91-6.95v5.85h1.17v1h-3.34v-1Z" transform="translate(-37.17 -159.22)"/><path d="M521,252.53v-6.17h-1.11v-1h2.22v7.15h1.06v1h-3.28v-1Z" transform="translate(-37.17 -159.22)"/><path d="M533.32,250.66h-2.94l-.62,1.84h1v1h-3.21v-1h1l2.23-6.21h-1v-.92h4.17v.92h-1l2.28,6.21h.91v1h-3.19v-1h1Zm-.31-1-1.08-3.41h-.11l-1.13,3.41Z" transform="translate(-37.17 -159.22)"/><path d="M538.12,253.62l-1.85-4.78h-1v-1h2.85v1h-.74l1.22,3.22,1.23-3.22H539v-1h2.77v1h-.87l-1.81,4.78Z" transform="translate(-37.17 -159.22)"/><rect class="cls-5" x="286.56" y="115.06" width="75.67" height="28.35"/><path d="M327.69,284.44v-6.11h-1.05v-1h6.77v2.45h-1v-1.43h-3.48v2.42h3v1h-3v2.67h3.48V283h1v2.5h-6.77v-1Z" transform="translate(-37.17 -159.22)"/><path d="M335.06,284.47V278.3h-1v-1h2.12v7.16H337v1h-3v-1Z" transform="translate(-37.17 -159.22)"/><path d="M343.75,282.9H339a2,2,0,0,0,.62,1.27,1.81,1.81,0,0,0,1.32.49,2.13,2.13,0,0,0,1.84-.94l1,.44a3,3,0,0,1-1.25,1.1,3.75,3.75,0,0,1-1.61.36,3.27,3.27,0,0,1-2.22-.81,2.78,2.78,0,0,1-.92-2.19,2.82,2.82,0,0,1,.9-2.15,2.94,2.94,0,0,1,2.06-.84,3,3,0,0,1,2.07.82A3.23,3.23,0,0,1,343.75,282.9Zm-1.15-.81A2.14,2.14,0,0,0,342,281a1.74,1.74,0,0,0-1.24-.48,1.65,1.65,0,0,0-1.14.44,1.82,1.82,0,0,0-.58,1.12Z" transform="translate(-37.17 -159.22)"/><path d="M350,279.79v2.14h-1a1.35,1.35,0,0,0-.5-.94,1.6,1.6,0,0,0-1-.33,1.56,1.56,0,0,0-1.22.53,2,2,0,0,0-.47,1.39,2.33,2.33,0,0,0,.45,1.42,1.5,1.5,0,0,0,1.29.61,1.78,1.78,0,0,0,1.7-1.11l.92.43a2.7,2.7,0,0,1-2.67,1.69,2.59,2.59,0,0,1-2.12-.92,3.17,3.17,0,0,1-.77-2.12,2.88,2.88,0,0,1,.84-2.12,2.7,2.7,0,0,1,1.94-.83,2.39,2.39,0,0,1,1.6.55v-.39Z" transform="translate(-37.17 -159.22)"/><path d="M350.81,280.78v-1h.74v-.88l1.11-1v1.9h1v1h-1v2.75a2.66,2.66,0,0,0,.07.82c0,.1.17.15.37.15a1.83,1.83,0,0,0,.61-.11v1a2.6,2.6,0,0,1-.86.15,1.37,1.37,0,0,1-.82-.22,1,1,0,0,1-.4-.57,5.4,5.4,0,0,1-.08-1.17v-2.81Z" transform="translate(-37.17 -159.22)"/><path d="M355.47,284.47v-3.69h-1.14v-1h2v1.27a2.35,2.35,0,0,1,.52-.82,1.71,1.71,0,0,1,.71-.44,4,4,0,0,1,1-.1h.29v1.12h-.22a3.64,3.64,0,0,0-1.27.17,1.14,1.14,0,0,0-.62.62,4.3,4.3,0,0,0-.2,1.61v1.25h1.23v1h-3.49v-1Z" transform="translate(-37.17 -159.22)"/><path d="M359.05,282.62a2.89,2.89,0,0,1,.86-2.15,2.94,2.94,0,0,1,2.12-.84,2.9,2.9,0,0,1,2.1.83,2.81,2.81,0,0,1,.88,2.16,2.86,2.86,0,0,1-.87,2.17,3,3,0,0,1-2.11.83,2.91,2.91,0,0,1-2.12-.84A2.86,2.86,0,0,1,359.05,282.62Zm1.17,0a1.9,1.9,0,0,0,.53,1.38,1.75,1.75,0,0,0,1.28.53,1.73,1.73,0,0,0,1.29-.54,1.92,1.92,0,0,0,.51-1.37,1.87,1.87,0,0,0-.52-1.37,1.72,1.72,0,0,0-1.28-.54,1.69,1.69,0,0,0-1.3.55A1.91,1.91,0,0,0,360.22,282.62Z" transform="translate(-37.17 -159.22)"/><path d="M367.82,285.55,366,280.78h-1v-1h2.85v1h-.74L368.3,284l1.23-3.21h-.79v-1h2.77v1h-.87l-1.81,4.77Z" transform="translate(-37.17 -159.22)"/><path d="M377.53,284.47v1h-1.95v-.69a2.54,2.54,0,0,1-1.8.78,2,2,0,0,1-1.35-.5,1.66,1.66,0,0,1-.57-1.29,1.63,1.63,0,0,1,.61-1.31,2.15,2.15,0,0,1,1.46-.53,2.75,2.75,0,0,1,1.54.49v-.57a2.3,2.3,0,0,0-.08-.67.92.92,0,0,0-.38-.42,1.57,1.57,0,0,0-.79-.18,1.3,1.3,0,0,0-1.22.66l-1.06-.28a2.54,2.54,0,0,1,2.45-1.32,3.3,3.3,0,0,1,1.1.17,1.66,1.66,0,0,1,.7.45,1.4,1.4,0,0,1,.3.58,4.23,4.23,0,0,1,.08,1v2.63Zm-2.06-1.12a2.33,2.33,0,0,0-1.46-.56,1.13,1.13,0,0,0-.77.27.86.86,0,0,0-.31.69.9.9,0,0,0,.27.67,1,1,0,0,0,.74.27,2.22,2.22,0,0,0,1.53-.68Z" transform="translate(-37.17 -159.22)"/><path d="M380.11,279.79v.68a3.5,3.5,0,0,1,2-.77,1.53,1.53,0,0,1,.91.26,1.17,1.17,0,0,1,.47.64,3.91,3.91,0,0,1,.11,1.1v2.77h1v1h-2.07v-3.71a1.31,1.31,0,0,0-.19-.84.66.66,0,0,0-.48-.2,2.86,2.86,0,0,0-1.67.72v3h1v1H378v-1h1v-3.69h-1v-1Z" transform="translate(-37.17 -159.22)"/><path d="M387,279.79v.68a3.5,3.5,0,0,1,2-.77,1.55,1.55,0,0,1,.91.26,1.17,1.17,0,0,1,.47.64,4.32,4.32,0,0,1,.11,1.1v2.77h1v1h-2.07v-3.71a1.24,1.24,0,0,0-.2-.84.62.62,0,0,0-.47-.2,2.86,2.86,0,0,0-1.67.72v3h1v1h-3.09v-1h1v-3.69h-1v-1Z" transform="translate(-37.17 -159.22)"/><path d="M397.87,282.9H393.1a2,2,0,0,0,.62,1.27,1.84,1.84,0,0,0,1.32.49,2.16,2.16,0,0,0,1.85-.94l1,.44a3,3,0,0,1-1.25,1.1,3.7,3.7,0,0,1-1.6.36,3.28,3.28,0,0,1-2.23-.81,2.78,2.78,0,0,1-.92-2.19,2.82,2.82,0,0,1,.9-2.15,3,3,0,0,1,2.07-.84,3,3,0,0,1,2.07.82A3.19,3.19,0,0,1,397.87,282.9Zm-1.15-.81a2.07,2.07,0,0,0-.62-1.08,1.71,1.71,0,0,0-1.23-.48,1.65,1.65,0,0,0-1.15.44,1.87,1.87,0,0,0-.58,1.12Z" transform="translate(-37.17 -159.22)"/><path d="M345.69,298.84v-6.11h-1.05v-1h6.77v2.45h-1v-1.43h-3.48v2.42h3v1h-3v2.67h3.48v-1.48h1v2.5h-6.77v-1Z" transform="translate(-37.17 -159.22)"/><path d="M354.65,298.87V292.7h-1.11v-1h2.23v7.15h1.06v1h-3.29v-1Z" transform="translate(-37.17 -159.22)"/><path d="M367,297h-2.93l-.63,1.85h1v1h-3.21v-1h1l2.22-6.21h-1v-.92h4.16v.92h-1l2.29,6.21h.91v1h-3.2v-1h1Zm-.31-.95-1.08-3.41h-.11L364.37,296Z" transform="translate(-37.17 -159.22)"/><path d="M371,298.87v-3.69h-.94v-1h2.06v.71a3.21,3.21,0,0,1,2-.8,1.34,1.34,0,0,1,1.34.88,3.38,3.38,0,0,1,2.06-.88,1.6,1.6,0,0,1,.91.24,1.19,1.19,0,0,1,.47.62,3.73,3.73,0,0,1,.13,1.1v2.81h1v1H377.9v-3.61a3.81,3.81,0,0,0,0-.69.53.53,0,0,0-.22-.33.71.71,0,0,0-.43-.14,2.75,2.75,0,0,0-1.63.74v3h1v1h-2.08v-3.71a1.54,1.54,0,0,0-.16-.81.62.62,0,0,0-.55-.25,3,3,0,0,0-1.62.74v3h1v1H370v-1Z" transform="translate(-37.17 -159.22)"/><rect class="cls-5" x="519.91" y="113.26" width="75.67" height="28.35"/><path d="M561.44,282.44v-6.11h-1.06v-1h6.78v2.45h-1v-1.43h-3.48v2.42h3v1h-3v2.67h3.48V281h1v2.5h-6.78v-1Z" transform="translate(-37.17 -159.22)"/><path d="M568.8,282.47V276.3h-1v-1h2.12v7.16h.86v1h-3v-1Z" transform="translate(-37.17 -159.22)"/><path d="M577.49,280.9h-4.77a2.1,2.1,0,0,0,.62,1.28,1.88,1.88,0,0,0,1.32.48,2.15,2.15,0,0,0,1.85-.94l1,.44a3,3,0,0,1-1.25,1.1,3.7,3.7,0,0,1-1.6.36,3.23,3.23,0,0,1-2.22-.81,2.76,2.76,0,0,1-.93-2.19,2.82,2.82,0,0,1,.9-2.15,3,3,0,0,1,2.07-.84,3,3,0,0,1,2.07.82A3.19,3.19,0,0,1,577.49,280.9Zm-1.15-.8a2,2,0,0,0-.62-1.09,1.7,1.7,0,0,0-1.23-.48,1.65,1.65,0,0,0-1.15.44,1.87,1.87,0,0,0-.58,1.13Z" transform="translate(-37.17 -159.22)"/><path d="M583.74,277.79v2.14h-1a1.31,1.31,0,0,0-.5-.94,1.65,1.65,0,0,0-2.2.2,2,2,0,0,0-.47,1.39A2.39,2.39,0,0,0,580,282a1.52,1.52,0,0,0,1.29.61,1.77,1.77,0,0,0,1.7-1.11l.92.43a2.7,2.7,0,0,1-2.67,1.69,2.62,2.62,0,0,1-2.12-.92,3.22,3.22,0,0,1-.77-2.12,2.88,2.88,0,0,1,.84-2.12,2.72,2.72,0,0,1,1.95-.83,2.31,2.31,0,0,1,1.59.56v-.4Z" transform="translate(-37.17 -159.22)"/><path d="M584.55,278.78v-1h.74v-.88l1.11-1v1.9h1.05v1H586.4v2.75a2.54,2.54,0,0,0,.08.82q.07.15.36.15a1.83,1.83,0,0,0,.61-.11v1a2.54,2.54,0,0,1-.85.15,1.4,1.4,0,0,1-.83-.22,1,1,0,0,1-.4-.57,6.15,6.15,0,0,1-.08-1.17v-2.81Z" transform="translate(-37.17 -159.22)"/><path d="M589.22,282.47v-3.69h-1.15v-1h2v1.27a2.22,2.22,0,0,1,.52-.82,1.65,1.65,0,0,1,.71-.44,3.83,3.83,0,0,1,1-.1h.29v1.12h-.22a3.68,3.68,0,0,0-1.27.17,1.17,1.17,0,0,0-.62.62,4.53,4.53,0,0,0-.2,1.61v1.25h1.24v1h-3.5v-1Z" transform="translate(-37.17 -159.22)"/><path d="M592.79,280.62a2.86,2.86,0,0,1,.87-2.15,3.08,3.08,0,0,1,4.22,0,3.1,3.1,0,0,1,0,4.33,3,3,0,0,1-5.09-2.17Zm1.18,0a1.89,1.89,0,0,0,.52,1.38,1.75,1.75,0,0,0,1.28.53,1.71,1.71,0,0,0,1.29-.54,2.05,2.05,0,0,0,0-2.74,1.72,1.72,0,0,0-1.28-.54,1.67,1.67,0,0,0-1.29.55A1.93,1.93,0,0,0,594,280.62Z" transform="translate(-37.17 -159.22)"/><path d="M601.56,283.55l-1.85-4.77h-1v-1h2.85v1h-.73l1.22,3.21,1.22-3.21h-.79v-1h2.77v1h-.87l-1.81,4.77Z" transform="translate(-37.17 -159.22)"/><path d="M611.27,282.47v1h-1.94v-.69a2.54,2.54,0,0,1-1.81.78,2,2,0,0,1-1.34-.5,1.74,1.74,0,0,1,0-2.6,2.16,2.16,0,0,1,1.46-.52,2.82,2.82,0,0,1,1.55.48v-.57a1.86,1.86,0,0,0-.09-.66.85.85,0,0,0-.38-.43,1.52,1.52,0,0,0-.79-.18,1.28,1.28,0,0,0-1.21.66l-1.07-.28a2.54,2.54,0,0,1,2.45-1.32,3.32,3.32,0,0,1,1.11.17,1.56,1.56,0,0,1,.69.45,1.52,1.52,0,0,1,.31.59,4.66,4.66,0,0,1,.08,1v2.63Zm-2-1.12a2.35,2.35,0,0,0-1.46-.56,1.16,1.16,0,0,0-.78.27.94.94,0,0,0,0,1.36,1,1,0,0,0,.75.27,2.26,2.26,0,0,0,1.53-.68Z" transform="translate(-37.17 -159.22)"/><path d="M613.86,277.79v.68a3.45,3.45,0,0,1,1.95-.77,1.53,1.53,0,0,1,.91.26,1.24,1.24,0,0,1,.48.64,4.32,4.32,0,0,1,.11,1.1v2.77h1v1h-2.07v-3.71a1.25,1.25,0,0,0-.19-.84.65.65,0,0,0-.47-.2,2.84,2.84,0,0,0-1.67.72v3h1v1h-3.08v-1h1v-3.69h-1v-1Z" transform="translate(-37.17 -159.22)"/><path d="M620.73,277.79v.68a3.5,3.5,0,0,1,2-.77,1.53,1.53,0,0,1,.91.26,1.17,1.17,0,0,1,.47.64,3.84,3.84,0,0,1,.12,1.1v2.77h.95v1h-2.07v-3.71a1.25,1.25,0,0,0-.19-.84.66.66,0,0,0-.48-.2,2.89,2.89,0,0,0-1.67.72v3h1v1h-3.08v-1h1v-3.69h-1v-1Z" transform="translate(-37.17 -159.22)"/><path d="M631.62,280.9h-4.77a2,2,0,0,0,.62,1.28,1.85,1.85,0,0,0,1.32.48,2.15,2.15,0,0,0,1.84-.94l1,.44a3,3,0,0,1-1.25,1.1,3.75,3.75,0,0,1-1.61.36,3.23,3.23,0,0,1-2.22-.81,2.75,2.75,0,0,1-.92-2.19,2.84,2.84,0,0,1,.89-2.15,3,3,0,0,1,2.07-.84,3,3,0,0,1,2.07.82A3.23,3.23,0,0,1,631.62,280.9Zm-1.15-.8a2.13,2.13,0,0,0-.62-1.09,1.74,1.74,0,0,0-1.24-.48,1.61,1.61,0,0,0-1.14.44,1.82,1.82,0,0,0-.58,1.13Z" transform="translate(-37.17 -159.22)"/><path d="M579.44,296.84v-6.11h-1.06v-1h6.78v2.45h-1v-1.43h-3.48v2.42h3v1h-3v2.67h3.48v-1.48h1v2.5h-6.78v-1Z" transform="translate(-37.17 -159.22)"/><path d="M588.4,296.87V290.7h-1.12v-1h2.23v7.15h1.06v1h-3.29v-1Z" transform="translate(-37.17 -159.22)"/><path d="M600.75,295h-2.94l-.62,1.85h1v1H595v-1h1l2.23-6.21h-1v-.92h4.17v.92h-1l2.28,6.21h.91v1h-3.19v-1h1Zm-.31-.95-1.09-3.41h-.11L598.11,294Z" transform="translate(-37.17 -159.22)"/><path d="M605.55,298l-1.86-4.77h-1v-1h2.86v1h-.74l1.22,3.21,1.22-3.21h-.78v-1h2.77v1h-.87L606.56,298Z" transform="translate(-37.17 -159.22)"/><rect class="cls-5" x="286.56" y="226.78" width="75.67" height="28.35"/><rect class="cls-5" x="519.91" y="226.56" width="75.67" height="28.35"/><path d="M328,395.3v-6.11H327v-1h6.78v2.45h-1v-1.43h-3.48v2.42h3v1h-3v2.67h3.48v-1.48h1v2.5H327v-1Z" transform="translate(-37.17 -159.22)"/><path d="M335.38,395.33v-6.17h-1v-1h2.12v7.16h.86v1h-3v-1Z" transform="translate(-37.17 -159.22)"/><path d="M344.07,393.77H339.3a2.1,2.1,0,0,0,.62,1.27,1.88,1.88,0,0,0,1.32.48,2.18,2.18,0,0,0,1.85-.93l1,.43a2.88,2.88,0,0,1-1.25,1.1,3.7,3.7,0,0,1-1.6.36,3.23,3.23,0,0,1-2.22-.81,2.76,2.76,0,0,1-.93-2.19,2.83,2.83,0,0,1,.9-2.15,3,3,0,0,1,2.07-.84,3,3,0,0,1,2.07.82A3.2,3.2,0,0,1,344.07,393.77Zm-1.15-.81a1.94,1.94,0,0,0-.62-1.08,1.68,1.68,0,0,0-1.23-.49,1.65,1.65,0,0,0-1.15.44,1.9,1.9,0,0,0-.58,1.13Z" transform="translate(-37.17 -159.22)"/><path d="M350.32,390.65v2.14h-1a1.35,1.35,0,0,0-.5-.94,1.65,1.65,0,0,0-2.2.2,2,2,0,0,0-.47,1.39,2.39,2.39,0,0,0,.44,1.42,1.5,1.5,0,0,0,1.29.61,1.77,1.77,0,0,0,1.7-1.11l.92.43a2.7,2.7,0,0,1-2.67,1.69,2.62,2.62,0,0,1-2.12-.92,3.22,3.22,0,0,1-.77-2.12,2.88,2.88,0,0,1,.84-2.12,2.72,2.72,0,0,1,2-.83,2.36,2.36,0,0,1,1.59.56v-.4Z" transform="translate(-37.17 -159.22)"/><path d="M351.13,391.64v-1h.74v-.88l1.11-1v1.89h1v1h-1v2.75a2.5,2.5,0,0,0,.08.82q.07.15.36.15a1.61,1.61,0,0,0,.61-.11v1a2.54,2.54,0,0,1-.85.15,1.4,1.4,0,0,1-.83-.22,1,1,0,0,1-.4-.57,6,6,0,0,1-.08-1.17v-2.81Z" transform="translate(-37.17 -159.22)"/><path d="M355.8,395.33v-3.69h-1.15v-1h2v1.28a2.18,2.18,0,0,1,.52-.83,1.62,1.62,0,0,1,.71-.43,3.77,3.77,0,0,1,1-.11h.29v1.13H359a3.73,3.73,0,0,0-1.27.16,1.17,1.17,0,0,0-.62.62,4.53,4.53,0,0,0-.2,1.61v1.25h1.24v1h-3.5v-1Z" transform="translate(-37.17 -159.22)"/><path d="M359.37,393.48a2.86,2.86,0,0,1,.87-2.15,2.92,2.92,0,0,1,2.11-.84,3,3,0,0,1,2.11.83,3.1,3.1,0,0,1,0,4.33,3,3,0,0,1-5.09-2.17Zm1.18,0a1.89,1.89,0,0,0,.52,1.38,1.81,1.81,0,0,0,2.57,0,2.05,2.05,0,0,0,0-2.74,1.72,1.72,0,0,0-1.28-.54,1.67,1.67,0,0,0-1.29.55A1.93,1.93,0,0,0,360.55,393.48Z" transform="translate(-37.17 -159.22)"/><path d="M368.14,396.41l-1.85-4.77h-1v-1h2.85v1h-.73l1.22,3.21,1.22-3.21h-.79v-1h2.77v1H371l-1.81,4.77Z" transform="translate(-37.17 -159.22)"/><path d="M377.85,395.33v1h-1.94v-.69a2.54,2.54,0,0,1-1.81.78,1.94,1.94,0,0,1-1.34-.5,1.74,1.74,0,0,1,0-2.6,2.16,2.16,0,0,1,1.46-.52,2.82,2.82,0,0,1,1.55.48v-.57a1.9,1.9,0,0,0-.09-.66.85.85,0,0,0-.38-.43,1.52,1.52,0,0,0-.79-.18,1.27,1.27,0,0,0-1.21.67l-1.07-.29a2.54,2.54,0,0,1,2.45-1.32,3.32,3.32,0,0,1,1.11.17,1.66,1.66,0,0,1,.69.45,1.6,1.6,0,0,1,.31.59,4.66,4.66,0,0,1,.08,1v2.63Zm-2.05-1.12a2.42,2.42,0,0,0-1.46-.56,1.16,1.16,0,0,0-.78.27.94.94,0,0,0,0,1.36,1,1,0,0,0,.75.27,2.21,2.21,0,0,0,1.53-.68Z" transform="translate(-37.17 -159.22)"/><path d="M380.44,390.65v.68a3.45,3.45,0,0,1,1.95-.77,1.53,1.53,0,0,1,.91.26,1.24,1.24,0,0,1,.48.64,4.32,4.32,0,0,1,.11,1.1v2.77h.95v1h-2.07v-3.71a1.25,1.25,0,0,0-.19-.84.65.65,0,0,0-.47-.2,2.84,2.84,0,0,0-1.67.72v3h1v1h-3.08v-1h1v-3.69h-1v-1Z" transform="translate(-37.17 -159.22)"/><path d="M387.31,390.65v.68a3.5,3.5,0,0,1,2-.77,1.53,1.53,0,0,1,.91.26,1.17,1.17,0,0,1,.47.64,3.84,3.84,0,0,1,.12,1.1v2.77h1v1h-2.07v-3.71a1.25,1.25,0,0,0-.19-.84.66.66,0,0,0-.48-.2,2.89,2.89,0,0,0-1.67.72v3h1v1h-3.08v-1h1v-3.69h-1v-1Z" transform="translate(-37.17 -159.22)"/><path d="M398.2,393.77h-4.77a2,2,0,0,0,.62,1.27,1.85,1.85,0,0,0,1.32.48,2.16,2.16,0,0,0,1.84-.93l1,.43a2.94,2.94,0,0,1-1.25,1.1,3.75,3.75,0,0,1-1.61.36,3.23,3.23,0,0,1-2.22-.81,2.75,2.75,0,0,1-.92-2.19,2.86,2.86,0,0,1,.89-2.15,3,3,0,0,1,2.07-.84,3,3,0,0,1,2.07.82A3.24,3.24,0,0,1,398.2,393.77Zm-1.15-.81a2.06,2.06,0,0,0-.62-1.08,1.7,1.7,0,0,0-1.24-.49,1.61,1.61,0,0,0-1.14.44,1.85,1.85,0,0,0-.58,1.13Z" transform="translate(-37.17 -159.22)"/><path d="M346,409.7v-6.11H345v-1h6.78V405h-1v-1.43h-3.48V406h3v1h-3v2.67h3.48v-1.48h1v2.5H345v-1Z" transform="translate(-37.17 -159.22)"/><path d="M357.9,407.81l-.08,2.91h-5.2a4.38,4.38,0,0,1,.3-1.61,4,4,0,0,1,.85-1.34,12.16,12.16,0,0,1,1.67-1.4,4.84,4.84,0,0,0,1-.87,1.32,1.32,0,0,0,.25-.81,1.29,1.29,0,0,0-.35-.93,1.34,1.34,0,0,0-1-.36,1.32,1.32,0,0,0-1.07.41,2.11,2.11,0,0,0-.34,1.35c0,.16,0,.3,0,.44h-1.08c0-.14,0-.25,0-.34a3.12,3.12,0,0,1,.63-2.07,2.26,2.26,0,0,1,1.84-.75,2.58,2.58,0,0,1,1.88.64,2.14,2.14,0,0,1,.65,1.57,2.08,2.08,0,0,1-.43,1.33,8,8,0,0,1-1.63,1.4,6.84,6.84,0,0,0-1.54,1.35,2.23,2.23,0,0,0-.43.93h3.07l.05-1.85Z" transform="translate(-37.17 -159.22)"/><path d="M367.33,407.85h-2.94l-.62,1.85h1v1h-3.21v-1h1l2.23-6.21h-1v-.92h4.17v.92h-1l2.28,6.21h.91v1h-3.19v-1h1Zm-.31-1-1.09-3.41h-.11l-1.13,3.41Z" transform="translate(-37.17 -159.22)"/><path d="M371.35,409.73V406h-1v-1h2.06v.71a3.21,3.21,0,0,1,2-.8,1.34,1.34,0,0,1,1.34.89,3.42,3.42,0,0,1,2.06-.89,1.6,1.6,0,0,1,.91.24,1.25,1.25,0,0,1,.48.62,3.79,3.79,0,0,1,.12,1.1v2.81h1v1h-2.1v-3.6a3.63,3.63,0,0,0-.05-.7.56.56,0,0,0-.22-.33.69.69,0,0,0-.43-.13,2.68,2.68,0,0,0-1.62.73v3h1v1h-2.09V407a1.48,1.48,0,0,0-.16-.8.58.58,0,0,0-.54-.25,3,3,0,0,0-1.63.73v3h1v1h-3.13v-1Z" transform="translate(-37.17 -159.22)"/><path d="M560.46,395.47v-6.11h-1.05v-1h6.77v2.45h-1v-1.43h-3.48v2.42h3v1h-3v2.67h3.48V394h1v2.5h-6.77v-1Z" transform="translate(-37.17 -159.22)"/><path d="M567.83,395.5v-6.17h-1v-1h2.12v7.16h.87v1h-3v-1Z" transform="translate(-37.17 -159.22)"/><path d="M576.52,393.93h-4.77a2.1,2.1,0,0,0,.62,1.28,1.85,1.85,0,0,0,1.32.48,2.13,2.13,0,0,0,1.84-.94l1,.44a3,3,0,0,1-1.25,1.1,3.75,3.75,0,0,1-1.61.36,3.27,3.27,0,0,1-2.22-.81,2.78,2.78,0,0,1-.92-2.19,2.82,2.82,0,0,1,.9-2.15,2.94,2.94,0,0,1,2.06-.84,3,3,0,0,1,2.07.82A3.23,3.23,0,0,1,576.52,393.93Zm-1.15-.81a2.14,2.14,0,0,0-.62-1.08,1.74,1.74,0,0,0-1.24-.48,1.65,1.65,0,0,0-1.14.44,1.82,1.82,0,0,0-.58,1.12Z" transform="translate(-37.17 -159.22)"/><path d="M582.76,390.82V393h-1a1.35,1.35,0,0,0-.5-.94,1.66,1.66,0,0,0-2.21.2,2,2,0,0,0-.47,1.39A2.33,2.33,0,0,0,579,395a1.5,1.5,0,0,0,1.29.61,1.78,1.78,0,0,0,1.7-1.11l.92.43a2.7,2.7,0,0,1-2.67,1.69,2.59,2.59,0,0,1-2.12-.92,3.17,3.17,0,0,1-.77-2.12,2.88,2.88,0,0,1,.84-2.12,2.7,2.7,0,0,1,1.94-.83,2.39,2.39,0,0,1,1.6.55v-.39Z" transform="translate(-37.17 -159.22)"/><path d="M583.58,391.81v-1h.74v-.88l1.11-1v1.9h1.05v1h-1.05v2.75a3,3,0,0,0,.07.82c0,.1.18.15.37.15a1.83,1.83,0,0,0,.61-.11v1a2.6,2.6,0,0,1-.86.15,1.37,1.37,0,0,1-.82-.22,1,1,0,0,1-.4-.57,5.4,5.4,0,0,1-.08-1.17v-2.81Z" transform="translate(-37.17 -159.22)"/><path d="M588.24,395.5v-3.69H587.1v-1h2v1.27a2.24,2.24,0,0,1,.53-.82,1.62,1.62,0,0,1,.7-.44,4,4,0,0,1,1-.1h.29v1.12h-.22a3.64,3.64,0,0,0-1.27.17,1.14,1.14,0,0,0-.62.62,4.3,4.3,0,0,0-.2,1.61v1.25h1.23v1H587.1v-1Z" transform="translate(-37.17 -159.22)"/><path d="M591.82,393.65a2.89,2.89,0,0,1,.86-2.15,2.94,2.94,0,0,1,2.12-.84,2.9,2.9,0,0,1,2.1.83,2.81,2.81,0,0,1,.88,2.16,2.86,2.86,0,0,1-.87,2.17,2.94,2.94,0,0,1-2.11.83,2.91,2.91,0,0,1-2.12-.84A2.86,2.86,0,0,1,591.82,393.65Zm1.18,0a1.89,1.89,0,0,0,.52,1.38,1.75,1.75,0,0,0,1.28.53,1.73,1.73,0,0,0,1.29-.54,1.92,1.92,0,0,0,.51-1.37,1.87,1.87,0,0,0-.52-1.37,1.72,1.72,0,0,0-1.28-.54,1.66,1.66,0,0,0-1.29.55A1.93,1.93,0,0,0,593,393.65Z" transform="translate(-37.17 -159.22)"/><path d="M600.59,396.58l-1.85-4.77h-1v-1h2.85v1h-.74l1.22,3.21,1.23-3.21h-.79v-1h2.77v1h-.87l-1.81,4.77Z" transform="translate(-37.17 -159.22)"/><path d="M610.3,395.5v1h-1.95v-.69a2.54,2.54,0,0,1-1.8.78,2,2,0,0,1-1.35-.5,1.66,1.66,0,0,1-.57-1.29,1.63,1.63,0,0,1,.61-1.31,2.14,2.14,0,0,1,1.46-.52,2.79,2.79,0,0,1,1.54.48v-.57a2.18,2.18,0,0,0-.08-.66.9.9,0,0,0-.38-.43,1.57,1.57,0,0,0-.79-.18,1.3,1.3,0,0,0-1.22.66l-1.06-.28a2.54,2.54,0,0,1,2.45-1.32,3.3,3.3,0,0,1,1.1.17,1.66,1.66,0,0,1,.7.45,1.38,1.38,0,0,1,.3.59,4.08,4.08,0,0,1,.08,1v2.63Zm-2.06-1.12a2.33,2.33,0,0,0-1.46-.56,1.13,1.13,0,0,0-.77.27.86.86,0,0,0-.31.69.9.9,0,0,0,.27.67,1,1,0,0,0,.74.27,2.22,2.22,0,0,0,1.53-.68Z" transform="translate(-37.17 -159.22)"/><path d="M612.88,390.82v.68a3.5,3.5,0,0,1,2-.77,1.53,1.53,0,0,1,.91.26,1.17,1.17,0,0,1,.47.64,3.91,3.91,0,0,1,.11,1.1v2.77h1v1h-2.07v-3.71a1.25,1.25,0,0,0-.19-.84.66.66,0,0,0-.48-.2,2.86,2.86,0,0,0-1.67.72v3h1v1h-3.09v-1h1v-3.69h-1v-1Z" transform="translate(-37.17 -159.22)"/><path d="M619.76,390.82v.68a3.5,3.5,0,0,1,2-.77,1.53,1.53,0,0,1,.91.26,1.17,1.17,0,0,1,.47.64,3.91,3.91,0,0,1,.11,1.1v2.77h1v1H622.1v-3.71a1.31,1.31,0,0,0-.19-.84.66.66,0,0,0-.48-.2,2.86,2.86,0,0,0-1.67.72v3h1v1h-3.09v-1h1v-3.69h-1v-1Z" transform="translate(-37.17 -159.22)"/><path d="M630.64,393.93h-4.77a2.1,2.1,0,0,0,.62,1.28,1.88,1.88,0,0,0,1.32.48,2.16,2.16,0,0,0,1.85-.94l1,.44a3,3,0,0,1-1.25,1.1,3.7,3.7,0,0,1-1.6.36,3.28,3.28,0,0,1-2.23-.81,2.78,2.78,0,0,1-.92-2.19,2.82,2.82,0,0,1,.9-2.15,3,3,0,0,1,2.07-.84,3,3,0,0,1,2.07.82A3.19,3.19,0,0,1,630.64,393.93Zm-1.15-.81a2,2,0,0,0-.62-1.08,1.71,1.71,0,0,0-1.23-.48,1.65,1.65,0,0,0-1.15.44,1.87,1.87,0,0,0-.58,1.12Z" transform="translate(-37.17 -159.22)"/><path d="M581.46,409.87v-6.11h-1.05v-1h6.77v2.45h-1v-1.43h-3.49v2.42h3v1h-3v2.67h3.49v-1.48h1v2.5h-6.77v-1Z" transform="translate(-37.17 -159.22)"/><path d="M593.35,408l-.08,2.91h-5.21a4.38,4.38,0,0,1,.3-1.61,4.18,4.18,0,0,1,.85-1.35,13.75,13.75,0,0,1,1.67-1.39,4.68,4.68,0,0,0,1-.87,1.39,1.39,0,0,0,.25-.81,1.26,1.26,0,0,0-.36-.93,1.31,1.31,0,0,0-1-.36,1.34,1.34,0,0,0-1.08.41,2.15,2.15,0,0,0-.34,1.35c0,.15,0,.3,0,.44h-1.09v-.34a3.14,3.14,0,0,1,.62-2.07,2.28,2.28,0,0,1,1.84-.75,2.55,2.55,0,0,1,1.88.64,2.08,2.08,0,0,1,.65,1.57,2.13,2.13,0,0,1-.42,1.33,8.11,8.11,0,0,1-1.64,1.4,6.8,6.8,0,0,0-1.54,1.35,2.32,2.32,0,0,0-.42.93h3.07l.05-1.85Z" transform="translate(-37.17 -159.22)"/><path d="M602.77,408h-2.93l-.63,1.85h1v1H597v-1h1l2.22-6.21h-1v-.92h4.16v.92h-1l2.28,6.21h.91v1h-3.2v-1h1Zm-.3-.95-1.09-3.41h-.11l-1.13,3.41Z" transform="translate(-37.17 -159.22)"/><path d="M607.58,411l-1.86-4.77h-1v-1h2.85v1h-.73l1.22,3.21,1.22-3.21h-.79v-1h2.77v1h-.87L608.58,411Z" transform="translate(-37.17 -159.22)"/><rect class="cls-5" x="351.55" y="271.65" width="75.67" height="28.35"/><rect class="cls-5" x="452.88" y="271.65" width="75.67" height="28.35"/><path d="M392.38,441.2v-6.11h-1.06v-1h6.78v2.45h-1v-1.43h-3.48v2.42h3v1h-3v2.67h3.48v-1.48h1v2.5h-6.78v-1Z" transform="translate(-37.17 -159.22)"/><path d="M399.74,441.23v-6.17h-1v-1h2.12v7.16h.86v1h-3v-1Z" transform="translate(-37.17 -159.22)"/><path d="M408.43,439.66h-4.77a2,2,0,0,0,.62,1.27,1.84,1.84,0,0,0,1.32.49,2.15,2.15,0,0,0,1.85-.94l1,.44a3,3,0,0,1-1.25,1.1,3.7,3.7,0,0,1-1.6.36,3.23,3.23,0,0,1-2.22-.81,2.76,2.76,0,0,1-.93-2.19,2.82,2.82,0,0,1,.9-2.15,3,3,0,0,1,2.07-.84,3,3,0,0,1,2.07.82A3.19,3.19,0,0,1,408.43,439.66Zm-1.15-.81a2,2,0,0,0-.62-1.08,1.7,1.7,0,0,0-1.23-.48,1.65,1.65,0,0,0-1.15.44,1.87,1.87,0,0,0-.58,1.12Z" transform="translate(-37.17 -159.22)"/><path d="M414.68,436.55v2.14h-1a1.31,1.31,0,0,0-.5-.94,1.65,1.65,0,0,0-2.2.2,2,2,0,0,0-.47,1.39,2.39,2.39,0,0,0,.44,1.42,1.52,1.52,0,0,0,1.29.61,1.76,1.76,0,0,0,1.7-1.12l.92.44a2.7,2.7,0,0,1-2.67,1.69,2.62,2.62,0,0,1-2.12-.92,3.22,3.22,0,0,1-.77-2.12,2.88,2.88,0,0,1,.84-2.12,2.72,2.72,0,0,1,1.95-.83,2.35,2.35,0,0,1,1.59.55v-.39Z" transform="translate(-37.17 -159.22)"/><path d="M415.49,437.54v-1h.74v-.88l1.11-1v1.9h1.05v1h-1.05v2.75a2.54,2.54,0,0,0,.08.82q.07.15.36.15a1.83,1.83,0,0,0,.61-.11v1a2.54,2.54,0,0,1-.85.15,1.4,1.4,0,0,1-.83-.22,1,1,0,0,1-.4-.57,6.15,6.15,0,0,1-.08-1.17v-2.81Z" transform="translate(-37.17 -159.22)"/><path d="M420.16,441.23v-3.69H419v-1h2v1.27a2.22,2.22,0,0,1,.52-.82,1.65,1.65,0,0,1,.71-.44,3.83,3.83,0,0,1,1-.1h.3v1.12h-.23a3.68,3.68,0,0,0-1.27.17,1.17,1.17,0,0,0-.62.62,4.53,4.53,0,0,0-.2,1.61v1.25h1.24v1H419v-1Z" transform="translate(-37.17 -159.22)"/><path d="M423.73,439.38a2.86,2.86,0,0,1,.87-2.15,3.08,3.08,0,0,1,4.22,0,3.1,3.1,0,0,1,0,4.33,3,3,0,0,1-2.11.83,2.91,2.91,0,0,1-3-3Zm1.18,0a1.85,1.85,0,0,0,.52,1.37,1.8,1.8,0,0,0,2.57,0,2.05,2.05,0,0,0,0-2.74,1.72,1.72,0,0,0-1.28-.54,1.67,1.67,0,0,0-1.29.55A1.91,1.91,0,0,0,424.91,439.38Z" transform="translate(-37.17 -159.22)"/><path d="M432.51,442.31l-1.86-4.77h-1v-1h2.85v1h-.73l1.22,3.21,1.22-3.21h-.79v-1h2.77v1h-.87l-1.81,4.77Z" transform="translate(-37.17 -159.22)"/><path d="M442.21,441.23v1h-1.94v-.69a2.54,2.54,0,0,1-1.81.78,2,2,0,0,1-1.34-.5,1.74,1.74,0,0,1,0-2.6,2.17,2.17,0,0,1,1.46-.53,2.76,2.76,0,0,1,1.55.49v-.57a2,2,0,0,0-.09-.67.87.87,0,0,0-.38-.42,1.52,1.52,0,0,0-.79-.18,1.28,1.28,0,0,0-1.21.66l-1.07-.28a2.54,2.54,0,0,1,2.45-1.32,3.32,3.32,0,0,1,1.11.17,1.56,1.56,0,0,1,.69.45,1.43,1.43,0,0,1,.31.58,4.84,4.84,0,0,1,.08,1v2.63Zm-2-1.12a2.33,2.33,0,0,0-1.46-.56,1.16,1.16,0,0,0-.78.27.94.94,0,0,0,0,1.36,1,1,0,0,0,.75.27,2.22,2.22,0,0,0,1.53-.68Z" transform="translate(-37.17 -159.22)"/><path d="M444.8,436.55v.68a3.45,3.45,0,0,1,1.95-.77,1.46,1.46,0,0,1,.91.26,1.24,1.24,0,0,1,.48.64,4.32,4.32,0,0,1,.11,1.1v2.77h.95v1h-2.07v-3.71a1.25,1.25,0,0,0-.19-.84.65.65,0,0,0-.47-.2,2.84,2.84,0,0,0-1.67.72v3h1v1h-3.08v-1h1v-3.69h-1v-1Z" transform="translate(-37.17 -159.22)"/><path d="M451.68,436.55v.68a3.45,3.45,0,0,1,1.95-.77,1.46,1.46,0,0,1,.91.26,1.17,1.17,0,0,1,.47.64,3.84,3.84,0,0,1,.12,1.1v2.77h.95v1H454v-3.71a1.25,1.25,0,0,0-.19-.84.66.66,0,0,0-.48-.2,2.84,2.84,0,0,0-1.66.72v3h1v1h-3.08v-1h1v-3.69h-1v-1Z" transform="translate(-37.17 -159.22)"/><path d="M462.56,439.66h-4.77a2,2,0,0,0,.62,1.27,1.81,1.81,0,0,0,1.32.49,2.15,2.15,0,0,0,1.84-.94l1,.44a3,3,0,0,1-1.25,1.1,3.75,3.75,0,0,1-1.61.36,3.25,3.25,0,0,1-2.22-.81,2.75,2.75,0,0,1-.92-2.19,2.82,2.82,0,0,1,.9-2.15,2.91,2.91,0,0,1,2.06-.84,3,3,0,0,1,2.07.82A3.23,3.23,0,0,1,462.56,439.66Zm-1.15-.81a2.14,2.14,0,0,0-.62-1.08,1.74,1.74,0,0,0-1.24-.48,1.61,1.61,0,0,0-1.14.44,1.82,1.82,0,0,0-.58,1.12Z" transform="translate(-37.17 -159.22)"/><path d="M410.22,455.6v-6.11h-1.17v-1h2.79l3.57,6.33v-5.31h-1.15v-1h3.34v1h-1.2v7.21h-1.26l-3.91-7v5.86h1.16v1h-3.34v-1Z" transform="translate(-37.17 -159.22)"/><path d="M423.39,453.71l-.07,2.91h-5.21a4.38,4.38,0,0,1,.3-1.61,4,4,0,0,1,.85-1.35,13,13,0,0,1,1.67-1.39,4.84,4.84,0,0,0,1-.87,1.32,1.32,0,0,0,.25-.81,1.29,1.29,0,0,0-.35-.93,1.34,1.34,0,0,0-1-.36,1.32,1.32,0,0,0-1.07.41,2.09,2.09,0,0,0-.34,1.35c0,.15,0,.3,0,.44h-1.08c0-.14,0-.25,0-.34a3.09,3.09,0,0,1,.63-2.07,2.26,2.26,0,0,1,1.84-.75,2.58,2.58,0,0,1,1.88.64,2.12,2.12,0,0,1,.65,1.57,2.08,2.08,0,0,1-.43,1.33,8,8,0,0,1-1.63,1.4,6.58,6.58,0,0,0-1.54,1.35,2.36,2.36,0,0,0-.43.93h3.07l0-1.85Z" transform="translate(-37.17 -159.22)"/><path d="M432.82,453.75h-2.94l-.62,1.85h1v1H427v-1h1l2.23-6.21h-1v-.92h4.17v.92h-1l2.28,6.21h.91v1h-3.19v-1h1Zm-.31-.95-1.08-3.41h-.12l-1.13,3.41Z" transform="translate(-37.17 -159.22)"/><path d="M436.84,455.63v-3.69h-.94v-1H438v.71a3.21,3.21,0,0,1,2-.8,1.33,1.33,0,0,1,1.34.88,3.4,3.4,0,0,1,2.07-.88,1.59,1.59,0,0,1,.9.24,1.16,1.16,0,0,1,.48.62,3.75,3.75,0,0,1,.12,1.1v2.81h1v1h-2.1V453a3.59,3.59,0,0,0-.05-.69.53.53,0,0,0-.22-.33.69.69,0,0,0-.43-.14,2.7,2.7,0,0,0-1.62.74v3h1v1h-2.09v-3.71a1.54,1.54,0,0,0-.16-.81.6.6,0,0,0-.54-.25,3.05,3.05,0,0,0-1.63.74v3h1v1h-3.12v-1Z" transform="translate(-37.17 -159.22)"/><path d="M493.19,441.37v-6.11h-1.05v-1h6.77v2.45h-1v-1.43h-3.48v2.42h3v1h-3v2.67h3.48v-1.49h1v2.51h-6.77v-1Z" transform="translate(-37.17 -159.22)"/><path d="M500.56,441.4v-6.17h-1v-1h2.12v7.16h.87v1h-3v-1Z" transform="translate(-37.17 -159.22)"/><path d="M509.25,439.83h-4.77a2,2,0,0,0,.62,1.27,1.81,1.81,0,0,0,1.32.49,2.13,2.13,0,0,0,1.84-.94l1,.44a3,3,0,0,1-1.25,1.1,3.75,3.75,0,0,1-1.61.36,3.27,3.27,0,0,1-2.22-.81,2.78,2.78,0,0,1-.92-2.19,2.82,2.82,0,0,1,.9-2.15,2.94,2.94,0,0,1,2.06-.84,3,3,0,0,1,2.07.82A3.23,3.23,0,0,1,509.25,439.83ZM508.1,439a2.06,2.06,0,0,0-.62-1.08,1.74,1.74,0,0,0-1.24-.48,1.6,1.6,0,0,0-1.14.44,1.82,1.82,0,0,0-.58,1.12Z" transform="translate(-37.17 -159.22)"/><path d="M515.49,436.71v2.15h-1a1.33,1.33,0,0,0-.5-.94,1.6,1.6,0,0,0-1-.33,1.53,1.53,0,0,0-1.22.53,2,2,0,0,0-.47,1.39,2.3,2.3,0,0,0,.45,1.41,1.48,1.48,0,0,0,1.29.62,1.77,1.77,0,0,0,1.7-1.12l.92.44a2.7,2.7,0,0,1-2.67,1.69,2.62,2.62,0,0,1-2.12-.92,3.17,3.17,0,0,1-.77-2.12,2.86,2.86,0,0,1,.84-2.12,2.66,2.66,0,0,1,1.94-.83,2.39,2.39,0,0,1,1.6.55v-.4Z" transform="translate(-37.17 -159.22)"/><path d="M516.31,437.71v-1h.74v-.87l1.11-1v1.89h1.05v1h-1.05v2.75a2.66,2.66,0,0,0,.07.82c0,.1.17.15.37.15a1.62,1.62,0,0,0,.61-.12v1a2.6,2.6,0,0,1-.86.15,1.31,1.31,0,0,1-.82-.23.93.93,0,0,1-.4-.56,5.4,5.4,0,0,1-.08-1.17v-2.81Z" transform="translate(-37.17 -159.22)"/><path d="M521,441.4v-3.69h-1.14v-1h2V438a2.26,2.26,0,0,1,.52-.82,1.71,1.71,0,0,1,.71-.44,4,4,0,0,1,1-.1h.29v1.12h-.22a3.64,3.64,0,0,0-1.27.17,1.14,1.14,0,0,0-.62.62,4.3,4.3,0,0,0-.2,1.61v1.25h1.23v1h-3.49v-1Z" transform="translate(-37.17 -159.22)"/><path d="M524.55,439.55a2.89,2.89,0,0,1,.86-2.15,2.94,2.94,0,0,1,2.12-.84,2.9,2.9,0,0,1,2.1.83,2.81,2.81,0,0,1,.88,2.16,2.88,2.88,0,0,1-.87,2.17,3,3,0,0,1-2.11.83,2.91,2.91,0,0,1-2.12-.84A2.88,2.88,0,0,1,524.55,439.55Zm1.17,0a1.86,1.86,0,0,0,.53,1.37,1.8,1.8,0,0,0,2.57,0,1.92,1.92,0,0,0,.51-1.37,1.89,1.89,0,0,0-.52-1.38,1.72,1.72,0,0,0-1.28-.54,1.7,1.7,0,0,0-1.3.56A1.91,1.91,0,0,0,525.72,439.55Z" transform="translate(-37.17 -159.22)"/><path d="M533.32,442.48l-1.85-4.77h-1v-1h2.85v1h-.74l1.22,3.21,1.23-3.21h-.79v-1H537v1h-.87l-1.81,4.77Z" transform="translate(-37.17 -159.22)"/><path d="M543,441.4v1h-1.95v-.69a2.54,2.54,0,0,1-1.8.78,2,2,0,0,1-1.35-.5,1.66,1.66,0,0,1-.57-1.29,1.63,1.63,0,0,1,.61-1.31,2.15,2.15,0,0,1,1.46-.53,2.81,2.81,0,0,1,1.54.48v-.56a2.3,2.3,0,0,0-.08-.67.92.92,0,0,0-.38-.42,1.56,1.56,0,0,0-.79-.19,1.31,1.31,0,0,0-1.22.67l-1.06-.28a2.54,2.54,0,0,1,2.45-1.32,3.06,3.06,0,0,1,1.1.17,1.65,1.65,0,0,1,.7.44,1.5,1.5,0,0,1,.3.59,4.18,4.18,0,0,1,.08,1v2.63ZM541,440.28a2.35,2.35,0,0,0-1.46-.57,1.13,1.13,0,0,0-.77.27.88.88,0,0,0-.31.7.9.9,0,0,0,.27.67,1,1,0,0,0,.74.27,2.22,2.22,0,0,0,1.53-.68Z" transform="translate(-37.17 -159.22)"/><path d="M545.61,436.71v.69a3.43,3.43,0,0,1,2-.77,1.46,1.46,0,0,1,.91.26,1.14,1.14,0,0,1,.47.64,3.91,3.91,0,0,1,.11,1.1v2.77h1v1H548v-3.71a1.31,1.31,0,0,0-.19-.84.66.66,0,0,0-.48-.2,2.86,2.86,0,0,0-1.67.72v3h1v1H543.5v-1h1v-3.69h-1v-1Z" transform="translate(-37.17 -159.22)"/><path d="M552.49,436.71v.69a3.43,3.43,0,0,1,2-.77,1.48,1.48,0,0,1,.91.26,1.14,1.14,0,0,1,.47.64,4.32,4.32,0,0,1,.11,1.1v2.77h1v1h-2.07v-3.71a1.24,1.24,0,0,0-.2-.84.62.62,0,0,0-.47-.2,2.86,2.86,0,0,0-1.67.72v3h1v1h-3.09v-1h1v-3.69h-1v-1Z" transform="translate(-37.17 -159.22)"/><path d="M563.37,439.83H558.6a2,2,0,0,0,.62,1.27,1.84,1.84,0,0,0,1.32.49,2.16,2.16,0,0,0,1.85-.94l1,.44a3,3,0,0,1-1.25,1.1,3.7,3.7,0,0,1-1.6.36,3.28,3.28,0,0,1-2.23-.81,2.78,2.78,0,0,1-.92-2.19,2.82,2.82,0,0,1,.9-2.15,3,3,0,0,1,2.07-.84,3,3,0,0,1,2.07.82A3.19,3.19,0,0,1,563.37,439.83Zm-1.15-.81a2,2,0,0,0-.62-1.08,1.71,1.71,0,0,0-1.23-.48,1.61,1.61,0,0,0-1.15.44,1.87,1.87,0,0,0-.58,1.12Z" transform="translate(-37.17 -159.22)"/><path d="M511,455.77v-6.11h-1.17v-1h2.78l3.58,6.33v-5.31h-1.16v-1h3.35v1h-1.2v7.21H516l-3.91-7v5.86h1.17v1h-3.34v-1Z" transform="translate(-37.17 -159.22)"/><path d="M524.21,453.88l-.08,2.91h-5.21a4.44,4.44,0,0,1,.3-1.62,4.14,4.14,0,0,1,.85-1.34,12.88,12.88,0,0,1,1.67-1.39,4.68,4.68,0,0,0,1-.87,1.32,1.32,0,0,0,.25-.81,1.26,1.26,0,0,0-.36-.93,1.56,1.56,0,0,0-2.05.05,2.09,2.09,0,0,0-.34,1.35c0,.15,0,.3,0,.44h-1.09v-.34a3.19,3.19,0,0,1,.62-2.08,2.3,2.3,0,0,1,1.84-.74,2.55,2.55,0,0,1,1.88.64,2.09,2.09,0,0,1,.66,1.57,2.14,2.14,0,0,1-.43,1.33,8.45,8.45,0,0,1-1.64,1.4,6.8,6.8,0,0,0-1.54,1.35,2.32,2.32,0,0,0-.42.93h3.07l.05-1.85Z" transform="translate(-37.17 -159.22)"/><path d="M533.63,453.92H530.7l-.63,1.85h1v1h-3.21v-1h1l2.22-6.21h-1v-.92h4.16v.92h-1l2.28,6.21h.91v1h-3.2v-1h1Zm-.3-.95-1.09-3.41h-.11L531,453Z" transform="translate(-37.17 -159.22)"/><path d="M538.44,456.88l-1.86-4.77h-1v-1h2.85v1h-.73l1.22,3.21,1.22-3.21h-.79v-1h2.78v1h-.88l-1.81,4.77Z" transform="translate(-37.17 -159.22)"/><rect class="cls-5" x="654.88" y="218.59" width="93.71" height="37.69"/><path d="M703,389.62v-6.11h-1v-1h2.91a7,7,0,0,1,1.92.19,1.86,1.86,0,0,1,1.07.82,2.89,2.89,0,0,1,.15,2.76,2,2,0,0,1-.7.82,2.54,2.54,0,0,1-1,.36,10.2,10.2,0,0,1-1.58.09h-.56v2.09h1v1H702v-1Zm1.24-3.08h.7a2.91,2.91,0,0,0,1.66-.34,1.41,1.41,0,0,0,.47-1.21,1.6,1.6,0,0,0-.25-.91,1.07,1.07,0,0,0-.61-.47,5.51,5.51,0,0,0-1.21-.1h-.76Z" transform="translate(-37.17 -159.22)"/><path d="M710,389.65V386h-1.14v-1h2v1.28a2.14,2.14,0,0,1,.52-.83,1.69,1.69,0,0,1,.7-.43,3.9,3.9,0,0,1,1-.11h.29V386h-.22a3.64,3.64,0,0,0-1.27.17,1.11,1.11,0,0,0-.62.62,4.49,4.49,0,0,0-.2,1.61v1.24h1.23v1h-3.49v-1Z" transform="translate(-37.17 -159.22)"/><path d="M719.47,388.09H714.7a2.08,2.08,0,0,0,.62,1.27,1.81,1.81,0,0,0,1.32.49,2.13,2.13,0,0,0,1.84-.94l1,.43a3,3,0,0,1-1.25,1.11,3.75,3.75,0,0,1-1.61.36,3.27,3.27,0,0,1-2.22-.81,2.78,2.78,0,0,1-.92-2.19,2.82,2.82,0,0,1,.9-2.15,3,3,0,0,1,2.06-.85,3.05,3.05,0,0,1,2.07.83A3.22,3.22,0,0,1,719.47,388.09Zm-1.15-.81a2.06,2.06,0,0,0-.62-1.08,1.74,1.74,0,0,0-1.24-.48,1.64,1.64,0,0,0-1.14.43,1.85,1.85,0,0,0-.58,1.13Z" transform="translate(-37.17 -159.22)"/><path d="M720.41,390.64V388.7h1v.19a.94.94,0,0,0,.43.65,1.56,1.56,0,0,0,.9.26,1.66,1.66,0,0,0,.86-.19.58.58,0,0,0,.32-.52.5.5,0,0,0-.27-.47,3.43,3.43,0,0,0-1-.28,3.46,3.46,0,0,1-1.68-.64,1.48,1.48,0,0,1-.5-1.15,1.51,1.51,0,0,1,.55-1.19,2.08,2.08,0,0,1,1.43-.48,2.82,2.82,0,0,1,1.38.33V385h1v1.88h-1v-.34a1.45,1.45,0,0,0-1.31-.7,1.25,1.25,0,0,0-.72.19.6.6,0,0,0-.29.51.44.44,0,0,0,.27.44,4.6,4.6,0,0,0,1.12.25,5.92,5.92,0,0,1,1.25.31,1.53,1.53,0,0,1,.7.57,1.64,1.64,0,0,1,.27.93,1.51,1.51,0,0,1-.6,1.26,2.88,2.88,0,0,1-3.06.06v.31Z" transform="translate(-37.17 -159.22)"/><path d="M725.9,390.64V388.7h1v.19a.91.91,0,0,0,.43.65,1.55,1.55,0,0,0,.89.26,1.64,1.64,0,0,0,.86-.19.57.57,0,0,0,.33-.52.5.5,0,0,0-.27-.47,3.52,3.52,0,0,0-1.06-.28,3.42,3.42,0,0,1-1.67-.64,1.45,1.45,0,0,1-.5-1.15,1.53,1.53,0,0,1,.54-1.19,2.11,2.11,0,0,1,1.44-.48,2.87,2.87,0,0,1,1.38.33V385h1v1.88h-1v-.34a1.46,1.46,0,0,0-1.31-.7,1.28,1.28,0,0,0-.73.19.61.61,0,0,0-.28.51.45.45,0,0,0,.26.44,4.73,4.73,0,0,0,1.12.25,5.76,5.76,0,0,1,1.25.31,1.49,1.49,0,0,1,.7.57,1.57,1.57,0,0,1,.28.93,1.49,1.49,0,0,1-.61,1.26,2.87,2.87,0,0,1-3.05.06v.31Z" transform="translate(-37.17 -159.22)"/><path d="M732.18,389.65V386h-.88v-1h2v4.68h.88v1H731.3v-1ZM732,383a.63.63,0,0,1,.19-.46.62.62,0,0,1,.48-.2.66.66,0,0,1,.48.19.66.66,0,0,1,0,.95.67.67,0,0,1-.48.2.65.65,0,0,1-.47-.2A.62.62,0,0,1,732,383Z" transform="translate(-37.17 -159.22)"/><path d="M734.87,387.81a2.88,2.88,0,0,1,.86-2.15,2.91,2.91,0,0,1,2.12-.85,3,3,0,0,1,2.1.83,2.85,2.85,0,0,1,.88,2.17A2.88,2.88,0,0,1,740,390a3,3,0,0,1-2.11.83,2.92,2.92,0,0,1-2.13-.85A2.89,2.89,0,0,1,734.87,387.81Zm1.17,0a1.88,1.88,0,0,0,.53,1.37,1.79,1.79,0,0,0,2.56,0,2.08,2.08,0,0,0,0-2.75,1.8,1.8,0,0,0-2.58,0A2,2,0,0,0,736,387.81Z" transform="translate(-37.17 -159.22)"/><path d="M743.72,385v.69a3.43,3.43,0,0,1,2-.78,1.49,1.49,0,0,1,.91.27,1.15,1.15,0,0,1,.47.63,4.41,4.41,0,0,1,.11,1.11v2.76h1v1h-2.07v-3.7a1.29,1.29,0,0,0-.2-.85.61.61,0,0,0-.47-.19,2.86,2.86,0,0,0-1.67.72v3h1v1h-3.09v-1h1V386h-1v-1Z" transform="translate(-37.17 -159.22)"/><path d="M756.85,387.78h-2.93l-.63,1.84h1v1h-3.21v-1h1l2.23-6.21h-1v-.92h4.17v.92h-1l2.28,6.21h.91v1h-3.19v-1h1Zm-.3-1-1.09-3.41h-.11l-1.13,3.41Z" transform="translate(-37.17 -159.22)"/><path d="M761.66,390.74,759.8,386h-1v-1h2.86v1h-.74l1.22,3.22,1.22-3.22h-.78v-1h2.77v1h-.87l-1.81,4.78Z" transform="translate(-37.17 -159.22)"/><path d="M771.36,389.65v1h-1.94V390a2.52,2.52,0,0,1-1.81.79,2,2,0,0,1-1.34-.51,1.62,1.62,0,0,1-.57-1.28,1.68,1.68,0,0,1,.6-1.32,2.24,2.24,0,0,1,1.47-.52,2.81,2.81,0,0,1,1.54.48V387a2.3,2.3,0,0,0-.08-.67.91.91,0,0,0-.39-.42,1.42,1.42,0,0,0-.79-.19,1.28,1.28,0,0,0-1.21.67l-1.07-.28a2.56,2.56,0,0,1,2.45-1.33,3.07,3.07,0,0,1,1.11.18,1.55,1.55,0,0,1,.69.44,1.35,1.35,0,0,1,.31.59,4.77,4.77,0,0,1,.08,1v2.62Zm-2.05-1.11a2.35,2.35,0,0,0-1.46-.57,1.11,1.11,0,0,0-.77.27.88.88,0,0,0-.32.7.91.91,0,0,0,.28.67,1,1,0,0,0,.74.27,2.22,2.22,0,0,0,1.53-.68Z" transform="translate(-37.17 -159.22)"/><path d="M772.76,389.65v-6.17h-1v-1h2.12v7.16h.87v1h-3v-1Z" transform="translate(-37.17 -159.22)"/></g></svg>