<svg xmlns="http://www.w3.org/2000/svg" viewBox="0 0 665.3 254.72"><defs><style>.cls-1,.cls-2,.cls-3,.cls-4,.cls-8,.cls-9{fill:none;}.cls-1,.cls-11,.cls-12,.cls-14,.cls-7{stroke:#000;}.cls-1,.cls-11,.cls-12,.cls-13,.cls-14,.cls-2,.cls-3,.cls-4,.cls-6,.cls-7,.cls-8,.cls-9{stroke-miterlimit:10;}.cls-1,.cls-3,.cls-4,.cls-6,.cls-7,.cls-8{stroke-width:12px;}.cls-2,.cls-4{stroke:#33b44a;}.cls-2{stroke-width:7px;}.cls-3{stroke:#6cc;}.cls-5{fill:#ff00c9;}.cls-6,.cls-7{fill:#f4eb88;}.cls-6,.cls-8{stroke:#5cbccd;}.cls-9{stroke:#2e3192;stroke-width:2px;}.cls-10{fill:#33b44a;}.cls-11{fill:#3c0;}.cls-12,.cls-13{fill:#9cc;}.cls-13{stroke:#300;}.cls-14{fill:red;}</style></defs><g id="Calque_1" data-name="Calque 1"><polyline class="cls-1" points="561.98 127.91 593.78 128.06 644.99 128.06 644.99 1.96"/><path class="cls-2" d="M425.8,430.87l-.45,37.56-146.46.39,1.36-246.26c54.1.29,145.46,0,145.46,0s.06,15.67.11,34.35" transform="translate(-140.78 -217.61)"/><polyline class="cls-2" points="388.06 199.35 388.12 182.87 285.39 182.98 285.02 213.26"/><line class="cls-2" x1="388.01" y1="213.27" x2="388.06" y2="199.35"/><path class="cls-2" d="M527.73,256.91c.2-11.68.64-17.2.62-34.35,44.93.26,89-.26,133.94,0l-.77,243.61H528.66l.13-35.29" transform="translate(-140.78 -217.61)"/><path class="cls-2" d="M527.63,271.51c0-5.9,0-10.58.1-14.6" transform="translate(-140.78 -217.61)"/><path class="cls-2" d="M425.86,273c0,5.48,0,10.94,0,16,28.3-.09,73.46-.18,101.76-.28q0-8.6,0-17.21" transform="translate(-140.78 -217.61)"/><path class="cls-2" d="M425.82,256.91c0,4.74,0,9.68,0,14.6" transform="translate(-140.78 -217.61)"/><path class="cls-2" d="M441.61,302" transform="translate(-140.78 -217.61)"/><path class="cls-2" d="M460.06,302.76" transform="translate(-140.78 -217.61)"/><path class="cls-2" d="M506.18,219.57" transform="translate(-140.78 -217.61)"/><path class="cls-2" d="M511.22,222.56" transform="translate(-140.78 -217.61)"/><polyline class="cls-3" points="185.86 182.57 170.85 182.57 121.47 129.93"/><line class="cls-4" x1="491.98" y1="182.57" x2="185.86" y2="182.57"/><polyline class="cls-1" points="548.03 129.83 498.26 182.57 491.98 182.57"/><polyline class="cls-1" points="491.98 70.85 499.2 70.85 549.51 127.83"/><polyline class="cls-4" points="118.29 127.72 168.2 70.85 491.98 70.85"/><polyline class="cls-5" points="388.06 199.35 393.79 199.35 393.79 188.35 404.45 188.35 404.45 176.35 369.79 176.35 369.79 188.35 381.79 188.35 381.79 199.35 388.06 199.35"/><polygon class="cls-5" points="303.12 176.35 268.45 176.35 268.45 188.35 280.45 188.35 280.45 199.35 292.45 199.35 292.45 188.35 303.12 188.35 303.12 176.35"/><polygon class="cls-5" points="268.45 76.91 303.12 76.91 303.12 64.91 291.12 64.91 291.12 53.91 279.12 53.91 279.12 64.91 268.45 64.91 268.45 76.91"/><polygon class="cls-5" points="369.79 76.86 404.45 76.86 404.45 64.86 392.45 64.86 392.45 53.86 380.45 53.86 380.45 64.86 369.79 64.86 369.79 76.86"/><line class="cls-6" x1="70.69" y1="160.8" x2="70.69" y2="127.46"/><line class="cls-7" x1="598.13" y1="159.8" x2="598.13" y2="126.46"/><polygon class="cls-5" points="614.75 121.74 580.08 121.74 580.08 133.74 592.08 133.74 592.08 144.74 604.08 144.74 604.08 133.74 614.75 133.74 614.75 121.74"/><polyline class="cls-2" points="142.95 4.95 111.16 4.95 111.07 4.95"/><polyline class="cls-2" points="524.15 248.57 661.77 248.57 659.42 1.96"/><polyline class="cls-3" points="118.29 127.47 168.2 70.61 185.86 70.61"/><polygon class="cls-5" points="136.27 137.79 126.57 126.87 135.77 116.47 126.79 108.52 115.86 120.86 104.07 120.79 104 132.79 115.84 132.86 127.31 145.76 136.27 137.79"/><polyline class="cls-5" points="536.07 142.5 531.89 138.79 541.59 127.87 532.39 117.47 541.38 109.52 552.3 121.86 564.09 121.79 564.16 133.79 552.32 133.86 540.86 146.76 536.07 142.5"/><path class="cls-8" d="M167.56,345.44" transform="translate(-140.78 -217.61)"/><path class="cls-8" d="M167.56,345.44" transform="translate(-140.78 -217.61)"/><polyline class="cls-8" points="104.03 126.73 79.74 126.83 40.63 126.83 40.63 39.3"/><path class="cls-8" d="M160.27,400.74" transform="translate(-140.78 -217.61)"/><polygon class="cls-5" points="87.3 120.7 52.63 120.7 52.63 132.7 64.63 132.7 64.63 143.7 76.63 143.7 76.63 132.7 87.3 132.7 87.3 120.7"/><path class="cls-5" d="M704.9,345.44" transform="translate(-140.78 -217.61)"/><path class="cls-2" d="M425.71,444.39l.24-27.54" transform="translate(-140.78 -217.61)"/><rect class="cls-9" x="303.12" y="176.35" width="66.67" height="11.5"/><rect class="cls-9" x="303.12" y="64.63" width="66.67" height="11.5"/><path class="cls-10" d="M450.35,311v-9.17h-1.54v-1.53h9.48v3.69h-1.51v-2.16H452.2v3.62h3.95v1.53H452.2v4h1.56v1.53h-4.95V311Z" transform="translate(-140.78 -217.61)"/><path class="cls-10" d="M460.32,311v-5.53H459V304h3v7h1.32v1.49H459V311Zm-.24-9.91a1,1,0,0,1,.29-.7,1,1,0,0,1,.72-.3,1,1,0,0,1,1,1,1,1,0,0,1-1,1,.94.94,0,0,1-.71-.3A1,1,0,0,1,460.08,301.08Z" transform="translate(-140.78 -217.61)"/><path class="cls-10" d="M465.54,311v-9.25H464v-1.49h3.18V311h1.3v1.49H464V311Z" transform="translate(-140.78 -217.61)"/><path class="cls-10" d="M469.47,305.46V304h1.11v-1.31l1.67-1.53V304h1.57v1.49h-1.57v4.13a3.64,3.64,0,0,0,.11,1.22c.07.16.25.24.55.24a2.42,2.42,0,0,0,.91-.18v1.52a3.89,3.89,0,0,1-1.28.23,2,2,0,0,1-1.24-.34,1.41,1.41,0,0,1-.6-.85,8.74,8.74,0,0,1-.12-1.76v-4.21Z" transform="translate(-140.78 -217.61)"/><path class="cls-10" d="M476.47,311v-5.53h-1.72V304h3.05v1.92a3.46,3.46,0,0,1,.78-1.24,2.47,2.47,0,0,1,1.06-.65,5.62,5.62,0,0,1,1.53-.16h.44v1.69h-.34a5.36,5.36,0,0,0-1.9.25,1.7,1.7,0,0,0-.93.93,6.63,6.63,0,0,0-.3,2.41V311H480v1.49h-5.24V311Z" transform="translate(-140.78 -217.61)"/><path class="cls-10" d="M490.62,308.65h-7.16a3.13,3.13,0,0,0,.93,1.9,2.77,2.77,0,0,0,2,.73,3.25,3.25,0,0,0,2.77-1.4l1.48.65a4.46,4.46,0,0,1-1.88,1.65,5.57,5.57,0,0,1-2.4.54,4.87,4.87,0,0,1-3.34-1.21,4.17,4.17,0,0,1-1.38-3.29A4.22,4.22,0,0,1,483,305a4.39,4.39,0,0,1,3.09-1.27,4.59,4.59,0,0,1,3.11,1.24A4.82,4.82,0,0,1,490.62,308.65Zm-1.73-1.22a3,3,0,0,0-.93-1.62,2.57,2.57,0,0,0-1.85-.72,2.49,2.49,0,0,0-1.72.65,2.85,2.85,0,0,0-.87,1.69Z" transform="translate(-140.78 -217.61)"/><path class="cls-10" d="M500.05,311v-9.25h-1.67v-1.47h3.34V311h1.59v1.49h-4.93V311Z" transform="translate(-140.78 -217.61)"/><path class="cls-10" d="M450.68,385.25v-9.16h-1.55v-1.53h9.48v3.68H457.1v-2.15h-4.58v3.62h4v1.53h-4v4h1.57v1.53h-5v-1.53Z" transform="translate(-140.78 -217.61)"/><path class="cls-10" d="M460.64,385.3v-5.54h-1.32v-1.49h3v7h1.32v1.48h-4.31V385.3Zm-.23-9.92a1,1,0,0,1,.28-.7,1,1,0,0,1,.73-.3,1,1,0,0,1,.71.29.94.94,0,0,1,.3.71,1,1,0,0,1-.3.72,1,1,0,0,1-.71.29,1,1,0,0,1-.72-.3A.94.94,0,0,1,460.41,375.38Z" transform="translate(-140.78 -217.61)"/><path class="cls-10" d="M465.86,385.3V376h-1.51v-1.48h3.18V385.3h1.3v1.48h-4.48V385.3Z" transform="translate(-140.78 -217.61)"/><path class="cls-10" d="M469.79,379.76v-1.49h1.11V377l1.67-1.52v2.83h1.57v1.49h-1.57v4.13a4.08,4.08,0,0,0,.11,1.23c.07.15.26.23.55.23a2.42,2.42,0,0,0,.91-.18v1.52a3.57,3.57,0,0,1-1.28.23,2.07,2.07,0,0,1-1.24-.34,1.43,1.43,0,0,1-.6-.84,8.8,8.8,0,0,1-.12-1.76v-4.22Z" transform="translate(-140.78 -217.61)"/><path class="cls-10" d="M476.79,385.3v-5.54h-1.72v-1.49h3.05v1.92a3.35,3.35,0,0,1,.79-1.24,2.45,2.45,0,0,1,1.06-.65,6,6,0,0,1,1.52-.16h.44v1.69h-.33a5.67,5.67,0,0,0-1.91.25,1.7,1.7,0,0,0-.93.93,6.63,6.63,0,0,0-.3,2.41v1.88h1.85v1.48h-5.24V385.3Z" transform="translate(-140.78 -217.61)"/><path class="cls-10" d="M490.94,383h-7.16a3.11,3.11,0,0,0,.94,1.91,2.77,2.77,0,0,0,2,.73,3.24,3.24,0,0,0,2.77-1.41l1.48.65a4.45,4.45,0,0,1-1.87,1.66,5.61,5.61,0,0,1-2.41.54,4.91,4.91,0,0,1-3.34-1.22,4.14,4.14,0,0,1-1.38-3.28,4.24,4.24,0,0,1,1.35-3.23,4.41,4.41,0,0,1,3.1-1.26,4.57,4.57,0,0,1,3.1,1.23A4.83,4.83,0,0,1,490.94,383Zm-1.72-1.21a3,3,0,0,0-.94-1.62,2.54,2.54,0,0,0-1.85-.73,2.41,2.41,0,0,0-1.71.66,2.72,2.72,0,0,0-.87,1.69Z" transform="translate(-140.78 -217.61)"/><path class="cls-10" d="M504.76,382.41l-.12,4.37h-7.81a6.62,6.62,0,0,1,.45-2.42,6.25,6.25,0,0,1,1.27-2,19.39,19.39,0,0,1,2.51-2.09,7.07,7.07,0,0,0,1.45-1.31,2,2,0,0,0,.37-1.21,2,2,0,0,0-.53-1.4,2.35,2.35,0,0,0-3.09.08,3.16,3.16,0,0,0-.51,2c0,.24,0,.46,0,.67h-1.63v-.52a4.7,4.7,0,0,1,.94-3.11,3.4,3.4,0,0,1,2.76-1.12,3.84,3.84,0,0,1,2.81,1,3.16,3.16,0,0,1,1,2.36,3.12,3.12,0,0,1-.64,2,12,12,0,0,1-2.45,2.1,10.33,10.33,0,0,0-2.31,2,3.51,3.51,0,0,0-.64,1.39h4.61l.07-2.78Z" transform="translate(-140.78 -217.61)"/></g><g id="Calque_2" data-name="Calque 2"><rect class="cls-11" x="247.95" y="10.96" width="75.67" height="28.35"/><rect class="cls-12" x="23.33" y="159.62" width="93.71" height="37.69"/><path d="M394.13,247.62" transform="translate(-140.78 -217.61)"/><path d="M169.33,389v-6.11h-1v-1h2.91a7.54,7.54,0,0,1,1.92.18,1.93,1.93,0,0,1,1.07.82,2.66,2.66,0,0,1,.43,1.52,2.7,2.7,0,0,1-.28,1.25,2.13,2.13,0,0,1-.7.82,2.7,2.7,0,0,1-.95.35,10.2,10.2,0,0,1-1.58.09h-.57V389h1.06v1h-3.31v-1Zm1.23-3.08h.71a3,3,0,0,0,1.66-.34,1.42,1.42,0,0,0,.46-1.21,1.63,1.63,0,0,0-.24-.92,1.13,1.13,0,0,0-.61-.46,4.94,4.94,0,0,0-1.21-.1h-.77Z" transform="translate(-140.78 -217.61)"/><path d="M176.35,389v-3.69h-1.14v-1h2v1.28a2.2,2.2,0,0,1,.53-.83,1.59,1.59,0,0,1,.7-.43,3.9,3.9,0,0,1,1-.11h.29v1.13h-.22a3.42,3.42,0,0,0-1.27.17,1.09,1.09,0,0,0-.62.61,4.3,4.3,0,0,0-.2,1.61V389h1.23v1h-3.49v-1Z" transform="translate(-140.78 -217.61)"/><path d="M185.79,387.45H181a2,2,0,0,0,.62,1.27,1.85,1.85,0,0,0,1.32.48,2.16,2.16,0,0,0,1.84-.93l1,.43a2.94,2.94,0,0,1-1.25,1.1,3.75,3.75,0,0,1-1.61.36,3.25,3.25,0,0,1-2.22-.81,2.75,2.75,0,0,1-.92-2.19,2.83,2.83,0,0,1,.9-2.15,2.92,2.92,0,0,1,2.06-.84,3,3,0,0,1,2.07.82A3.24,3.24,0,0,1,185.79,387.45Zm-1.15-.81a2.06,2.06,0,0,0-.62-1.08,1.7,1.7,0,0,0-1.24-.49,1.63,1.63,0,0,0-1.14.44,1.85,1.85,0,0,0-.58,1.13Z" transform="translate(-140.78 -217.61)"/><path d="M186.72,390v-1.95h1v.19a.94.94,0,0,0,.43.66,1.55,1.55,0,0,0,.89.26,1.81,1.81,0,0,0,.87-.19.59.59,0,0,0,.32-.52A.51.51,0,0,0,190,388a3.85,3.85,0,0,0-1.06-.28,3.36,3.36,0,0,1-1.67-.64,1.45,1.45,0,0,1-.5-1.14,1.5,1.5,0,0,1,.55-1.19,2.08,2.08,0,0,1,1.43-.48,2.71,2.71,0,0,1,1.38.33v-.24h1v1.88h-1v-.35a1.46,1.46,0,0,0-1.31-.69,1.25,1.25,0,0,0-.72.19.57.57,0,0,0-.29.5.45.45,0,0,0,.26.45,5.46,5.46,0,0,0,1.13.25,6.41,6.41,0,0,1,1.24.3,1.64,1.64,0,0,1,.38,2.77,2.53,2.53,0,0,1-1.58.46,2.44,2.44,0,0,1-1.48-.41V390Z" transform="translate(-140.78 -217.61)"/><path d="M192.22,390v-1.95h1v.19a.91.91,0,0,0,.43.66,1.55,1.55,0,0,0,.89.26,1.74,1.74,0,0,0,.86-.19.57.57,0,0,0,.32-.52.5.5,0,0,0-.26-.48,3.85,3.85,0,0,0-1.06-.28,3.32,3.32,0,0,1-1.67-.64,1.42,1.42,0,0,1-.5-1.14,1.52,1.52,0,0,1,.54-1.19,2.09,2.09,0,0,1,1.44-.48,2.76,2.76,0,0,1,1.38.33v-.24h1v1.88h-1v-.35a1.47,1.47,0,0,0-1.31-.69,1.26,1.26,0,0,0-.73.19.56.56,0,0,0-.28.5.45.45,0,0,0,.26.45,5.32,5.32,0,0,0,1.12.25,6.55,6.55,0,0,1,1.25.3,1.62,1.62,0,0,1,.7.58,1.53,1.53,0,0,1,.28.93,1.49,1.49,0,0,1-.61,1.26,2.5,2.5,0,0,1-1.57.46,2.42,2.42,0,0,1-1.48-.41V390Z" transform="translate(-140.78 -217.61)"/><path d="M198.5,389v-3.69h-.88v-1h2V389h.88v1h-2.87v-1Zm-.16-6.61a.64.64,0,0,1,.19-.47.66.66,0,0,1,.48-.2.67.67,0,0,1,.48.2.62.62,0,0,1,.2.47.66.66,0,0,1-.2.48.66.66,0,0,1-.48.19.65.65,0,0,1-.48-.19A.68.68,0,0,1,198.34,382.4Z" transform="translate(-140.78 -217.61)"/><path d="M201.19,387.16a2.86,2.86,0,0,1,.86-2.15,3.08,3.08,0,0,1,4.22,0,3.1,3.1,0,0,1,0,4.33,2.9,2.9,0,0,1-2.1.83,2.93,2.93,0,0,1-2.13-.84A2.89,2.89,0,0,1,201.19,387.16Zm1.17,0a1.9,1.9,0,0,0,.53,1.38,1.8,1.8,0,0,0,2.56,0,2.06,2.06,0,0,0,0-2.74,1.74,1.74,0,0,0-1.28-.54,1.68,1.68,0,0,0-1.3.55A1.93,1.93,0,0,0,202.36,387.16Z" transform="translate(-140.78 -217.61)"/><path d="M210,384.33V385a3.48,3.48,0,0,1,2-.77,1.55,1.55,0,0,1,.91.26,1.22,1.22,0,0,1,.47.64,4.32,4.32,0,0,1,.11,1.1V389h1v1h-2.07v-3.71a1.24,1.24,0,0,0-.2-.84.63.63,0,0,0-.47-.2A2.86,2.86,0,0,0,210,386v3h1v1h-3.09v-1h1v-3.69h-1v-1Z" transform="translate(-140.78 -217.61)"/><path d="M223.17,387.13h-2.93l-.63,1.85h1v1h-3.21v-1h1l2.22-6.21h-1v-.92h4.16v.92h-1l2.28,6.21H226v1h-3.19v-1h1Zm-.3-.95-1.09-3.41h-.11l-1.13,3.41Z" transform="translate(-140.78 -217.61)"/><path d="M227.2,389v-3.69h-.95v-1h2.06V385a3.21,3.21,0,0,1,2-.8,1.35,1.35,0,0,1,1.34.88,3.44,3.44,0,0,1,2.06-.88,1.6,1.6,0,0,1,.91.24,1.23,1.23,0,0,1,.47.62,3.42,3.42,0,0,1,.13,1.1V389h1v1h-2.11v-3.6a3.86,3.86,0,0,0,0-.7.56.56,0,0,0-.22-.33.71.71,0,0,0-.43-.13,2.73,2.73,0,0,0-1.63.73v3h1v1h-2.09v-3.71a1.48,1.48,0,0,0-.16-.8.6.6,0,0,0-.55-.25,3,3,0,0,0-1.62.73v3h1v1h-3.12v-1Z" transform="translate(-140.78 -217.61)"/><path d="M236.7,387.16a2.86,2.86,0,0,1,.87-2.15,2.94,2.94,0,0,1,2.12-.84,3,3,0,0,1,2.1.83,3.1,3.1,0,0,1,0,4.33,2.9,2.9,0,0,1-2.1.83,2.93,2.93,0,0,1-2.13-.84A2.9,2.9,0,0,1,236.7,387.16Zm1.18,0a1.9,1.9,0,0,0,.53,1.38,1.8,1.8,0,0,0,2.56,0,1.89,1.89,0,0,0,.52-1.37,1.85,1.85,0,0,0-.53-1.37,1.7,1.7,0,0,0-1.27-.54,1.68,1.68,0,0,0-1.3.55A1.93,1.93,0,0,0,237.88,387.16Z" transform="translate(-140.78 -217.61)"/><path d="M245.56,384.33V385a3.48,3.48,0,0,1,2-.77,1.55,1.55,0,0,1,.91.26,1.22,1.22,0,0,1,.47.64,4.32,4.32,0,0,1,.11,1.1V389h1v1H247.9v-3.71a1.24,1.24,0,0,0-.2-.84.63.63,0,0,0-.47-.2,2.86,2.86,0,0,0-1.67.72v3h1v1h-3.09v-1h1v-3.69h-1v-1Z" transform="translate(-140.78 -217.61)"/><path d="M250.37,385.32v-1h.74v-.87l1.11-1v1.89h1.05v1h-1.05v2.75a2.62,2.62,0,0,0,.07.82c.05.1.17.15.37.15a1.61,1.61,0,0,0,.61-.11v1a2.6,2.6,0,0,1-.86.15,1.37,1.37,0,0,1-.82-.22,1,1,0,0,1-.4-.57,5.28,5.28,0,0,1-.08-1.17v-2.81Z" transform="translate(-140.78 -217.61)"/><rect class="cls-13" x="0.5" y="65.5" width="80.27" height="37.69"/><path d="M148.59,295.59v-6.11h-1.1v-1h3.15a11.47,11.47,0,0,1,2,.13,3.55,3.55,0,0,1,1.37.61,3.47,3.47,0,0,1,1.06,1.31,4.37,4.37,0,0,1,.39,1.89,5.25,5.25,0,0,1-.38,2.1,3,3,0,0,1-1,1.33,3.9,3.9,0,0,1-1.47.61,11.7,11.7,0,0,1-2.17.17h-3v-1Zm1.23,0h.65a8.59,8.59,0,0,0,1.71-.13,2.77,2.77,0,0,0,1.06-.46,2.29,2.29,0,0,0,.7-1,4,4,0,0,0,.27-1.54,3.38,3.38,0,0,0-.44-1.8,2.05,2.05,0,0,0-1.13-1,7,7,0,0,0-2.12-.23h-.7Z" transform="translate(-140.78 -217.61)"/><path d="M162.52,294.06h-4.77a2,2,0,0,0,.62,1.27,1.85,1.85,0,0,0,1.32.48,2.16,2.16,0,0,0,1.84-.93l1,.43a2.94,2.94,0,0,1-1.25,1.1,3.75,3.75,0,0,1-1.61.36,3.25,3.25,0,0,1-2.22-.81,2.75,2.75,0,0,1-.92-2.19,2.83,2.83,0,0,1,.9-2.15,2.91,2.91,0,0,1,2.06-.84,3,3,0,0,1,2.07.82A3.24,3.24,0,0,1,162.52,294.06Zm-1.15-.81a2.06,2.06,0,0,0-.62-1.08,1.7,1.7,0,0,0-1.24-.49,1.61,1.61,0,0,0-1.14.44,1.85,1.85,0,0,0-.58,1.13Zm-2.72-3.06.83-1.86h1.62l-1.7,1.86Z" transform="translate(-140.78 -217.61)"/><path d="M163.28,296.61v-1h1v-6.17h-1v-1h2.1v3.28a2.6,2.6,0,0,1,2.05-1,2.66,2.66,0,0,1,2,.81,2.87,2.87,0,0,1,.79,2.12,3.12,3.12,0,0,1-.77,2.13,2.55,2.55,0,0,1-2,.86,2.62,2.62,0,0,1-1.25-.29,2.08,2.08,0,0,1-.8-.65v.85Zm2.13-2.82a1.85,1.85,0,0,0,.54,1.4,1.74,1.74,0,0,0,1.25.52,1.77,1.77,0,0,0,1.29-.55,2,2,0,0,0,.54-1.48,1.79,1.79,0,0,0-.54-1.39,1.81,1.81,0,0,0-1.26-.5,1.78,1.78,0,0,0-1.26.52A1.91,1.91,0,0,0,165.41,293.79Z" transform="translate(-140.78 -217.61)"/><path d="M172,295.62v-3.69h-.87v-1h2v4.68H174v1h-2.87v-1Zm-.15-6.61a.64.64,0,0,1,.19-.47.63.63,0,0,1,.48-.2.65.65,0,0,1,.47.2.6.6,0,0,1,.2.47.62.62,0,0,1-.2.48.64.64,0,0,1-.47.19.65.65,0,0,1-.48-.19A.68.68,0,0,1,171.83,289Z" transform="translate(-140.78 -217.61)"/><path d="M174.58,291.93v-1h.74v-.87l1.11-1v1.89h1v1h-1v2.75a2.5,2.5,0,0,0,.08.82c0,.1.17.16.36.16a1.62,1.62,0,0,0,.61-.12v1a2.54,2.54,0,0,1-.85.15,1.4,1.4,0,0,1-.83-.22,1,1,0,0,1-.4-.57,6,6,0,0,1-.08-1.17v-2.81Z" transform="translate(-140.78 -217.61)"/><path d="M186.52,293.75h-2.93l-.62,1.84h1v1h-3.22v-1h1l2.23-6.21h-1v-.92h4.17v.92h-1l2.28,6.21h.91v1h-3.19v-1h1Zm-.3-1-1.09-3.41H185l-1.13,3.41Z" transform="translate(-140.78 -217.61)"/><path d="M190.55,295.62v-3.69h-1v-1h2.06v.71a3.21,3.21,0,0,1,2-.8,1.34,1.34,0,0,1,1.34.89,3.42,3.42,0,0,1,2.06-.89,1.6,1.6,0,0,1,.91.24,1.25,1.25,0,0,1,.48.62,3.79,3.79,0,0,1,.12,1.1v2.81h1v1h-2.1V293a3.63,3.63,0,0,0-.05-.7.56.56,0,0,0-.22-.33.69.69,0,0,0-.43-.13,2.68,2.68,0,0,0-1.62.73v3h1v1H194V292.9a1.48,1.48,0,0,0-.16-.8.59.59,0,0,0-.54-.25,3,3,0,0,0-1.63.73v3h1v1h-3.13v-1Z" transform="translate(-140.78 -217.61)"/><path d="M200.06,293.77a2.89,2.89,0,0,1,.86-2.15,3.08,3.08,0,0,1,4.22,0,2.81,2.81,0,0,1,.88,2.16,2.85,2.85,0,0,1-.87,2.17,2.94,2.94,0,0,1-2.11.83,2.91,2.91,0,0,1-2.12-.84A2.86,2.86,0,0,1,200.06,293.77Zm1.17,0a1.9,1.9,0,0,0,.53,1.38,1.81,1.81,0,0,0,2.57,0,1.92,1.92,0,0,0,.51-1.37,1.89,1.89,0,0,0-.52-1.37,1.72,1.72,0,0,0-1.28-.54,1.69,1.69,0,0,0-1.3.55A1.93,1.93,0,0,0,201.23,293.77Z" transform="translate(-140.78 -217.61)"/><path d="M208.91,290.94v.68a3.5,3.5,0,0,1,2-.77,1.55,1.55,0,0,1,.91.26,1.21,1.21,0,0,1,.47.64,4.32,4.32,0,0,1,.11,1.1v2.77h1v1h-2.07V292.9a1.24,1.24,0,0,0-.2-.84.62.62,0,0,0-.47-.2,2.86,2.86,0,0,0-1.67.72v3h1v1H206.8v-1h1v-3.69h-1v-1Z" transform="translate(-140.78 -217.61)"/><path d="M213.72,291.93v-1h.74v-.87l1.11-1v1.89h1.05v1h-1.05v2.75a2.5,2.5,0,0,0,.08.82c0,.1.17.16.36.16a1.62,1.62,0,0,0,.61-.12v1a2.54,2.54,0,0,1-.85.15,1.4,1.4,0,0,1-.83-.22,1,1,0,0,1-.4-.57,6,6,0,0,1-.08-1.17v-2.81Z" transform="translate(-140.78 -217.61)"/><path d="M392.7,238.1V232h-1.05v-1h6.77v2.46h-1V232h-3.48v2.43h3v1h-3v2.66h3.48v-1.48h1v2.5h-6.77v-1Z" transform="translate(-140.78 -217.61)"/><path d="M400.07,238.13V232h-1v-1h2.12v7.16h.87v1h-3v-1Z" transform="translate(-140.78 -217.61)"/><path d="M408.76,236.57H404a2,2,0,0,0,.62,1.27,1.85,1.85,0,0,0,1.32.49,2.17,2.17,0,0,0,1.84-.94l1,.43a3,3,0,0,1-1.25,1.11,3.75,3.75,0,0,1-1.61.36,3.21,3.21,0,0,1-2.22-.82,2.74,2.74,0,0,1-.92-2.18,2.82,2.82,0,0,1,.9-2.15,2.89,2.89,0,0,1,2.06-.85,3.05,3.05,0,0,1,2.07.83A3.2,3.2,0,0,1,408.76,236.57Zm-1.15-.81a2.06,2.06,0,0,0-.62-1.08,1.75,1.75,0,0,0-1.24-.49,1.63,1.63,0,0,0-1.14.44,1.85,1.85,0,0,0-.58,1.13Z" transform="translate(-140.78 -217.61)"/><path d="M415,233.45v2.14h-1a1.35,1.35,0,0,0-.5-.94,1.6,1.6,0,0,0-1-.33,1.56,1.56,0,0,0-1.22.53,2.06,2.06,0,0,0-.47,1.4,2.33,2.33,0,0,0,.45,1.41,1.47,1.47,0,0,0,1.29.61,1.75,1.75,0,0,0,1.69-1.11l.92.43a2.69,2.69,0,0,1-2.66,1.7,2.62,2.62,0,0,1-2.12-.92,3.19,3.19,0,0,1-.78-2.12,2.86,2.86,0,0,1,.85-2.12,2.67,2.67,0,0,1,1.94-.84,2.4,2.4,0,0,1,1.6.56v-.4Z" transform="translate(-140.78 -217.61)"/><path d="M415.82,234.44v-1h.74v-.87l1.11-1v1.89h1.05v1h-1.05v2.75a2.58,2.58,0,0,0,.07.82c.05.11.17.16.37.16a1.62,1.62,0,0,0,.61-.12v1a2.38,2.38,0,0,1-.86.16A1.37,1.37,0,0,1,417,239a.91.91,0,0,1-.4-.57,5.28,5.28,0,0,1-.08-1.17v-2.81Z" transform="translate(-140.78 -217.61)"/><path d="M420.48,238.13v-3.69h-1.14v-1h2v1.28a2.4,2.4,0,0,1,.52-.83,1.68,1.68,0,0,1,.71-.43,3.9,3.9,0,0,1,1-.11h.29v1.13h-.22a3.42,3.42,0,0,0-1.27.17,1.11,1.11,0,0,0-.62.62,4.16,4.16,0,0,0-.21,1.6v1.25h1.24v1h-3.49v-1Z" transform="translate(-140.78 -217.61)"/><path d="M424.06,236.29a2.86,2.86,0,0,1,.86-2.16,3.08,3.08,0,0,1,4.22,0,3.1,3.1,0,0,1,0,4.33,3,3,0,0,1-5.08-2.16Zm1.17,0a1.9,1.9,0,0,0,.53,1.38,1.71,1.71,0,0,0,1.28.54,1.67,1.67,0,0,0,1.28-.55,2.06,2.06,0,0,0,0-2.74,1.74,1.74,0,0,0-1.28-.54,1.68,1.68,0,0,0-1.3.55A1.93,1.93,0,0,0,425.23,236.28Z" transform="translate(-140.78 -217.61)"/><path d="M432.83,239.22,431,234.44h-1v-1h2.86v1h-.74l1.22,3.22,1.22-3.22h-.78v-1h2.77v1h-.87l-1.81,4.78Z" transform="translate(-140.78 -217.61)"/><path d="M442.54,238.13v1h-2v-.69a2.55,2.55,0,0,1-1.8.79,2,2,0,0,1-1.35-.51,1.63,1.63,0,0,1-.57-1.29,1.65,1.65,0,0,1,.61-1.31,2.14,2.14,0,0,1,1.46-.52,2.81,2.81,0,0,1,1.54.48v-.56a2.3,2.3,0,0,0-.08-.67.86.86,0,0,0-.39-.42,1.41,1.41,0,0,0-.78-.19,1.29,1.29,0,0,0-1.22.67l-1.06-.28a2.53,2.53,0,0,1,2.45-1.33,3.3,3.3,0,0,1,1.1.17,1.66,1.66,0,0,1,.69.45,1.35,1.35,0,0,1,.31.59,4.77,4.77,0,0,1,.08,1v2.62ZM440.48,237a2.39,2.39,0,0,0-1.46-.56,1.11,1.11,0,0,0-.77.27.87.87,0,0,0-.31.7.88.88,0,0,0,.27.66,1,1,0,0,0,.74.27,2.18,2.18,0,0,0,1.53-.68Z" transform="translate(-140.78 -217.61)"/><path d="M445.12,233.45v.69a3.43,3.43,0,0,1,2-.78,1.55,1.55,0,0,1,.91.26,1.21,1.21,0,0,1,.47.64,4.35,4.35,0,0,1,.11,1.11v2.76h1v1h-2.07v-3.71a1.24,1.24,0,0,0-.2-.84.61.61,0,0,0-.47-.19,2.86,2.86,0,0,0-1.67.72v3h1v1H443v-1h1v-3.69h-1v-1Z" transform="translate(-140.78 -217.61)"/><path d="M452,233.45v.69a3.43,3.43,0,0,1,2-.78,1.55,1.55,0,0,1,.91.26,1.26,1.26,0,0,1,.47.64,4.35,4.35,0,0,1,.11,1.11v2.76h1v1h-2.07v-3.71a1.24,1.24,0,0,0-.2-.84.63.63,0,0,0-.47-.19,2.86,2.86,0,0,0-1.67.72v3h1v1h-3.09v-1h1v-3.69h-1v-1Z" transform="translate(-140.78 -217.61)"/><path d="M462.88,236.57h-4.77a2.1,2.1,0,0,0,.62,1.27,1.85,1.85,0,0,0,1.32.49,2.19,2.19,0,0,0,1.85-.94l1,.43a3,3,0,0,1-1.25,1.11,3.74,3.74,0,0,1-1.6.36,3.24,3.24,0,0,1-2.23-.82,2.77,2.77,0,0,1-.92-2.18,2.82,2.82,0,0,1,.9-2.15,2.91,2.91,0,0,1,2.06-.85,3.06,3.06,0,0,1,2.08.83A3.2,3.2,0,0,1,462.88,236.57Zm-1.15-.81a2,2,0,0,0-.62-1.08,1.75,1.75,0,0,0-1.24-.49,1.65,1.65,0,0,0-1.14.44,1.85,1.85,0,0,0-.58,1.13Z" transform="translate(-140.78 -217.61)"/><path d="M401.54,252.5v-6.11h-1.16v-1h2.78l3.58,6.34v-5.32h-1.16v-1h3.35v1h-1.2v7.21h-1.27l-3.91-6.95v5.85h1.17v1h-3.34v-1Z" transform="translate(-140.78 -217.61)"/><path d="M411.79,252.53v-6.17h-1.11v-1h2.23v7.15H414v1h-3.29v-1Z" transform="translate(-140.78 -217.61)"/><path d="M424.14,250.66H421.2l-.62,1.84h1v1h-3.21v-1h1l2.22-6.21h-1v-.92h4.16v.92h-1L426,252.5h.92v1h-3.2v-1h1Zm-.31-1-1.08-3.41h-.11l-1.13,3.41Z" transform="translate(-140.78 -217.61)"/><path d="M428.16,252.53v-3.69h-.94v-1h2.06v.72a3.15,3.15,0,0,1,2-.81,1.35,1.35,0,0,1,1.34.89,3.38,3.38,0,0,1,2.06-.89,1.48,1.48,0,0,1,.9.25,1.14,1.14,0,0,1,.48.61,3.78,3.78,0,0,1,.13,1.1v2.81h1v1H435v-3.6a3.86,3.86,0,0,0,0-.7.61.61,0,0,0-.22-.33.72.72,0,0,0-.44-.13,2.73,2.73,0,0,0-1.62.73v3h1v1h-2.08v-3.71a1.57,1.57,0,0,0-.16-.8.6.6,0,0,0-.55-.25,3,3,0,0,0-1.62.73v3h1v1h-3.12v-1Z" transform="translate(-140.78 -217.61)"/><path d="M437.67,250.69a2.87,2.87,0,0,1,.87-2.16,2.93,2.93,0,0,1,2.12-.84,3,3,0,0,1,2.1.83,2.87,2.87,0,0,1,.88,2.17,2.81,2.81,0,0,1-.88,2.16,3,3,0,0,1-5.09-2.16Zm1.18,0a1.94,1.94,0,0,0,.52,1.38,1.73,1.73,0,0,0,1.29.54,1.67,1.67,0,0,0,1.28-.55,1.87,1.87,0,0,0,.52-1.37,1.89,1.89,0,0,0-.53-1.37,1.7,1.7,0,0,0-1.27-.54,1.68,1.68,0,0,0-1.3.55A1.93,1.93,0,0,0,438.85,250.68Z" transform="translate(-140.78 -217.61)"/><path d="M446.53,247.85v.69a3.4,3.4,0,0,1,2-.78,1.53,1.53,0,0,1,.91.26,1.29,1.29,0,0,1,.48.64,4.35,4.35,0,0,1,.11,1.11v2.76h.95v1h-2.07v-3.71a1.25,1.25,0,0,0-.19-.84.64.64,0,0,0-.47-.19,2.84,2.84,0,0,0-1.67.72v3h1v1h-3.08v-1h1v-3.69h-1v-1Z" transform="translate(-140.78 -217.61)"/><path d="M451.34,248.84v-1h.73V247l1.12-1v1.89h1.05v1h-1.05v2.75a2.58,2.58,0,0,0,.07.82c.05.11.17.16.37.16a1.66,1.66,0,0,0,.61-.12v1a2.38,2.38,0,0,1-.86.16,1.37,1.37,0,0,1-.82-.23.91.91,0,0,1-.4-.56,5.28,5.28,0,0,1-.09-1.18v-2.81Z" transform="translate(-140.78 -217.61)"/><rect class="cls-11" x="349.74" y="10.96" width="75.67" height="28.35"/><path d="M494.52,238.27v-6.11h-1.06v-1h6.78v2.46h-1v-1.44h-3.48v2.43h3v1h-3v2.67h3.48v-1.48h1v2.5h-6.78v-1Z" transform="translate(-140.78 -217.61)"/><path d="M501.88,238.3v-6.17h-1v-1H503v7.16h.86v1h-3v-1Z" transform="translate(-140.78 -217.61)"/><path d="M510.57,236.74H505.8a2.1,2.1,0,0,0,.62,1.27,1.88,1.88,0,0,0,1.32.48,2.17,2.17,0,0,0,1.85-.93l1,.43a2.88,2.88,0,0,1-1.25,1.1,3.7,3.7,0,0,1-1.6.36,3.23,3.23,0,0,1-2.22-.81,2.76,2.76,0,0,1-.93-2.19,2.83,2.83,0,0,1,.9-2.15,3,3,0,0,1,2.07-.84,3,3,0,0,1,2.07.82A3.2,3.2,0,0,1,510.57,236.74Zm-1.15-.81a1.94,1.94,0,0,0-.62-1.08,1.76,1.76,0,0,0-2.38,0,1.9,1.9,0,0,0-.58,1.13Z" transform="translate(-140.78 -217.61)"/><path d="M516.82,233.62v2.14h-1a1.31,1.31,0,0,0-.5-.94,1.65,1.65,0,0,0-2.2.2,2,2,0,0,0-.47,1.39,2.39,2.39,0,0,0,.44,1.42,1.5,1.5,0,0,0,1.29.61,1.77,1.77,0,0,0,1.7-1.11l.92.43a2.7,2.7,0,0,1-2.67,1.69,2.62,2.62,0,0,1-2.12-.92,3.22,3.22,0,0,1-.77-2.12,2.84,2.84,0,0,1,.84-2.11,2.69,2.69,0,0,1,2-.84,2.36,2.36,0,0,1,1.59.56v-.4Z" transform="translate(-140.78 -217.61)"/><path d="M517.63,234.61v-1h.74v-.87l1.12-1v1.89h1v1h-1v2.75a2.62,2.62,0,0,0,.07.82.37.37,0,0,0,.36.16,1.62,1.62,0,0,0,.61-.12v1a2.54,2.54,0,0,1-.85.15,1.4,1.4,0,0,1-.83-.22,1,1,0,0,1-.4-.57,6,6,0,0,1-.08-1.17v-2.81Z" transform="translate(-140.78 -217.61)"/><path d="M522.3,238.3v-3.69h-1.14v-1h2v1.28a2.18,2.18,0,0,1,.52-.83,1.62,1.62,0,0,1,.71-.43,3.77,3.77,0,0,1,1-.11h.3v1.13h-.23a3.45,3.45,0,0,0-1.27.17,1.16,1.16,0,0,0-.62.61,4.53,4.53,0,0,0-.2,1.61v1.25h1.24v1h-3.49v-1Z" transform="translate(-140.78 -217.61)"/><path d="M525.87,236.45a2.86,2.86,0,0,1,.87-2.15,2.92,2.92,0,0,1,2.11-.84,3,3,0,0,1,2.11.83,3.1,3.1,0,0,1,0,4.33,3,3,0,0,1-5.09-2.17Zm1.18,0a1.89,1.89,0,0,0,.52,1.38,1.81,1.81,0,0,0,2.57,0,2.05,2.05,0,0,0,0-2.74,1.72,1.72,0,0,0-1.28-.54,1.67,1.67,0,0,0-1.29.55A1.93,1.93,0,0,0,527.05,236.45Z" transform="translate(-140.78 -217.61)"/><path d="M534.65,239.38l-1.86-4.77h-1v-1h2.85v1h-.73l1.22,3.22,1.22-3.22h-.79v-1h2.77v1h-.87l-1.81,4.77Z" transform="translate(-140.78 -217.61)"/><path d="M544.35,238.3v1h-1.94v-.69a2.54,2.54,0,0,1-1.81.78,1.94,1.94,0,0,1-1.34-.5,1.74,1.74,0,0,1,0-2.6,2.16,2.16,0,0,1,1.46-.52,2.82,2.82,0,0,1,1.55.48v-.56a1.92,1.92,0,0,0-.09-.67.79.79,0,0,0-.38-.42,1.42,1.42,0,0,0-.79-.19,1.27,1.27,0,0,0-1.21.67l-1.07-.29a2.55,2.55,0,0,1,2.45-1.32,3.32,3.32,0,0,1,1.11.17,1.66,1.66,0,0,1,.69.45,1.46,1.46,0,0,1,.31.59,4.7,4.7,0,0,1,.08,1v2.62Zm-2.05-1.12a2.39,2.39,0,0,0-1.46-.56,1.16,1.16,0,0,0-.78.27.9.9,0,0,0-.31.7.87.87,0,0,0,.28.66,1,1,0,0,0,.74.27,2.18,2.18,0,0,0,1.53-.68Z" transform="translate(-140.78 -217.61)"/><path d="M546.94,233.62v.68a3.45,3.45,0,0,1,1.95-.77,1.53,1.53,0,0,1,.91.26,1.29,1.29,0,0,1,.48.64,4.32,4.32,0,0,1,.11,1.1v2.77h1v1h-2.07v-3.71a1.25,1.25,0,0,0-.19-.84.65.65,0,0,0-.47-.2,2.8,2.8,0,0,0-1.67.73v3h1v1h-3.08v-1h1v-3.69h-1v-1Z" transform="translate(-140.78 -217.61)"/><path d="M553.82,233.62v.68a3.45,3.45,0,0,1,1.95-.77,1.53,1.53,0,0,1,.91.26,1.29,1.29,0,0,1,.48.64,4.32,4.32,0,0,1,.11,1.1v2.77h1v1h-2.07v-3.71a1.25,1.25,0,0,0-.19-.84.65.65,0,0,0-.47-.2,2.8,2.8,0,0,0-1.67.73v3h1v1h-3.08v-1h1v-3.69h-1v-1Z" transform="translate(-140.78 -217.61)"/><path d="M564.7,236.74h-4.77a2,2,0,0,0,.62,1.27,1.85,1.85,0,0,0,1.32.48,2.16,2.16,0,0,0,1.84-.93l1,.43a2.94,2.94,0,0,1-1.25,1.1,3.75,3.75,0,0,1-1.61.36,3.25,3.25,0,0,1-2.22-.81,2.75,2.75,0,0,1-.92-2.19,2.83,2.83,0,0,1,.9-2.15,2.92,2.92,0,0,1,2.06-.84,3,3,0,0,1,2.07.82A3.24,3.24,0,0,1,564.7,236.74Zm-1.15-.81a2.06,2.06,0,0,0-.62-1.08,1.7,1.7,0,0,0-1.24-.49,1.61,1.61,0,0,0-1.14.44,1.85,1.85,0,0,0-.58,1.13Z" transform="translate(-140.78 -217.61)"/><path d="M509.36,252.67v-6.11h-1.17v-1H511l3.57,6.34v-5.32H513.4v-1h3.34v1h-1.2v7.21h-1.26l-3.91-7v5.85h1.16v1h-3.34v-1Z" transform="translate(-140.78 -217.61)"/><path d="M519.61,252.7v-6.17h-1.12v-1h2.23v7.15h1.06v1h-3.29v-1Z" transform="translate(-140.78 -217.61)"/><path d="M532,250.83H529l-.62,1.84h1v1h-3.21v-1h1l2.23-6.21h-1v-.92h4.17v.92h-1l2.28,6.21h.91v1h-3.19v-1h1Zm-.31-1-1.08-3.41h-.12l-1.13,3.41Z" transform="translate(-140.78 -217.61)"/><path d="M536.76,253.78,534.91,249h-1v-1h2.85v1H536l1.22,3.22,1.23-3.22h-.79v-1h2.77v1h-.87l-1.81,4.77Z" transform="translate(-140.78 -217.61)"/><path d="M546.47,252.7v1h-2V253a2.54,2.54,0,0,1-1.8.78,2,2,0,0,1-1.35-.5,1.73,1.73,0,0,1,0-2.6,2.14,2.14,0,0,1,1.46-.52,2.81,2.81,0,0,1,1.54.48v-.56a2.25,2.25,0,0,0-.08-.67A.84.84,0,0,0,544,249a1.47,1.47,0,0,0-.79-.19,1.29,1.29,0,0,0-1.22.67l-1.06-.28a2.53,2.53,0,0,1,2.45-1.33,3.3,3.3,0,0,1,1.1.17,1.77,1.77,0,0,1,.7.45,1.44,1.44,0,0,1,.3.59,4.12,4.12,0,0,1,.08,1v2.62Zm-2.06-1.12A2.39,2.39,0,0,0,543,251a1.13,1.13,0,0,0-.77.27.87.87,0,0,0-.31.7.9.9,0,0,0,.27.66,1,1,0,0,0,.74.27,2.18,2.18,0,0,0,1.53-.68Z" transform="translate(-140.78 -217.61)"/><path d="M547.87,252.7v-6.17h-1v-1H549v7.16h.87v1h-3v-1Z" transform="translate(-140.78 -217.61)"/><rect class="cls-14" x="182.96" y="56.68" width="75.67" height="26.54"/><path d="M327.69,283.44v-6.11h-1.05v-1h6.77v2.45h-1v-1.43h-3.48v2.42h3v1h-3v2.67h3.48V282h1v2.5h-6.77v-1Z" transform="translate(-140.78 -217.61)"/><path d="M335.06,283.47V277.3h-1v-1h2.12v7.16H337v1h-3v-1Z" transform="translate(-140.78 -217.61)"/><path d="M343.75,281.9H339a2,2,0,0,0,.62,1.27,1.81,1.81,0,0,0,1.32.49,2.13,2.13,0,0,0,1.84-.94l1,.44a3,3,0,0,1-1.25,1.1,3.75,3.75,0,0,1-1.61.36,3.27,3.27,0,0,1-2.22-.81,2.78,2.78,0,0,1-.92-2.19,2.82,2.82,0,0,1,.9-2.15,2.94,2.94,0,0,1,2.06-.84,3,3,0,0,1,2.07.82A3.23,3.23,0,0,1,343.75,281.9Zm-1.15-.81A2.14,2.14,0,0,0,342,280a1.74,1.74,0,0,0-1.24-.48,1.65,1.65,0,0,0-1.14.44,1.82,1.82,0,0,0-.58,1.12Z" transform="translate(-140.78 -217.61)"/><path d="M350,278.79v2.14h-1a1.35,1.35,0,0,0-.5-.94,1.6,1.6,0,0,0-1-.33,1.56,1.56,0,0,0-1.22.53,2,2,0,0,0-.47,1.39,2.33,2.33,0,0,0,.45,1.42,1.5,1.5,0,0,0,1.29.61,1.78,1.78,0,0,0,1.7-1.11l.92.43a2.7,2.7,0,0,1-2.67,1.69,2.59,2.59,0,0,1-2.12-.92,3.17,3.17,0,0,1-.77-2.12,2.88,2.88,0,0,1,.84-2.12,2.7,2.7,0,0,1,1.94-.83,2.39,2.39,0,0,1,1.6.55v-.39Z" transform="translate(-140.78 -217.61)"/><path d="M350.81,279.78v-1h.74v-.88l1.11-1v1.9h1v1h-1v2.75a2.66,2.66,0,0,0,.07.82c0,.1.17.15.37.15a1.83,1.83,0,0,0,.61-.11v1a2.6,2.6,0,0,1-.86.15,1.37,1.37,0,0,1-.82-.22,1,1,0,0,1-.4-.57,5.4,5.4,0,0,1-.08-1.17v-2.81Z" transform="translate(-140.78 -217.61)"/><path d="M355.47,283.47v-3.69h-1.14v-1h2v1.27a2.35,2.35,0,0,1,.52-.82,1.71,1.71,0,0,1,.71-.44,4,4,0,0,1,1-.1h.29v1.12h-.22a3.64,3.64,0,0,0-1.27.17,1.14,1.14,0,0,0-.62.62,4.3,4.3,0,0,0-.2,1.61v1.25h1.23v1h-3.49v-1Z" transform="translate(-140.78 -217.61)"/><path d="M359.05,281.62a2.89,2.89,0,0,1,.86-2.15,2.94,2.94,0,0,1,2.12-.84,2.9,2.9,0,0,1,2.1.83,2.81,2.81,0,0,1,.88,2.16,2.86,2.86,0,0,1-.87,2.17,3,3,0,0,1-2.11.83,2.91,2.91,0,0,1-2.12-.84A2.86,2.86,0,0,1,359.05,281.62Zm1.17,0a1.9,1.9,0,0,0,.53,1.38,1.75,1.75,0,0,0,1.28.53,1.73,1.73,0,0,0,1.29-.54,1.92,1.92,0,0,0,.51-1.37,1.87,1.87,0,0,0-.52-1.37,1.72,1.72,0,0,0-1.28-.54,1.69,1.69,0,0,0-1.3.55A1.91,1.91,0,0,0,360.22,281.62Z" transform="translate(-140.78 -217.61)"/><path d="M367.82,284.55,366,279.78h-1v-1h2.85v1h-.74L368.3,283l1.23-3.21h-.79v-1h2.77v1h-.87l-1.81,4.77Z" transform="translate(-140.78 -217.61)"/><path d="M377.53,283.47v1h-1.95v-.69a2.54,2.54,0,0,1-1.8.78,2,2,0,0,1-1.35-.5,1.66,1.66,0,0,1-.57-1.29,1.63,1.63,0,0,1,.61-1.31,2.15,2.15,0,0,1,1.46-.53,2.75,2.75,0,0,1,1.54.49v-.57a2.3,2.3,0,0,0-.08-.67.92.92,0,0,0-.38-.42,1.57,1.57,0,0,0-.79-.18,1.3,1.3,0,0,0-1.22.66l-1.06-.28a2.54,2.54,0,0,1,2.45-1.32,3.3,3.3,0,0,1,1.1.17,1.66,1.66,0,0,1,.7.45,1.4,1.4,0,0,1,.3.58,4.23,4.23,0,0,1,.08,1v2.63Zm-2.06-1.12a2.33,2.33,0,0,0-1.46-.56,1.13,1.13,0,0,0-.77.27.86.86,0,0,0-.31.69.9.9,0,0,0,.27.67,1,1,0,0,0,.74.27,2.22,2.22,0,0,0,1.53-.68Z" transform="translate(-140.78 -217.61)"/><path d="M380.11,278.79v.68a3.5,3.5,0,0,1,2-.77,1.53,1.53,0,0,1,.91.26,1.17,1.17,0,0,1,.47.64,3.91,3.91,0,0,1,.11,1.1v2.77h1v1h-2.07v-3.71a1.31,1.31,0,0,0-.19-.84.66.66,0,0,0-.48-.2,2.86,2.86,0,0,0-1.67.72v3h1v1H378v-1h1v-3.69h-1v-1Z" transform="translate(-140.78 -217.61)"/><path d="M387,278.79v.68a3.5,3.5,0,0,1,2-.77,1.55,1.55,0,0,1,.91.26,1.17,1.17,0,0,1,.47.64,4.32,4.32,0,0,1,.11,1.1v2.77h1v1h-2.07v-3.71a1.24,1.24,0,0,0-.2-.84.62.62,0,0,0-.47-.2,2.86,2.86,0,0,0-1.67.72v3h1v1h-3.09v-1h1v-3.69h-1v-1Z" transform="translate(-140.78 -217.61)"/><path d="M397.87,281.9H393.1a2,2,0,0,0,.62,1.27,1.84,1.84,0,0,0,1.32.49,2.16,2.16,0,0,0,1.85-.94l1,.44a3,3,0,0,1-1.25,1.1,3.7,3.7,0,0,1-1.6.36,3.28,3.28,0,0,1-2.23-.81,2.78,2.78,0,0,1-.92-2.19,2.82,2.82,0,0,1,.9-2.15,3,3,0,0,1,2.07-.84,3,3,0,0,1,2.07.82A3.19,3.19,0,0,1,397.87,281.9Zm-1.15-.81a2.07,2.07,0,0,0-.62-1.08,1.71,1.71,0,0,0-1.23-.48,1.65,1.65,0,0,0-1.15.44,1.87,1.87,0,0,0-.58,1.12Z" transform="translate(-140.78 -217.61)"/><path d="M336.69,297.84v-6.11h-1.05v-1h6.77v2.45h-1v-1.43h-3.48v2.42h3v1h-3v2.67h3.48v-1.48h1v2.5h-6.77v-1Z" transform="translate(-140.78 -217.61)"/><path d="M345.65,297.87V291.7h-1.11v-1h2.23v7.15h1.06v1h-3.29v-1Z" transform="translate(-140.78 -217.61)"/><path d="M358,296h-2.93l-.63,1.85h1v1h-3.21v-1h1l2.22-6.21h-1v-.92h4.16v.92h-1l2.29,6.21h.91v1h-3.2v-1h1Zm-.31-.95-1.08-3.41h-.11L355.37,295Z" transform="translate(-140.78 -217.61)"/><path d="M362,297.87v-3.69h-.94v-1h2.06v.71a3.21,3.21,0,0,1,2-.8,1.34,1.34,0,0,1,1.34.88,3.38,3.38,0,0,1,2.06-.88,1.6,1.6,0,0,1,.91.24,1.19,1.19,0,0,1,.47.62,3.73,3.73,0,0,1,.13,1.1v2.81h1v1H368.9v-3.61a3.81,3.81,0,0,0,0-.69.53.53,0,0,0-.22-.33.71.71,0,0,0-.43-.14,2.75,2.75,0,0,0-1.63.74v3h1v1h-2.08v-3.71a1.54,1.54,0,0,0-.16-.81.62.62,0,0,0-.55-.25,3,3,0,0,0-1.62.74v3h1v1H361v-1Z" transform="translate(-140.78 -217.61)"/><path d="M371.53,296a2.86,2.86,0,0,1,.87-2.15,3.08,3.08,0,0,1,4.22,0,3.1,3.1,0,0,1,0,4.33,3,3,0,0,1-5.09-2.17Zm1.18,0a1.9,1.9,0,0,0,.53,1.38,1.74,1.74,0,0,0,1.28.53,1.69,1.69,0,0,0,1.28-.54,2.05,2.05,0,0,0,0-2.74,1.7,1.7,0,0,0-1.27-.54,1.68,1.68,0,0,0-1.3.55A1.93,1.93,0,0,0,372.71,296Z" transform="translate(-140.78 -217.61)"/><path d="M380.39,293.19v.68a3.45,3.45,0,0,1,1.95-.77,1.59,1.59,0,0,1,.92.26,1.22,1.22,0,0,1,.47.64,4.32,4.32,0,0,1,.11,1.1v2.77h1v1h-2.07v-3.71a1.25,1.25,0,0,0-.19-.84.65.65,0,0,0-.47-.2,2.84,2.84,0,0,0-1.67.72v3h1v1h-3.09v-1h1v-3.69h-1v-1Z" transform="translate(-140.78 -217.61)"/><path d="M385.2,294.18v-1h.74v-.88l1.11-1v1.9h1.05v1h-1.05v2.75a2.66,2.66,0,0,0,.07.82c.05.1.17.15.37.15a1.83,1.83,0,0,0,.61-.11v1a2.6,2.6,0,0,1-.86.15,1.37,1.37,0,0,1-.82-.22,1,1,0,0,1-.4-.57,5.4,5.4,0,0,1-.08-1.17v-2.81Z" transform="translate(-140.78 -217.61)"/><polyline class="cls-14" points="491.98 182.57 491.98 196.52 416.31 196.52 416.31 168.18 491.98 168.18 491.98 182.57"/><rect class="cls-14" x="182.96" y="168.86" width="75.67" height="26.54"/><path d="M327,395.3v-6.11H326v-1h6.78v2.45h-1v-1.43h-3.48v2.42h3v1h-3v2.67h3.48v-1.48h1v2.5H326v-1Z" transform="translate(-140.78 -217.61)"/><path d="M334.38,395.33v-6.17h-1v-1h2.12v7.16h.86v1h-3v-1Z" transform="translate(-140.78 -217.61)"/><path d="M343.07,393.77H338.3a2.1,2.1,0,0,0,.62,1.27,1.88,1.88,0,0,0,1.32.48,2.18,2.18,0,0,0,1.85-.93l1,.43a2.88,2.88,0,0,1-1.25,1.1,3.7,3.7,0,0,1-1.6.36,3.23,3.23,0,0,1-2.22-.81,2.76,2.76,0,0,1-.93-2.19,2.83,2.83,0,0,1,.9-2.15,3,3,0,0,1,2.07-.84,3,3,0,0,1,2.07.82A3.2,3.2,0,0,1,343.07,393.77Zm-1.15-.81a1.94,1.94,0,0,0-.62-1.08,1.68,1.68,0,0,0-1.23-.49,1.65,1.65,0,0,0-1.15.44,1.9,1.9,0,0,0-.58,1.13Z" transform="translate(-140.78 -217.61)"/><path d="M349.32,390.65v2.14h-1a1.35,1.35,0,0,0-.5-.94,1.65,1.65,0,0,0-2.2.2,2,2,0,0,0-.47,1.39,2.39,2.39,0,0,0,.44,1.42,1.5,1.5,0,0,0,1.29.61,1.77,1.77,0,0,0,1.7-1.11l.92.43a2.7,2.7,0,0,1-2.67,1.69,2.62,2.62,0,0,1-2.12-.92,3.22,3.22,0,0,1-.77-2.12,2.88,2.88,0,0,1,.84-2.12,2.72,2.72,0,0,1,2-.83,2.36,2.36,0,0,1,1.59.56v-.4Z" transform="translate(-140.78 -217.61)"/><path d="M350.13,391.64v-1h.74v-.88l1.11-1v1.89h1v1h-1v2.75a2.5,2.5,0,0,0,.08.82q.07.15.36.15a1.61,1.61,0,0,0,.61-.11v1a2.54,2.54,0,0,1-.85.15,1.4,1.4,0,0,1-.83-.22,1,1,0,0,1-.4-.57,6,6,0,0,1-.08-1.17v-2.81Z" transform="translate(-140.78 -217.61)"/><path d="M354.8,395.33v-3.69h-1.15v-1h2v1.28a2.18,2.18,0,0,1,.52-.83,1.62,1.62,0,0,1,.71-.43,3.77,3.77,0,0,1,1-.11h.29v1.13H358a3.73,3.73,0,0,0-1.27.16,1.17,1.17,0,0,0-.62.62,4.53,4.53,0,0,0-.2,1.61v1.25h1.24v1h-3.5v-1Z" transform="translate(-140.78 -217.61)"/><path d="M358.37,393.48a2.86,2.86,0,0,1,.87-2.15,2.92,2.92,0,0,1,2.11-.84,3,3,0,0,1,2.11.83,3.1,3.1,0,0,1,0,4.33,3,3,0,0,1-5.09-2.17Zm1.18,0a1.89,1.89,0,0,0,.52,1.38,1.81,1.81,0,0,0,2.57,0,2.05,2.05,0,0,0,0-2.74,1.72,1.72,0,0,0-1.28-.54,1.67,1.67,0,0,0-1.29.55A1.93,1.93,0,0,0,359.55,393.48Z" transform="translate(-140.78 -217.61)"/><path d="M367.14,396.41l-1.85-4.77h-1v-1h2.85v1h-.73l1.22,3.21,1.22-3.21h-.79v-1h2.77v1H370l-1.81,4.77Z" transform="translate(-140.78 -217.61)"/><path d="M376.85,395.33v1h-1.94v-.69a2.54,2.54,0,0,1-1.81.78,1.94,1.94,0,0,1-1.34-.5,1.74,1.74,0,0,1,0-2.6,2.16,2.16,0,0,1,1.46-.52,2.82,2.82,0,0,1,1.55.48v-.57a1.9,1.9,0,0,0-.09-.66.85.85,0,0,0-.38-.43,1.52,1.52,0,0,0-.79-.18,1.27,1.27,0,0,0-1.21.67l-1.07-.29a2.54,2.54,0,0,1,2.45-1.32,3.32,3.32,0,0,1,1.11.17,1.66,1.66,0,0,1,.69.45,1.6,1.6,0,0,1,.31.59,4.66,4.66,0,0,1,.08,1v2.63Zm-2.05-1.12a2.42,2.42,0,0,0-1.46-.56,1.16,1.16,0,0,0-.78.27.94.94,0,0,0,0,1.36,1,1,0,0,0,.75.27,2.21,2.21,0,0,0,1.53-.68Z" transform="translate(-140.78 -217.61)"/><path d="M379.44,390.65v.68a3.45,3.45,0,0,1,1.95-.77,1.53,1.53,0,0,1,.91.26,1.24,1.24,0,0,1,.48.64,4.32,4.32,0,0,1,.11,1.1v2.77h.95v1h-2.07v-3.71a1.25,1.25,0,0,0-.19-.84.65.65,0,0,0-.47-.2,2.84,2.84,0,0,0-1.67.72v3h1v1h-3.08v-1h1v-3.69h-1v-1Z" transform="translate(-140.78 -217.61)"/><path d="M386.31,390.65v.68a3.5,3.5,0,0,1,2-.77,1.53,1.53,0,0,1,.91.26,1.17,1.17,0,0,1,.47.64,3.84,3.84,0,0,1,.12,1.1v2.77h1v1h-2.07v-3.71a1.25,1.25,0,0,0-.19-.84.66.66,0,0,0-.48-.2,2.89,2.89,0,0,0-1.67.72v3h1v1h-3.08v-1h1v-3.69h-1v-1Z" transform="translate(-140.78 -217.61)"/><path d="M397.2,393.77h-4.77a2,2,0,0,0,.62,1.27,1.85,1.85,0,0,0,1.32.48,2.16,2.16,0,0,0,1.84-.93l1,.43a2.94,2.94,0,0,1-1.25,1.1,3.75,3.75,0,0,1-1.61.36,3.23,3.23,0,0,1-2.22-.81,2.75,2.75,0,0,1-.92-2.19,2.86,2.86,0,0,1,.89-2.15,3,3,0,0,1,2.07-.84,3,3,0,0,1,2.07.82A3.24,3.24,0,0,1,397.2,393.77Zm-1.15-.81a2.06,2.06,0,0,0-.62-1.08,1.7,1.7,0,0,0-1.24-.49,1.61,1.61,0,0,0-1.14.44,1.85,1.85,0,0,0-.58,1.13Z" transform="translate(-140.78 -217.61)"/><path d="M336,409.7v-6.11H335v-1h6.78V405h-1v-1.43h-3.48V406h3v1h-3v2.67h3.48v-1.48h1v2.5H335v-1Z" transform="translate(-140.78 -217.61)"/><path d="M347.9,407.81l-.08,2.91h-5.2a4.38,4.38,0,0,1,.3-1.61,4,4,0,0,1,.85-1.34,12.16,12.16,0,0,1,1.67-1.4,4.84,4.84,0,0,0,1-.87,1.32,1.32,0,0,0,.25-.81,1.29,1.29,0,0,0-.35-.93,1.34,1.34,0,0,0-1-.36,1.32,1.32,0,0,0-1.07.41,2.11,2.11,0,0,0-.34,1.35c0,.16,0,.3,0,.44h-1.08c0-.14,0-.25,0-.34a3.12,3.12,0,0,1,.63-2.07,2.26,2.26,0,0,1,1.84-.75,2.58,2.58,0,0,1,1.88.64,2.14,2.14,0,0,1,.65,1.57,2.08,2.08,0,0,1-.43,1.33,8,8,0,0,1-1.63,1.4,6.84,6.84,0,0,0-1.54,1.35,2.23,2.23,0,0,0-.43.93h3.07l.05-1.85Z" transform="translate(-140.78 -217.61)"/><path d="M357.33,407.85h-2.94l-.62,1.85h1v1h-3.21v-1h1l2.23-6.21h-1v-.92h4.17v.92h-1l2.28,6.21h.91v1h-3.19v-1h1Zm-.31-1-1.09-3.41h-.11l-1.13,3.41Z" transform="translate(-140.78 -217.61)"/><path d="M361.35,409.73V406h-1v-1h2.06v.71a3.21,3.21,0,0,1,2-.8,1.34,1.34,0,0,1,1.34.89,3.42,3.42,0,0,1,2.06-.89,1.6,1.6,0,0,1,.91.24,1.25,1.25,0,0,1,.48.62,3.79,3.79,0,0,1,.12,1.1v2.81h1v1h-2.1v-3.6a3.63,3.63,0,0,0-.05-.7.56.56,0,0,0-.22-.33.69.69,0,0,0-.43-.13,2.68,2.68,0,0,0-1.62.73v3h1v1h-2.09V407a1.48,1.48,0,0,0-.16-.8.58.58,0,0,0-.54-.25,3,3,0,0,0-1.63.73v3h1v1h-3.13v-1Z" transform="translate(-140.78 -217.61)"/><path d="M370.86,407.88a2.89,2.89,0,0,1,.86-2.15,3.08,3.08,0,0,1,4.22,0,2.81,2.81,0,0,1,.88,2.16,2.86,2.86,0,0,1-.87,2.17,2.94,2.94,0,0,1-2.11.83,2.91,2.91,0,0,1-2.12-.84A2.86,2.86,0,0,1,370.86,407.88Zm1.18,0a1.89,1.89,0,0,0,.52,1.38,1.81,1.81,0,0,0,2.57,0,1.92,1.92,0,0,0,.51-1.37,1.89,1.89,0,0,0-.52-1.37,1.72,1.72,0,0,0-1.28-.54,1.66,1.66,0,0,0-1.29.55A1.93,1.93,0,0,0,372,407.88Z" transform="translate(-140.78 -217.61)"/><path d="M379.71,405.05v.68a3.5,3.5,0,0,1,2-.77,1.53,1.53,0,0,1,.91.26,1.21,1.21,0,0,1,.47.64,3.91,3.91,0,0,1,.11,1.1v2.77h1v1h-2.07V407a1.31,1.31,0,0,0-.19-.84.66.66,0,0,0-.48-.2,2.86,2.86,0,0,0-1.67.72v3h1v1H377.6v-1h1V406h-1v-1Z" transform="translate(-140.78 -217.61)"/><path d="M384.52,406v-1h.74v-.87l1.11-1v1.89h1.05v1h-1.05v2.75a2.5,2.5,0,0,0,.08.82.37.37,0,0,0,.36.16,1.62,1.62,0,0,0,.61-.12v1a2.54,2.54,0,0,1-.85.15,1.4,1.4,0,0,1-.83-.22,1,1,0,0,1-.4-.57,6,6,0,0,1-.08-1.17V406Z" transform="translate(-140.78 -217.61)"/><path d="M560.46,395.47v-6.11h-1.05v-1h6.77v2.45h-1v-1.43h-3.48v2.42h3v1h-3v2.67h3.48V394h1v2.5h-6.77v-1Z" transform="translate(-140.78 -217.61)"/><path d="M567.83,395.5v-6.17h-1v-1h2.12v7.16h.87v1h-3v-1Z" transform="translate(-140.78 -217.61)"/><path d="M576.52,393.93h-4.77a2.1,2.1,0,0,0,.62,1.28,1.85,1.85,0,0,0,1.32.48,2.13,2.13,0,0,0,1.84-.94l1,.44a3,3,0,0,1-1.25,1.1,3.75,3.75,0,0,1-1.61.36,3.27,3.27,0,0,1-2.22-.81,2.78,2.78,0,0,1-.92-2.19,2.82,2.82,0,0,1,.9-2.15,2.94,2.94,0,0,1,2.06-.84,3,3,0,0,1,2.07.82A3.23,3.23,0,0,1,576.52,393.93Zm-1.15-.81a2.14,2.14,0,0,0-.62-1.08,1.74,1.74,0,0,0-1.24-.48,1.65,1.65,0,0,0-1.14.44,1.82,1.82,0,0,0-.58,1.12Z" transform="translate(-140.78 -217.61)"/><path d="M582.76,390.82V393h-1a1.35,1.35,0,0,0-.5-.94,1.66,1.66,0,0,0-2.21.2,2,2,0,0,0-.47,1.39A2.33,2.33,0,0,0,579,395a1.5,1.5,0,0,0,1.29.61,1.78,1.78,0,0,0,1.7-1.11l.92.43a2.7,2.7,0,0,1-2.67,1.69,2.59,2.59,0,0,1-2.12-.92,3.17,3.17,0,0,1-.77-2.12,2.88,2.88,0,0,1,.84-2.12,2.7,2.7,0,0,1,1.94-.83,2.39,2.39,0,0,1,1.6.55v-.39Z" transform="translate(-140.78 -217.61)"/><path d="M583.58,391.81v-1h.74v-.88l1.11-1v1.9h1.05v1h-1.05v2.75a3,3,0,0,0,.07.82c0,.1.18.15.37.15a1.83,1.83,0,0,0,.61-.11v1a2.6,2.6,0,0,1-.86.15,1.37,1.37,0,0,1-.82-.22,1,1,0,0,1-.4-.57,5.4,5.4,0,0,1-.08-1.17v-2.81Z" transform="translate(-140.78 -217.61)"/><path d="M588.24,395.5v-3.69H587.1v-1h2v1.27a2.24,2.24,0,0,1,.53-.82,1.62,1.62,0,0,1,.7-.44,4,4,0,0,1,1-.1h.29v1.12h-.22a3.64,3.64,0,0,0-1.27.17,1.14,1.14,0,0,0-.62.62,4.3,4.3,0,0,0-.2,1.61v1.25h1.23v1H587.1v-1Z" transform="translate(-140.78 -217.61)"/><path d="M591.82,393.65a2.89,2.89,0,0,1,.86-2.15,2.94,2.94,0,0,1,2.12-.84,2.9,2.9,0,0,1,2.1.83,2.81,2.81,0,0,1,.88,2.16,2.86,2.86,0,0,1-.87,2.17,2.94,2.94,0,0,1-2.11.83,2.91,2.91,0,0,1-2.12-.84A2.86,2.86,0,0,1,591.82,393.65Zm1.18,0a1.89,1.89,0,0,0,.52,1.38,1.75,1.75,0,0,0,1.28.53,1.73,1.73,0,0,0,1.29-.54,1.92,1.92,0,0,0,.51-1.37,1.87,1.87,0,0,0-.52-1.37,1.72,1.72,0,0,0-1.28-.54,1.66,1.66,0,0,0-1.29.55A1.93,1.93,0,0,0,593,393.65Z" transform="translate(-140.78 -217.61)"/><path d="M600.59,396.58l-1.85-4.77h-1v-1h2.85v1h-.74l1.22,3.21,1.23-3.21h-.79v-1h2.77v1h-.87l-1.81,4.77Z" transform="translate(-140.78 -217.61)"/><path d="M610.3,395.5v1h-1.95v-.69a2.54,2.54,0,0,1-1.8.78,2,2,0,0,1-1.35-.5,1.66,1.66,0,0,1-.57-1.29,1.63,1.63,0,0,1,.61-1.31,2.14,2.14,0,0,1,1.46-.52,2.79,2.79,0,0,1,1.54.48v-.57a2.18,2.18,0,0,0-.08-.66.9.9,0,0,0-.38-.43,1.57,1.57,0,0,0-.79-.18,1.3,1.3,0,0,0-1.22.66l-1.06-.28a2.54,2.54,0,0,1,2.45-1.32,3.3,3.3,0,0,1,1.1.17,1.66,1.66,0,0,1,.7.45,1.38,1.38,0,0,1,.3.59,4.08,4.08,0,0,1,.08,1v2.63Zm-2.06-1.12a2.33,2.33,0,0,0-1.46-.56,1.13,1.13,0,0,0-.77.27.86.86,0,0,0-.31.69.9.9,0,0,0,.27.67,1,1,0,0,0,.74.27,2.22,2.22,0,0,0,1.53-.68Z" transform="translate(-140.78 -217.61)"/><path d="M612.88,390.82v.68a3.5,3.5,0,0,1,2-.77,1.53,1.53,0,0,1,.91.26,1.17,1.17,0,0,1,.47.64,3.91,3.91,0,0,1,.11,1.1v2.77h1v1h-2.07v-3.71a1.25,1.25,0,0,0-.19-.84.66.66,0,0,0-.48-.2,2.86,2.86,0,0,0-1.67.72v3h1v1h-3.09v-1h1v-3.69h-1v-1Z" transform="translate(-140.78 -217.61)"/><path d="M619.76,390.82v.68a3.5,3.5,0,0,1,2-.77,1.53,1.53,0,0,1,.91.26,1.17,1.17,0,0,1,.47.64,3.91,3.91,0,0,1,.11,1.1v2.77h1v1H622.1v-3.71a1.31,1.31,0,0,0-.19-.84.66.66,0,0,0-.48-.2,2.86,2.86,0,0,0-1.67.72v3h1v1h-3.09v-1h1v-3.69h-1v-1Z" transform="translate(-140.78 -217.61)"/><path d="M630.64,393.93h-4.77a2.1,2.1,0,0,0,.62,1.28,1.88,1.88,0,0,0,1.32.48,2.16,2.16,0,0,0,1.85-.94l1,.44a3,3,0,0,1-1.25,1.1,3.7,3.7,0,0,1-1.6.36,3.28,3.28,0,0,1-2.23-.81,2.78,2.78,0,0,1-.92-2.19,2.82,2.82,0,0,1,.9-2.15,3,3,0,0,1,2.07-.84,3,3,0,0,1,2.07.82A3.19,3.19,0,0,1,630.64,393.93Zm-1.15-.81a2,2,0,0,0-.62-1.08,1.71,1.71,0,0,0-1.23-.48,1.65,1.65,0,0,0-1.15.44,1.87,1.87,0,0,0-.58,1.12Z" transform="translate(-140.78 -217.61)"/><path d="M575.46,409.87v-6.11h-1.05v-1h6.77v2.45h-1v-1.43h-3.48v2.42h3v1h-3v2.67h3.48v-1.48h1v2.5h-6.77v-1Z" transform="translate(-140.78 -217.61)"/><path d="M587.35,408l-.08,2.91h-5.21a4.38,4.38,0,0,1,.3-1.61,4.18,4.18,0,0,1,.85-1.35,13.75,13.75,0,0,1,1.67-1.39,4.68,4.68,0,0,0,1-.87,1.39,1.39,0,0,0,.25-.81,1.26,1.26,0,0,0-.36-.93,1.31,1.31,0,0,0-1-.36,1.34,1.34,0,0,0-1.08.41,2.15,2.15,0,0,0-.34,1.35c0,.15,0,.3,0,.44h-1.09v-.34a3.14,3.14,0,0,1,.62-2.07,2.26,2.26,0,0,1,1.84-.75,2.55,2.55,0,0,1,1.88.64,2.08,2.08,0,0,1,.65,1.57,2.13,2.13,0,0,1-.42,1.33,8.11,8.11,0,0,1-1.64,1.4,6.8,6.8,0,0,0-1.54,1.35,2.32,2.32,0,0,0-.42.93h3.07l.05-1.85Z" transform="translate(-140.78 -217.61)"/><path d="M596.77,408h-2.93l-.63,1.85h1v1H591v-1h1l2.22-6.21h-1v-.92h4.16v.92h-1l2.28,6.21h.91v1h-3.2v-1h1Zm-.3-.95-1.09-3.41h-.11l-1.13,3.41Z" transform="translate(-140.78 -217.61)"/><path d="M601.58,411l-1.86-4.77h-1v-1h2.85v1h-.73l1.22,3.21,1.22-3.21h-.79v-1h2.77v1h-.87L602.58,411Z" transform="translate(-140.78 -217.61)"/><path d="M611.28,409.9v1h-1.94v-.69a2.54,2.54,0,0,1-1.81.78,2,2,0,0,1-1.34-.5,1.74,1.74,0,0,1,0-2.6,2.16,2.16,0,0,1,1.46-.52,2.82,2.82,0,0,1,1.55.48v-.57a1.86,1.86,0,0,0-.09-.66.85.85,0,0,0-.38-.43A1.52,1.52,0,0,0,608,406a1.28,1.28,0,0,0-1.21.66l-1.07-.28a2.55,2.55,0,0,1,2.45-1.32,3.32,3.32,0,0,1,1.11.17,1.66,1.66,0,0,1,.69.45,1.4,1.4,0,0,1,.31.59,4.66,4.66,0,0,1,.08,1v2.63Zm-2-1.12a2.33,2.33,0,0,0-1.46-.56,1.16,1.16,0,0,0-.78.27.9.9,0,0,0-.31.69.88.88,0,0,0,.28.67,1,1,0,0,0,.74.27,2.22,2.22,0,0,0,1.53-.68Z" transform="translate(-140.78 -217.61)"/><path d="M612.68,409.9v-6.17h-1v-1h2.12v7.16h.86v1h-3v-1Z" transform="translate(-140.78 -217.61)"/><polyline class="cls-11" points="285.78 213.27 323.62 213.27 323.62 241.62 247.95 241.62 247.95 213.27 285.78 213.27"/><polyline class="cls-11" points="388.01 213.27 424.95 213.27 424.95 241.62 349.28 241.62 349.28 213.27 388.01 213.27"/><path d="M392.38,441.2v-6.11h-1.06v-1h6.78v2.45h-1v-1.43h-3.48v2.42h3v1h-3v2.67h3.48v-1.48h1v2.5h-6.78v-1Z" transform="translate(-140.78 -217.61)"/><path d="M399.74,441.23v-6.17h-1v-1h2.12v7.16h.86v1h-3v-1Z" transform="translate(-140.78 -217.61)"/><path d="M408.43,439.66h-4.77a2,2,0,0,0,.62,1.27,1.84,1.84,0,0,0,1.32.49,2.15,2.15,0,0,0,1.85-.94l1,.44a3,3,0,0,1-1.25,1.1,3.7,3.7,0,0,1-1.6.36,3.23,3.23,0,0,1-2.22-.81,2.76,2.76,0,0,1-.93-2.19,2.82,2.82,0,0,1,.9-2.15,3,3,0,0,1,2.07-.84,3,3,0,0,1,2.07.82A3.19,3.19,0,0,1,408.43,439.66Zm-1.15-.81a2,2,0,0,0-.62-1.08,1.7,1.7,0,0,0-1.23-.48,1.65,1.65,0,0,0-1.15.44,1.87,1.87,0,0,0-.58,1.12Z" transform="translate(-140.78 -217.61)"/><path d="M414.68,436.55v2.14h-1a1.31,1.31,0,0,0-.5-.94,1.65,1.65,0,0,0-2.2.2,2,2,0,0,0-.47,1.39,2.39,2.39,0,0,0,.44,1.42,1.52,1.52,0,0,0,1.29.61,1.76,1.76,0,0,0,1.7-1.12l.92.44a2.7,2.7,0,0,1-2.67,1.69,2.62,2.62,0,0,1-2.12-.92,3.22,3.22,0,0,1-.77-2.12,2.88,2.88,0,0,1,.84-2.12,2.72,2.72,0,0,1,1.95-.83,2.35,2.35,0,0,1,1.59.55v-.39Z" transform="translate(-140.78 -217.61)"/><path d="M415.49,437.54v-1h.74v-.88l1.11-1v1.9h1.05v1h-1.05v2.75a2.54,2.54,0,0,0,.08.82q.07.15.36.15a1.83,1.83,0,0,0,.61-.11v1a2.54,2.54,0,0,1-.85.15,1.4,1.4,0,0,1-.83-.22,1,1,0,0,1-.4-.57,6.15,6.15,0,0,1-.08-1.17v-2.81Z" transform="translate(-140.78 -217.61)"/><path d="M420.16,441.23v-3.69H419v-1h2v1.27a2.22,2.22,0,0,1,.52-.82,1.65,1.65,0,0,1,.71-.44,3.83,3.83,0,0,1,1-.1h.3v1.12h-.23a3.68,3.68,0,0,0-1.27.17,1.17,1.17,0,0,0-.62.62,4.53,4.53,0,0,0-.2,1.61v1.25h1.24v1H419v-1Z" transform="translate(-140.78 -217.61)"/><path d="M423.73,439.38a2.86,2.86,0,0,1,.87-2.15,3.08,3.08,0,0,1,4.22,0,3.1,3.1,0,0,1,0,4.33,3,3,0,0,1-2.11.83,2.91,2.91,0,0,1-3-3Zm1.18,0a1.85,1.85,0,0,0,.52,1.37,1.8,1.8,0,0,0,2.57,0,2.05,2.05,0,0,0,0-2.74,1.72,1.72,0,0,0-1.28-.54,1.67,1.67,0,0,0-1.29.55A1.91,1.91,0,0,0,424.91,439.38Z" transform="translate(-140.78 -217.61)"/><path d="M432.51,442.31l-1.86-4.77h-1v-1h2.85v1h-.73l1.22,3.21,1.22-3.21h-.79v-1h2.77v1h-.87l-1.81,4.77Z" transform="translate(-140.78 -217.61)"/><path d="M442.21,441.23v1h-1.94v-.69a2.54,2.54,0,0,1-1.81.78,2,2,0,0,1-1.34-.5,1.74,1.74,0,0,1,0-2.6,2.17,2.17,0,0,1,1.46-.53,2.76,2.76,0,0,1,1.55.49v-.57a2,2,0,0,0-.09-.67.87.87,0,0,0-.38-.42,1.52,1.52,0,0,0-.79-.18,1.28,1.28,0,0,0-1.21.66l-1.07-.28a2.54,2.54,0,0,1,2.45-1.32,3.32,3.32,0,0,1,1.11.17,1.56,1.56,0,0,1,.69.45,1.43,1.43,0,0,1,.31.58,4.84,4.84,0,0,1,.08,1v2.63Zm-2-1.12a2.33,2.33,0,0,0-1.46-.56,1.16,1.16,0,0,0-.78.27.94.94,0,0,0,0,1.36,1,1,0,0,0,.75.27,2.22,2.22,0,0,0,1.53-.68Z" transform="translate(-140.78 -217.61)"/><path d="M444.8,436.55v.68a3.45,3.45,0,0,1,1.95-.77,1.46,1.46,0,0,1,.91.26,1.24,1.24,0,0,1,.48.64,4.32,4.32,0,0,1,.11,1.1v2.77h.95v1h-2.07v-3.71a1.25,1.25,0,0,0-.19-.84.65.65,0,0,0-.47-.2,2.84,2.84,0,0,0-1.67.72v3h1v1h-3.08v-1h1v-3.69h-1v-1Z" transform="translate(-140.78 -217.61)"/><path d="M451.68,436.55v.68a3.45,3.45,0,0,1,1.95-.77,1.46,1.46,0,0,1,.91.26,1.17,1.17,0,0,1,.47.64,3.84,3.84,0,0,1,.12,1.1v2.77h.95v1H454v-3.71a1.25,1.25,0,0,0-.19-.84.66.66,0,0,0-.48-.2,2.84,2.84,0,0,0-1.66.72v3h1v1h-3.08v-1h1v-3.69h-1v-1Z" transform="translate(-140.78 -217.61)"/><path d="M462.56,439.66h-4.77a2,2,0,0,0,.62,1.27,1.81,1.81,0,0,0,1.32.49,2.15,2.15,0,0,0,1.84-.94l1,.44a3,3,0,0,1-1.25,1.1,3.75,3.75,0,0,1-1.61.36,3.25,3.25,0,0,1-2.22-.81,2.75,2.75,0,0,1-.92-2.19,2.82,2.82,0,0,1,.9-2.15,2.91,2.91,0,0,1,2.06-.84,3,3,0,0,1,2.07.82A3.23,3.23,0,0,1,462.56,439.66Zm-1.15-.81a2.14,2.14,0,0,0-.62-1.08,1.74,1.74,0,0,0-1.24-.48,1.61,1.61,0,0,0-1.14.44,1.82,1.82,0,0,0-.58,1.12Z" transform="translate(-140.78 -217.61)"/><path d="M401.22,455.6v-6.11h-1.17v-1h2.79l3.57,6.33v-5.31h-1.15v-1h3.34v1h-1.2v7.21h-1.26l-3.91-7v5.86h1.16v1h-3.34v-1Z" transform="translate(-140.78 -217.61)"/><path d="M414.39,453.71l-.07,2.91h-5.21a4.38,4.38,0,0,1,.3-1.61,4,4,0,0,1,.85-1.35,13,13,0,0,1,1.67-1.39,4.84,4.84,0,0,0,1-.87,1.32,1.32,0,0,0,.25-.81,1.29,1.29,0,0,0-.35-.93,1.34,1.34,0,0,0-1-.36,1.32,1.32,0,0,0-1.07.41,2.09,2.09,0,0,0-.34,1.35c0,.15,0,.3,0,.44h-1.08c0-.14,0-.25,0-.34a3.09,3.09,0,0,1,.63-2.07,2.26,2.26,0,0,1,1.84-.75,2.58,2.58,0,0,1,1.88.64,2.12,2.12,0,0,1,.65,1.57,2.08,2.08,0,0,1-.43,1.33,8,8,0,0,1-1.63,1.4,6.58,6.58,0,0,0-1.54,1.35,2.36,2.36,0,0,0-.43.93h3.07l0-1.85Z" transform="translate(-140.78 -217.61)"/><path d="M423.82,453.75h-2.94l-.62,1.85h1v1H418v-1h1l2.23-6.21h-1v-.92h4.17v.92h-1l2.28,6.21h.91v1h-3.19v-1h1Zm-.31-.95-1.08-3.41h-.12l-1.13,3.41Z" transform="translate(-140.78 -217.61)"/><path d="M427.84,455.63v-3.69h-.94v-1H429v.71a3.21,3.21,0,0,1,2-.8,1.33,1.33,0,0,1,1.34.88,3.4,3.4,0,0,1,2.07-.88,1.59,1.59,0,0,1,.9.24,1.16,1.16,0,0,1,.48.62,3.75,3.75,0,0,1,.12,1.1v2.81h1v1h-2.1V453a3.59,3.59,0,0,0-.05-.69.53.53,0,0,0-.22-.33.69.69,0,0,0-.43-.14,2.7,2.7,0,0,0-1.62.74v3h1v1h-2.09v-3.71a1.54,1.54,0,0,0-.16-.81.6.6,0,0,0-.54-.25,3.05,3.05,0,0,0-1.63.74v3h1v1h-3.12v-1Z" transform="translate(-140.78 -217.61)"/><path d="M437.35,453.78a2.86,2.86,0,0,1,.87-2.15,3.07,3.07,0,0,1,4.21,0,2.81,2.81,0,0,1,.88,2.16,2.86,2.86,0,0,1-.87,2.17,3,3,0,0,1-2.11.83,2.91,2.91,0,0,1-2.12-.84A2.86,2.86,0,0,1,437.35,453.78Zm1.18,0a1.89,1.89,0,0,0,.52,1.38,1.75,1.75,0,0,0,1.28.53,1.73,1.73,0,0,0,1.29-.54,1.93,1.93,0,0,0,.52-1.37,1.88,1.88,0,0,0-.53-1.37,1.72,1.72,0,0,0-1.28-.54,1.67,1.67,0,0,0-1.29.55A1.93,1.93,0,0,0,438.53,453.78Z" transform="translate(-140.78 -217.61)"/><path d="M446.2,451v.68a3.5,3.5,0,0,1,2-.77,1.53,1.53,0,0,1,.91.26,1.17,1.17,0,0,1,.47.64,3.91,3.91,0,0,1,.11,1.1v2.77h1v1h-2.07v-3.71a1.25,1.25,0,0,0-.19-.84.66.66,0,0,0-.48-.2,2.86,2.86,0,0,0-1.67.72v3h1v1h-3.09v-1h1v-3.69h-1v-1Z" transform="translate(-140.78 -217.61)"/><path d="M451,451.94v-1h.74v-.88l1.11-1V451h1.05v1h-1.05v2.75a2.54,2.54,0,0,0,.08.82q.07.15.36.15a1.83,1.83,0,0,0,.61-.11v1a2.54,2.54,0,0,1-.85.15,1.4,1.4,0,0,1-.83-.22,1,1,0,0,1-.4-.57,6.15,6.15,0,0,1-.08-1.17v-2.81Z" transform="translate(-140.78 -217.61)"/><path d="M493.19,441.37v-6.11h-1.05v-1h6.77v2.45h-1v-1.43h-3.48v2.42h3v1h-3v2.67h3.48v-1.49h1v2.51h-6.77v-1Z" transform="translate(-140.78 -217.61)"/><path d="M500.56,441.4v-6.17h-1v-1h2.12v7.16h.87v1h-3v-1Z" transform="translate(-140.78 -217.61)"/><path d="M509.25,439.83h-4.77a2,2,0,0,0,.62,1.27,1.81,1.81,0,0,0,1.32.49,2.13,2.13,0,0,0,1.84-.94l1,.44a3,3,0,0,1-1.25,1.1,3.75,3.75,0,0,1-1.61.36,3.27,3.27,0,0,1-2.22-.81,2.78,2.78,0,0,1-.92-2.19,2.82,2.82,0,0,1,.9-2.15,2.94,2.94,0,0,1,2.06-.84,3,3,0,0,1,2.07.82A3.23,3.23,0,0,1,509.25,439.83ZM508.1,439a2.06,2.06,0,0,0-.62-1.08,1.74,1.74,0,0,0-1.24-.48,1.6,1.6,0,0,0-1.14.44,1.82,1.82,0,0,0-.58,1.12Z" transform="translate(-140.78 -217.61)"/><path d="M515.49,436.71v2.15h-1a1.33,1.33,0,0,0-.5-.94,1.6,1.6,0,0,0-1-.33,1.53,1.53,0,0,0-1.22.53,2,2,0,0,0-.47,1.39,2.3,2.3,0,0,0,.45,1.41,1.48,1.48,0,0,0,1.29.62,1.77,1.77,0,0,0,1.7-1.12l.92.44a2.7,2.7,0,0,1-2.67,1.69,2.62,2.62,0,0,1-2.12-.92,3.17,3.17,0,0,1-.77-2.12,2.86,2.86,0,0,1,.84-2.12,2.66,2.66,0,0,1,1.94-.83,2.39,2.39,0,0,1,1.6.55v-.4Z" transform="translate(-140.78 -217.61)"/><path d="M516.31,437.71v-1h.74v-.87l1.11-1v1.89h1.05v1h-1.05v2.75a2.66,2.66,0,0,0,.07.82c0,.1.17.15.37.15a1.62,1.62,0,0,0,.61-.12v1a2.6,2.6,0,0,1-.86.15,1.31,1.31,0,0,1-.82-.23.93.93,0,0,1-.4-.56,5.4,5.4,0,0,1-.08-1.17v-2.81Z" transform="translate(-140.78 -217.61)"/><path d="M521,441.4v-3.69h-1.14v-1h2V438a2.26,2.26,0,0,1,.52-.82,1.71,1.71,0,0,1,.71-.44,4,4,0,0,1,1-.1h.29v1.12h-.22a3.64,3.64,0,0,0-1.27.17,1.14,1.14,0,0,0-.62.62,4.3,4.3,0,0,0-.2,1.61v1.25h1.23v1h-3.49v-1Z" transform="translate(-140.78 -217.61)"/><path d="M524.55,439.55a2.89,2.89,0,0,1,.86-2.15,2.94,2.94,0,0,1,2.12-.84,2.9,2.9,0,0,1,2.1.83,2.81,2.81,0,0,1,.88,2.16,2.88,2.88,0,0,1-.87,2.17,3,3,0,0,1-2.11.83,2.91,2.91,0,0,1-2.12-.84A2.88,2.88,0,0,1,524.55,439.55Zm1.17,0a1.86,1.86,0,0,0,.53,1.37,1.8,1.8,0,0,0,2.57,0,1.92,1.92,0,0,0,.51-1.37,1.89,1.89,0,0,0-.52-1.38,1.72,1.72,0,0,0-1.28-.54,1.7,1.7,0,0,0-1.3.56A1.91,1.91,0,0,0,525.72,439.55Z" transform="translate(-140.78 -217.61)"/><path d="M533.32,442.48l-1.85-4.77h-1v-1h2.85v1h-.74l1.22,3.21,1.23-3.21h-.79v-1H537v1h-.87l-1.81,4.77Z" transform="translate(-140.78 -217.61)"/><path d="M543,441.4v1h-1.95v-.69a2.54,2.54,0,0,1-1.8.78,2,2,0,0,1-1.35-.5,1.66,1.66,0,0,1-.57-1.29,1.63,1.63,0,0,1,.61-1.31,2.15,2.15,0,0,1,1.46-.53,2.81,2.81,0,0,1,1.54.48v-.56a2.3,2.3,0,0,0-.08-.67.92.92,0,0,0-.38-.42,1.56,1.56,0,0,0-.79-.19,1.31,1.31,0,0,0-1.22.67l-1.06-.28a2.54,2.54,0,0,1,2.45-1.32,3.06,3.06,0,0,1,1.1.17,1.65,1.65,0,0,1,.7.44,1.5,1.5,0,0,1,.3.59,4.18,4.18,0,0,1,.08,1v2.63ZM541,440.28a2.35,2.35,0,0,0-1.46-.57,1.13,1.13,0,0,0-.77.27.88.88,0,0,0-.31.7.9.9,0,0,0,.27.67,1,1,0,0,0,.74.27,2.22,2.22,0,0,0,1.53-.68Z" transform="translate(-140.78 -217.61)"/><path d="M545.61,436.71v.69a3.43,3.43,0,0,1,2-.77,1.46,1.46,0,0,1,.91.26,1.14,1.14,0,0,1,.47.64,3.91,3.91,0,0,1,.11,1.1v2.77h1v1H548v-3.71a1.31,1.31,0,0,0-.19-.84.66.66,0,0,0-.48-.2,2.86,2.86,0,0,0-1.67.72v3h1v1H543.5v-1h1v-3.69h-1v-1Z" transform="translate(-140.78 -217.61)"/><path d="M552.49,436.71v.69a3.43,3.43,0,0,1,2-.77,1.48,1.48,0,0,1,.91.26,1.14,1.14,0,0,1,.47.64,4.32,4.32,0,0,1,.11,1.1v2.77h1v1h-2.07v-3.71a1.24,1.24,0,0,0-.2-.84.62.62,0,0,0-.47-.2,2.86,2.86,0,0,0-1.67.72v3h1v1h-3.09v-1h1v-3.69h-1v-1Z" transform="translate(-140.78 -217.61)"/><path d="M563.37,439.83H558.6a2,2,0,0,0,.62,1.27,1.84,1.84,0,0,0,1.32.49,2.16,2.16,0,0,0,1.85-.94l1,.44a3,3,0,0,1-1.25,1.1,3.7,3.7,0,0,1-1.6.36,3.28,3.28,0,0,1-2.23-.81,2.78,2.78,0,0,1-.92-2.19,2.82,2.82,0,0,1,.9-2.15,3,3,0,0,1,2.07-.84,3,3,0,0,1,2.07.82A3.19,3.19,0,0,1,563.37,439.83Zm-1.15-.81a2,2,0,0,0-.62-1.08,1.71,1.71,0,0,0-1.23-.48,1.61,1.61,0,0,0-1.15.44,1.87,1.87,0,0,0-.58,1.12Z" transform="translate(-140.78 -217.61)"/><path d="M508,455.77v-6.11h-1.17v-1h2.78l3.58,6.33v-5.31h-1.16v-1h3.35v1h-1.2v7.21H513l-3.91-7v5.86h1.17v1h-3.34v-1Z" transform="translate(-140.78 -217.61)"/><path d="M521.21,453.88l-.08,2.91h-5.21a4.44,4.44,0,0,1,.3-1.62,4.14,4.14,0,0,1,.85-1.34,12.88,12.88,0,0,1,1.67-1.39,4.68,4.68,0,0,0,1-.87,1.32,1.32,0,0,0,.25-.81,1.26,1.26,0,0,0-.36-.93,1.56,1.56,0,0,0-2.05.05,2.09,2.09,0,0,0-.34,1.35c0,.15,0,.3,0,.44h-1.09v-.34a3.19,3.19,0,0,1,.62-2.08,2.3,2.3,0,0,1,1.84-.74,2.55,2.55,0,0,1,1.88.64,2.09,2.09,0,0,1,.66,1.57,2.14,2.14,0,0,1-.43,1.33,8.45,8.45,0,0,1-1.64,1.4,6.8,6.8,0,0,0-1.54,1.35,2.32,2.32,0,0,0-.42.93h3.07l.05-1.85Z" transform="translate(-140.78 -217.61)"/><path d="M530.63,453.92H527.7l-.63,1.85h1v1h-3.21v-1h1l2.22-6.21h-1v-.92h4.16v.92h-1l2.28,6.21h.91v1h-3.2v-1h1Zm-.3-.95-1.09-3.41h-.11L528,453Z" transform="translate(-140.78 -217.61)"/><path d="M535.44,456.88l-1.86-4.77h-1v-1h2.85v1h-.73l1.22,3.21,1.22-3.21h-.79v-1h2.78v1h-.88l-1.81,4.77Z" transform="translate(-140.78 -217.61)"/><path d="M545.14,455.8v1H543.2v-.69a2.54,2.54,0,0,1-1.81.78,2,2,0,0,1-1.34-.5,1.74,1.74,0,0,1,0-2.6,2.18,2.18,0,0,1,1.47-.53,2.81,2.81,0,0,1,1.54.48v-.56a2,2,0,0,0-.09-.67.87.87,0,0,0-.38-.42,1.51,1.51,0,0,0-.79-.19,1.29,1.29,0,0,0-1.21.67l-1.07-.28A2.55,2.55,0,0,1,542,451a3.09,3.09,0,0,1,1.11.17,1.56,1.56,0,0,1,.69.45,1.43,1.43,0,0,1,.31.58,4.84,4.84,0,0,1,.08,1v2.63Zm-2-1.12a2.33,2.33,0,0,0-1.46-.56,1.2,1.2,0,0,0-.78.26.92.92,0,0,0-.31.7.88.88,0,0,0,.28.67,1,1,0,0,0,.74.27,2.22,2.22,0,0,0,1.53-.68Z" transform="translate(-140.78 -217.61)"/><path d="M546.54,455.8v-6.17h-1v-1h2.12v7.16h.86v1h-3v-1Z" transform="translate(-140.78 -217.61)"/><rect id="Rect_Pression_Av" data-name="Rect Pression Av" class="cls-12" x="551.28" y="160.21" width="93.71" height="37.69"/><path d="M703,389.62v-6.11h-1v-1h2.91a7,7,0,0,1,1.92.19,1.86,1.86,0,0,1,1.07.82,2.89,2.89,0,0,1,.15,2.76,2,2,0,0,1-.7.82,2.54,2.54,0,0,1-1,.36,10.2,10.2,0,0,1-1.58.09h-.56v2.09h1v1H702v-1Zm1.24-3.08h.7a2.91,2.91,0,0,0,1.66-.34,1.41,1.41,0,0,0,.47-1.21,1.6,1.6,0,0,0-.25-.91,1.07,1.07,0,0,0-.61-.47,5.51,5.51,0,0,0-1.21-.1h-.76Z" transform="translate(-140.78 -217.61)"/><path d="M710,389.65V386h-1.14v-1h2v1.28a2.14,2.14,0,0,1,.52-.83,1.69,1.69,0,0,1,.7-.43,3.9,3.9,0,0,1,1-.11h.29V386h-.22a3.64,3.64,0,0,0-1.27.17,1.11,1.11,0,0,0-.62.62,4.49,4.49,0,0,0-.2,1.61v1.24h1.23v1h-3.49v-1Z" transform="translate(-140.78 -217.61)"/><path d="M719.47,388.09H714.7a2.08,2.08,0,0,0,.62,1.27,1.81,1.81,0,0,0,1.32.49,2.13,2.13,0,0,0,1.84-.94l1,.43a3,3,0,0,1-1.25,1.11,3.75,3.75,0,0,1-1.61.36,3.27,3.27,0,0,1-2.22-.81,2.78,2.78,0,0,1-.92-2.19,2.82,2.82,0,0,1,.9-2.15,3,3,0,0,1,2.06-.85,3.05,3.05,0,0,1,2.07.83A3.22,3.22,0,0,1,719.47,388.09Zm-1.15-.81a2.06,2.06,0,0,0-.62-1.08,1.74,1.74,0,0,0-1.24-.48,1.64,1.64,0,0,0-1.14.43,1.85,1.85,0,0,0-.58,1.13Z" transform="translate(-140.78 -217.61)"/><path d="M720.41,390.64V388.7h1v.19a.94.94,0,0,0,.43.65,1.56,1.56,0,0,0,.9.26,1.66,1.66,0,0,0,.86-.19.58.58,0,0,0,.32-.52.5.5,0,0,0-.27-.47,3.43,3.43,0,0,0-1-.28,3.46,3.46,0,0,1-1.68-.64,1.48,1.48,0,0,1-.5-1.15,1.51,1.51,0,0,1,.55-1.19,2.08,2.08,0,0,1,1.43-.48,2.82,2.82,0,0,1,1.38.33V385h1v1.88h-1v-.34a1.45,1.45,0,0,0-1.31-.7,1.25,1.25,0,0,0-.72.19.6.6,0,0,0-.29.51.44.44,0,0,0,.27.44,4.6,4.6,0,0,0,1.12.25,5.92,5.92,0,0,1,1.25.31,1.53,1.53,0,0,1,.7.57,1.64,1.64,0,0,1,.27.93,1.51,1.51,0,0,1-.6,1.26,2.88,2.88,0,0,1-3.06.06v.31Z" transform="translate(-140.78 -217.61)"/><path d="M725.9,390.64V388.7h1v.19a.91.91,0,0,0,.43.65,1.55,1.55,0,0,0,.89.26,1.64,1.64,0,0,0,.86-.19.57.57,0,0,0,.33-.52.5.5,0,0,0-.27-.47,3.52,3.52,0,0,0-1.06-.28,3.42,3.42,0,0,1-1.67-.64,1.45,1.45,0,0,1-.5-1.15,1.53,1.53,0,0,1,.54-1.19,2.11,2.11,0,0,1,1.44-.48,2.87,2.87,0,0,1,1.38.33V385h1v1.88h-1v-.34a1.46,1.46,0,0,0-1.31-.7,1.28,1.28,0,0,0-.73.19.61.61,0,0,0-.28.51.45.45,0,0,0,.26.44,4.73,4.73,0,0,0,1.12.25,5.76,5.76,0,0,1,1.25.31,1.49,1.49,0,0,1,.7.57,1.57,1.57,0,0,1,.28.93,1.49,1.49,0,0,1-.61,1.26,2.87,2.87,0,0,1-3.05.06v.31Z" transform="translate(-140.78 -217.61)"/><path d="M732.18,389.65V386h-.88v-1h2v4.68h.88v1H731.3v-1ZM732,383a.63.63,0,0,1,.19-.46.62.62,0,0,1,.48-.2.66.66,0,0,1,.48.19.66.66,0,0,1,0,.95.67.67,0,0,1-.48.2.65.65,0,0,1-.47-.2A.62.62,0,0,1,732,383Z" transform="translate(-140.78 -217.61)"/><path d="M734.87,387.81a2.88,2.88,0,0,1,.86-2.15,2.91,2.91,0,0,1,2.12-.85,3,3,0,0,1,2.1.83,2.85,2.85,0,0,1,.88,2.17A2.88,2.88,0,0,1,740,390a3,3,0,0,1-2.11.83,2.92,2.92,0,0,1-2.13-.85A2.89,2.89,0,0,1,734.87,387.81Zm1.17,0a1.88,1.88,0,0,0,.53,1.37,1.79,1.79,0,0,0,2.56,0,2.08,2.08,0,0,0,0-2.75,1.8,1.8,0,0,0-2.58,0A2,2,0,0,0,736,387.81Z" transform="translate(-140.78 -217.61)"/><path d="M743.72,385v.69a3.43,3.43,0,0,1,2-.78,1.49,1.49,0,0,1,.91.27,1.15,1.15,0,0,1,.47.63,4.41,4.41,0,0,1,.11,1.11v2.76h1v1h-2.07v-3.7a1.29,1.29,0,0,0-.2-.85.61.61,0,0,0-.47-.19,2.86,2.86,0,0,0-1.67.72v3h1v1h-3.09v-1h1V386h-1v-1Z" transform="translate(-140.78 -217.61)"/><path d="M756.85,387.78h-2.93l-.63,1.84h1v1h-3.21v-1h1l2.23-6.21h-1v-.92h4.17v.92h-1l2.28,6.21h.91v1h-3.19v-1h1Zm-.3-1-1.09-3.41h-.11l-1.13,3.41Z" transform="translate(-140.78 -217.61)"/><path d="M761.66,390.74,759.8,386h-1v-1h2.86v1h-.74l1.22,3.22,1.22-3.22h-.78v-1h2.77v1h-.87l-1.81,4.78Z" transform="translate(-140.78 -217.61)"/><path d="M771.36,389.65v1h-1.94V390a2.52,2.52,0,0,1-1.81.79,2,2,0,0,1-1.34-.51,1.62,1.62,0,0,1-.57-1.28,1.68,1.68,0,0,1,.6-1.32,2.24,2.24,0,0,1,1.47-.52,2.81,2.81,0,0,1,1.54.48V387a2.3,2.3,0,0,0-.08-.67.91.91,0,0,0-.39-.42,1.42,1.42,0,0,0-.79-.19,1.28,1.28,0,0,0-1.21.67l-1.07-.28a2.56,2.56,0,0,1,2.45-1.33,3.07,3.07,0,0,1,1.11.18,1.55,1.55,0,0,1,.69.44,1.35,1.35,0,0,1,.31.59,4.77,4.77,0,0,1,.08,1v2.62Zm-2.05-1.11a2.35,2.35,0,0,0-1.46-.57,1.11,1.11,0,0,0-.77.27.88.88,0,0,0-.32.7.91.91,0,0,0,.28.67,1,1,0,0,0,.74.27,2.22,2.22,0,0,0,1.53-.68Z" transform="translate(-140.78 -217.61)"/><path d="M772.76,389.65v-6.17h-1v-1h2.12v7.16h.87v1h-3v-1Z" transform="translate(-140.78 -217.61)"/><path d="M148.92,249.43H146l-.62,1.84h1v1h-3.21v-1h1l2.23-6.21h-1v-.92h4.17v.92h-1l2.28,6.21h.91v1h-3.19v-1h1Zm-.31-1-1.08-3.41h-.11l-1.13,3.41Z" transform="translate(-140.78 -217.61)"/><path d="M153,251.3v-3.69h-1.15v-1h2v1.28a2.18,2.18,0,0,1,.52-.83,1.65,1.65,0,0,1,.7-.43,3.9,3.9,0,0,1,1-.11h.29v1.13h-.22a3.45,3.45,0,0,0-1.27.17,1.16,1.16,0,0,0-.62.61,4.53,4.53,0,0,0-.2,1.61v1.25h1.24v1h-3.5v-1Z" transform="translate(-140.78 -217.61)"/><path d="M158.2,251.3v-3.69h-1.14v-1h2v1.28a2.31,2.31,0,0,1,.52-.83,1.68,1.68,0,0,1,.71-.43,3.9,3.9,0,0,1,1-.11h.29v1.13h-.22a3.42,3.42,0,0,0-1.27.17,1.12,1.12,0,0,0-.62.61,4.3,4.3,0,0,0-.2,1.61v1.25h1.23v1h-3.49v-1Z" transform="translate(-140.78 -217.61)"/><path d="M163.31,251.3v-3.69h-.88v-1h2v4.68h.87v1h-2.87v-1Zm-.16-6.61a.68.68,0,0,1,.19-.47.66.66,0,0,1,.49-.2.65.65,0,0,1,.47.2.63.63,0,0,1,.2.47.66.66,0,0,1-.2.48.64.64,0,0,1-.47.19.65.65,0,0,1-.48-.19A.69.69,0,0,1,163.15,244.69Z" transform="translate(-140.78 -217.61)"/><path d="M168.14,252.38l-1.86-4.77h-1v-1h2.85v1h-.73l1.22,3.22,1.22-3.22h-.79v-1h2.78v1H171l-1.81,4.77Z" transform="translate(-140.78 -217.61)"/><path d="M178.24,249.74h-4.77a2.1,2.1,0,0,0,.62,1.27,1.88,1.88,0,0,0,1.32.48,2.18,2.18,0,0,0,1.85-.93l1,.43a2.88,2.88,0,0,1-1.25,1.1,3.7,3.7,0,0,1-1.6.36,3.28,3.28,0,0,1-2.23-.81,2.78,2.78,0,0,1-.92-2.19,2.83,2.83,0,0,1,.9-2.15,3,3,0,0,1,2.07-.84,3,3,0,0,1,2.07.82A3.2,3.2,0,0,1,178.24,249.74Zm-1.15-.81a2,2,0,0,0-.62-1.08,1.68,1.68,0,0,0-1.23-.49,1.65,1.65,0,0,0-1.15.44,1.9,1.9,0,0,0-.58,1.13Zm-2.71-3.06.83-1.86h1.61l-1.69,1.86Z" transform="translate(-140.78 -217.61)"/><path d="M185.12,249.74h-4.77A2.1,2.1,0,0,0,181,251a1.88,1.88,0,0,0,1.32.48,2.18,2.18,0,0,0,1.85-.93l1,.43a2.94,2.94,0,0,1-1.25,1.1,3.7,3.7,0,0,1-1.6.36,3.28,3.28,0,0,1-2.23-.81,2.78,2.78,0,0,1-.92-2.19,2.83,2.83,0,0,1,.9-2.15,3,3,0,0,1,2.07-.84,3,3,0,0,1,2.07.82A3.2,3.2,0,0,1,185.12,249.74Zm-1.15-.81a2,2,0,0,0-.62-1.08,1.7,1.7,0,0,0-1.24-.49,1.65,1.65,0,0,0-1.14.44,1.9,1.9,0,0,0-.58,1.13Z" transform="translate(-140.78 -217.61)"/><path d="M196,251.3v1H193.9v-.83a2.6,2.6,0,0,1-2,.92,2.84,2.84,0,0,1-1.95-.75,2.75,2.75,0,0,1-.84-2.15,2.89,2.89,0,0,1,.86-2.21,2.79,2.79,0,0,1,2-.81,2.68,2.68,0,0,1,2,.91v-2.24h-1.09v-1H195v7.16Zm-5.76-1.85a1.92,1.92,0,0,0,.53,1.44,1.77,1.77,0,0,0,1.27.5,1.75,1.75,0,0,0,1.27-.53,1.92,1.92,0,0,0,.55-1.46,1.76,1.76,0,0,0-.56-1.43,1.92,1.92,0,0,0-1.27-.48,1.64,1.64,0,0,0-1.27.57A2,2,0,0,0,190.28,249.45Z" transform="translate(-140.78 -217.61)"/><path d="M197.1,245.58v-1.44h1.44v1.25a3.62,3.62,0,0,1-.1,1,1,1,0,0,1-.43.58,1.64,1.64,0,0,1-.91.24v-.61a.77.77,0,0,0,.7-.87.82.82,0,0,0,0-.14Z" transform="translate(-140.78 -217.61)"/><path d="M206,249.74h-4.77a2.1,2.1,0,0,0,.62,1.27,1.88,1.88,0,0,0,1.32.48,2.17,2.17,0,0,0,1.85-.93l1,.43a2.92,2.92,0,0,1-1.24,1.1,3.78,3.78,0,0,1-1.61.36,3.23,3.23,0,0,1-2.22-.81,2.76,2.76,0,0,1-.93-2.19,2.83,2.83,0,0,1,.9-2.15,3,3,0,0,1,2.07-.84,3,3,0,0,1,2.07.82A3.2,3.2,0,0,1,206,249.74Zm-1.15-.81a1.94,1.94,0,0,0-.62-1.08,1.76,1.76,0,0,0-2.38,0,1.9,1.9,0,0,0-.58,1.13Z" transform="translate(-140.78 -217.61)"/><path d="M212.67,251.3v1h-1.95v-.69a2.54,2.54,0,0,1-1.8.78,2,2,0,0,1-1.35-.5,1.66,1.66,0,0,1-.57-1.29,1.64,1.64,0,0,1,.61-1.31,2.14,2.14,0,0,1,1.46-.52,2.81,2.81,0,0,1,1.54.48v-.56a2.25,2.25,0,0,0-.08-.67.86.86,0,0,0-.39-.42,1.42,1.42,0,0,0-.79-.19,1.28,1.28,0,0,0-1.21.67l-1.06-.29a2.53,2.53,0,0,1,2.44-1.32,3.32,3.32,0,0,1,1.11.17,1.66,1.66,0,0,1,.69.45,1.35,1.35,0,0,1,.31.59,4.7,4.7,0,0,1,.08,1v2.62Zm-2.06-1.12a2.39,2.39,0,0,0-1.46-.56,1.11,1.11,0,0,0-.77.27.87.87,0,0,0-.31.7.9.9,0,0,0,.27.66,1,1,0,0,0,.74.27,2.18,2.18,0,0,0,1.53-.68Z" transform="translate(-140.78 -217.61)"/><path d="M219.46,251.3v1h-2.1v-.65a3.08,3.08,0,0,1-1.87.74,1.7,1.7,0,0,1-.94-.24,1.27,1.27,0,0,1-.5-.65,4.8,4.8,0,0,1-.12-1.27v-2.61h-.8v-1H215v3.46a6.91,6.91,0,0,0,0,.84.59.59,0,0,0,.2.36.69.69,0,0,0,.43.14,2.63,2.63,0,0,0,1.65-.74v-3.07h-1v-1h2.12v4.68Z" transform="translate(-140.78 -217.61)"/><path d="M152.3,223h-2.94l-.62,1.85h1v1h-3.21v-1h1l2.22-6.21h-1v-.92h4.16v.92h-1l2.28,6.21h.92v1h-3.2v-1h1Zm-.31-1-1.08-3.41h-.11l-1.13,3.41Z" transform="translate(-140.78 -217.61)"/><path d="M156.4,224.9v-3.69h-1.14v-1h2v1.28a2.14,2.14,0,0,1,.52-.82,1.65,1.65,0,0,1,.71-.44,3.83,3.83,0,0,1,1-.1h.3v1.12h-.23a3.58,3.58,0,0,0-1.26.17,1.19,1.19,0,0,0-.63.62,4.53,4.53,0,0,0-.2,1.61v1.25h1.24v1h-3.49v-1Z" transform="translate(-140.78 -217.61)"/><path d="M161.58,224.9v-3.69h-1.14v-1h2v1.28a2.16,2.16,0,0,1,.53-.82,1.62,1.62,0,0,1,.7-.44,4,4,0,0,1,1-.1H165v1.12h-.22a3.64,3.64,0,0,0-1.27.17,1.14,1.14,0,0,0-.62.62,4.3,4.3,0,0,0-.2,1.61v1.25h1.23v1h-3.49v-1Z" transform="translate(-140.78 -217.61)"/><path d="M166.69,224.9v-3.69h-.88v-1h2v4.69h.88v1h-2.88v-1Zm-.15-6.61a.64.64,0,0,1,.19-.47.63.63,0,0,1,.48-.2.64.64,0,0,1,.47.19.62.62,0,0,1,.2.48.68.68,0,0,1-.67.67.66.66,0,0,1-.48-.2A.64.64,0,0,1,166.54,218.29Z" transform="translate(-140.78 -217.61)"/><path d="M171.52,226l-1.86-4.77h-1v-1h2.86v1h-.74l1.22,3.21,1.22-3.21h-.78v-1h2.77v1h-.87L172.53,226Z" transform="translate(-140.78 -217.61)"/><path d="M181.62,223.33h-4.77a2,2,0,0,0,.62,1.27,1.84,1.84,0,0,0,1.32.49,2.15,2.15,0,0,0,1.85-.94l1,.44a3,3,0,0,1-1.24,1.1,3.78,3.78,0,0,1-1.61.36,3.23,3.23,0,0,1-2.22-.81,2.76,2.76,0,0,1-.93-2.19,2.82,2.82,0,0,1,.9-2.15,3,3,0,0,1,2.07-.84,3,3,0,0,1,2.07.82A3.19,3.19,0,0,1,181.62,223.33Zm-1.15-.81a1.94,1.94,0,0,0-.62-1.08,1.7,1.7,0,0,0-1.23-.48,1.61,1.61,0,0,0-1.15.44,1.93,1.93,0,0,0-.58,1.12Zm-2.71-3.06.83-1.85h1.62l-1.7,1.85Z" transform="translate(-140.78 -217.61)"/><path d="M188.5,223.33h-4.77a2,2,0,0,0,.62,1.27,1.84,1.84,0,0,0,1.32.49,2.16,2.16,0,0,0,1.85-.94l1,.44a3,3,0,0,1-1.25,1.1,3.7,3.7,0,0,1-1.6.36,3.23,3.23,0,0,1-2.22-.81,2.76,2.76,0,0,1-.93-2.19,2.82,2.82,0,0,1,.9-2.15,3,3,0,0,1,2.07-.84,3,3,0,0,1,2.07.82A3.19,3.19,0,0,1,188.5,223.33Zm-1.15-.81a1.94,1.94,0,0,0-.62-1.08,1.71,1.71,0,0,0-1.23-.48,1.61,1.61,0,0,0-1.15.44,1.87,1.87,0,0,0-.58,1.12Z" transform="translate(-140.78 -217.61)"/><path d="M194.38,220.21v.69a3.4,3.4,0,0,1,2-.77,1.48,1.48,0,0,1,.91.26,1.19,1.19,0,0,1,.47.64,4.32,4.32,0,0,1,.11,1.1v2.77h1v1h-2.07v-3.71a1.24,1.24,0,0,0-.2-.84.63.63,0,0,0-.47-.2,2.86,2.86,0,0,0-1.67.72v3h1v1h-3.09v-1h1v-3.69h-1v-1Z" transform="translate(-140.78 -217.61)"/><path d="M205.26,223.33h-4.77a2,2,0,0,0,.62,1.27,1.83,1.83,0,0,0,1.32.49,2.16,2.16,0,0,0,1.85-.94l1,.44a3,3,0,0,1-1.25,1.1,3.7,3.7,0,0,1-1.6.36,3.28,3.28,0,0,1-2.23-.81,2.78,2.78,0,0,1-.92-2.19,2.82,2.82,0,0,1,.9-2.15,2.94,2.94,0,0,1,2.06-.84,3,3,0,0,1,2.08.82A3.19,3.19,0,0,1,205.26,223.33Zm-1.15-.81a2,2,0,0,0-.62-1.08,1.74,1.74,0,0,0-1.24-.48,1.6,1.6,0,0,0-1.14.44,1.87,1.87,0,0,0-.58,1.12Z" transform="translate(-140.78 -217.61)"/><path d="M206.07,221.21v-1h.74v-.87l1.11-1v1.89H209v1h-1.05V224a2.66,2.66,0,0,0,.07.82c0,.1.17.15.37.15a1.62,1.62,0,0,0,.61-.12v1a2.6,2.6,0,0,1-.86.15,1.31,1.31,0,0,1-.82-.23.93.93,0,0,1-.4-.56,5.4,5.4,0,0,1-.08-1.17v-2.81Z" transform="translate(-140.78 -217.61)"/><path d="M209.69,221.21v-1h.74v-.87l1.11-1v1.89h1.05v1h-1.05V224a3,3,0,0,0,.07.82c0,.1.18.15.37.15a1.62,1.62,0,0,0,.61-.12v1a2.6,2.6,0,0,1-.86.15,1.31,1.31,0,0,1-.82-.23.93.93,0,0,1-.4-.56,6.15,6.15,0,0,1-.08-1.17v-2.81Z" transform="translate(-140.78 -217.61)"/><path d="M213.4,223.05a2.86,2.86,0,0,1,.87-2.15,3.08,3.08,0,0,1,4.22,0,2.81,2.81,0,0,1,.88,2.16,2.85,2.85,0,0,1-.88,2.17,3.1,3.1,0,0,1-4.23,0A2.92,2.92,0,0,1,213.4,223.05Zm1.18,0a1.86,1.86,0,0,0,.53,1.37,1.79,1.79,0,0,0,2.56,0,1.89,1.89,0,0,0,.52-1.37,1.86,1.86,0,0,0-.53-1.38,1.78,1.78,0,0,0-2.57,0A1.91,1.91,0,0,0,214.58,223.05Z" transform="translate(-140.78 -217.61)"/><path d="M222.13,225.79l-1.86-4.58h-.94v-1h2.8v1h-.67l1.22,3.14,1.2-3.14h-.75v-1h2.75v1H225l-2.81,7.22h-1.88v-1h1.11Z" transform="translate(-140.78 -217.61)"/><path d="M232,224.9v1H230v-.69a2.54,2.54,0,0,1-1.81.78,2,2,0,0,1-1.34-.5,1.74,1.74,0,0,1,0-2.6,2.17,2.17,0,0,1,1.46-.53,2.79,2.79,0,0,1,1.54.48v-.56a2,2,0,0,0-.08-.67.87.87,0,0,0-.38-.42,1.54,1.54,0,0,0-.79-.19,1.29,1.29,0,0,0-1.21.67l-1.07-.28a2.54,2.54,0,0,1,2.45-1.32,3.12,3.12,0,0,1,1.11.17,1.55,1.55,0,0,1,.69.44,1.68,1.68,0,0,1,.31.59,4.77,4.77,0,0,1,.08,1v2.63Zm-2.06-1.12a2.32,2.32,0,0,0-1.45-.57,1.16,1.16,0,0,0-.78.27.92.92,0,0,0-.31.7.9.9,0,0,0,.27.67,1,1,0,0,0,.75.27,2.22,2.22,0,0,0,1.52-.68Z" transform="translate(-140.78 -217.61)"/><path d="M234.55,220.21v.69a3.38,3.38,0,0,1,1.95-.77,1.46,1.46,0,0,1,.91.26,1.14,1.14,0,0,1,.47.64,3.84,3.84,0,0,1,.12,1.1v2.77H239v1h-2.07v-3.71a1.25,1.25,0,0,0-.19-.84.65.65,0,0,0-.47-.2,2.84,2.84,0,0,0-1.67.72v3h1v1h-3.08v-1h1v-3.69h-1v-1Z" transform="translate(-140.78 -217.61)"/><path d="M239.36,221.21v-1h.73v-.87l1.12-1v1.89h1v1h-1V224a2.66,2.66,0,0,0,.07.82c.05.1.17.15.37.15a1.66,1.66,0,0,0,.61-.12v1a2.6,2.6,0,0,1-.86.15,1.36,1.36,0,0,1-.83-.23.91.91,0,0,1-.39-.56,5.24,5.24,0,0,1-.09-1.17v-2.81Z" transform="translate(-140.78 -217.61)"/><rect class="cls-14" x="416.31" y="56.68" width="75.67" height="26.54"/><path d="M560.79,283.61V277.5h-1.06v-1h6.78v2.45h-1V277.5H562v2.42h3v1h-3v2.67h3.48v-1.49h1v2.51h-6.78v-1Z" transform="translate(-140.78 -217.61)"/><path d="M568.15,283.64v-6.17h-1v-1h2.12v7.16h.86v1h-3v-1Z" transform="translate(-140.78 -217.61)"/><path d="M576.84,282.07h-4.77a2.08,2.08,0,0,0,.62,1.27,1.84,1.84,0,0,0,1.32.49,2.15,2.15,0,0,0,1.85-.94l1,.44a3,3,0,0,1-1.25,1.1,3.7,3.7,0,0,1-1.6.36,3.23,3.23,0,0,1-2.22-.81,2.76,2.76,0,0,1-.93-2.19,2.82,2.82,0,0,1,.9-2.15,3,3,0,0,1,2.07-.84,3,3,0,0,1,2.07.82A3.19,3.19,0,0,1,576.84,282.07Zm-1.15-.81a1.94,1.94,0,0,0-.62-1.08,1.7,1.7,0,0,0-1.23-.48,1.64,1.64,0,0,0-1.15.43,1.93,1.93,0,0,0-.58,1.13Z" transform="translate(-140.78 -217.61)"/><path d="M583.09,279v2.15h-1a1.29,1.29,0,0,0-.5-.94,1.55,1.55,0,0,0-1-.33,1.51,1.51,0,0,0-1.21.53,2,2,0,0,0-.47,1.39,2.36,2.36,0,0,0,.44,1.41,1.51,1.51,0,0,0,1.29.62,1.76,1.76,0,0,0,1.7-1.12l.92.44a2.7,2.7,0,0,1-2.67,1.69,2.65,2.65,0,0,1-2.12-.92,3.22,3.22,0,0,1-.77-2.12,2.86,2.86,0,0,1,.84-2.12,2.68,2.68,0,0,1,2-.83,2.35,2.35,0,0,1,1.59.55V279Z" transform="translate(-140.78 -217.61)"/><path d="M583.9,279.94v-1h.74v-.87l1.12-1V279h1v1h-1v2.76a2.66,2.66,0,0,0,.07.82q.07.15.36.15a1.62,1.62,0,0,0,.61-.12v1a2.54,2.54,0,0,1-.85.15,1.41,1.41,0,0,1-.83-.23,1,1,0,0,1-.4-.56,6.15,6.15,0,0,1-.08-1.17v-2.82Z" transform="translate(-140.78 -217.61)"/><path d="M588.57,283.64v-3.7h-1.14v-1h2v1.28a2.14,2.14,0,0,1,.52-.82,1.65,1.65,0,0,1,.71-.44,3.83,3.83,0,0,1,1-.1h.3V280h-.23a3.68,3.68,0,0,0-1.27.17,1.14,1.14,0,0,0-.62.62,4.49,4.49,0,0,0-.2,1.61v1.25h1.24v1h-3.49v-1Z" transform="translate(-140.78 -217.61)"/><path d="M592.14,281.79a2.86,2.86,0,0,1,.87-2.15,2.92,2.92,0,0,1,2.11-.84,3,3,0,0,1,2.11.82,3.12,3.12,0,0,1,0,4.34,3,3,0,0,1-2.11.83,2.91,2.91,0,0,1-3-3Zm1.18,0a1.85,1.85,0,0,0,.52,1.37,1.8,1.8,0,0,0,2.57,0,2.06,2.06,0,0,0,0-2.75,1.72,1.72,0,0,0-1.28-.54,1.68,1.68,0,0,0-1.29.56A1.91,1.91,0,0,0,593.32,281.79Z" transform="translate(-140.78 -217.61)"/><path d="M600.92,284.72l-1.86-4.78h-1v-1h2.85v1h-.73l1.22,3.22,1.22-3.22h-.79v-1h2.77v1h-.87l-1.81,4.78Z" transform="translate(-140.78 -217.61)"/><path d="M610.62,283.64v1h-1.94v-.7a2.52,2.52,0,0,1-1.81.79,2,2,0,0,1-1.34-.5,1.66,1.66,0,0,1-.57-1.29,1.68,1.68,0,0,1,.6-1.32,2.21,2.21,0,0,1,1.46-.52,2.82,2.82,0,0,1,1.55.48V281a2,2,0,0,0-.09-.67.87.87,0,0,0-.38-.42,1.51,1.51,0,0,0-.79-.19,1.29,1.29,0,0,0-1.21.67l-1.07-.28a2.55,2.55,0,0,1,2.45-1.32,3.09,3.09,0,0,1,1.11.17,1.55,1.55,0,0,1,.69.44,1.53,1.53,0,0,1,.31.59,4.77,4.77,0,0,1,.08,1v2.63Zm-2-1.12a2.35,2.35,0,0,0-1.46-.57,1.16,1.16,0,0,0-.78.27.92.92,0,0,0-.31.7.88.88,0,0,0,.28.67,1,1,0,0,0,.74.27,2.22,2.22,0,0,0,1.53-.68Z" transform="translate(-140.78 -217.61)"/><path d="M613.21,279v.69a3.38,3.38,0,0,1,1.95-.77,1.46,1.46,0,0,1,.91.26,1.21,1.21,0,0,1,.48.64,4.32,4.32,0,0,1,.11,1.1v2.77h1v1h-2.07v-3.71a1.25,1.25,0,0,0-.19-.84.65.65,0,0,0-.47-.2,2.84,2.84,0,0,0-1.67.72v3h1v1H611.1v-1h1v-3.7h-1v-1Z" transform="translate(-140.78 -217.61)"/><path d="M620.09,279v.69a3.38,3.38,0,0,1,1.95-.77,1.46,1.46,0,0,1,.91.26,1.21,1.21,0,0,1,.48.64,4.32,4.32,0,0,1,.11,1.1v2.77h1v1h-2.07v-3.71a1.25,1.25,0,0,0-.19-.84.65.65,0,0,0-.47-.2,2.84,2.84,0,0,0-1.67.72v3h1v1H618v-1h1v-3.7h-1v-1Z" transform="translate(-140.78 -217.61)"/><path d="M631,282.07H626.2a2,2,0,0,0,.62,1.27,1.81,1.81,0,0,0,1.32.49,2.15,2.15,0,0,0,1.84-.94l1,.44a3,3,0,0,1-1.25,1.1,3.75,3.75,0,0,1-1.61.36,3.25,3.25,0,0,1-2.22-.81,2.75,2.75,0,0,1-.92-2.19,2.82,2.82,0,0,1,.9-2.15,2.92,2.92,0,0,1,2.06-.84,3,3,0,0,1,2.07.82A3.23,3.23,0,0,1,631,282.07Zm-1.15-.81a2.06,2.06,0,0,0-.62-1.08,1.74,1.74,0,0,0-1.24-.48,1.6,1.6,0,0,0-1.14.43,1.87,1.87,0,0,0-.58,1.13Z" transform="translate(-140.78 -217.61)"/><path d="M575.79,298V291.9h-1.06v-1h6.78v2.45h-1V291.9H577v2.42h3v1h-3V298h3.48v-1.49h1V299h-6.78v-1Z" transform="translate(-140.78 -217.61)"/><path d="M584.75,298v-6.17h-1.12v-1h2.23V298h1.06v1h-3.29v-1Z" transform="translate(-140.78 -217.61)"/><path d="M597.1,296.16h-2.94l-.62,1.85h1v1h-3.21v-1h1l2.23-6.21h-1v-.92h4.17v.92h-1L599,298h.91v1h-3.19v-1h1Zm-.31-1-1.09-3.41h-.11l-1.13,3.41Z" transform="translate(-140.78 -217.61)"/><path d="M601.9,299.12,600,294.34h-1v-1h2.86v1h-.74l1.22,3.22,1.22-3.22h-.78v-1h2.77v1h-.87l-1.81,4.78Z" transform="translate(-140.78 -217.61)"/><path d="M611.61,298v1h-2v-.7a2.51,2.51,0,0,1-1.8.79,2,2,0,0,1-1.35-.5,1.74,1.74,0,0,1,0-2.61,2.19,2.19,0,0,1,1.46-.52,2.81,2.81,0,0,1,1.54.48v-.56a2.3,2.3,0,0,0-.08-.67.9.9,0,0,0-.39-.42,1.5,1.5,0,0,0-.78-.19,1.31,1.31,0,0,0-1.22.67l-1.06-.28a2.54,2.54,0,0,1,2.45-1.32,3.06,3.06,0,0,1,1.1.17,1.55,1.55,0,0,1,.69.44,1.41,1.41,0,0,1,.31.59,4.18,4.18,0,0,1,.08,1V298Zm-2.06-1.12a2.35,2.35,0,0,0-1.46-.57,1.11,1.11,0,0,0-.77.27.88.88,0,0,0-.31.7.9.9,0,0,0,.27.67,1,1,0,0,0,.74.27,2.22,2.22,0,0,0,1.53-.68Z" transform="translate(-140.78 -217.61)"/><path d="M613,298v-6.17h-1v-1h2.12V298H615v1h-3v-1Z" transform="translate(-140.78 -217.61)"/></g></svg>